<svg width="207" height="42" viewBox="0 0 207 42" fill="none" xmlns="http://www.w3.org/2000/svg">
<path d="M59.1029 31.2356C57.6532 31.2356 56.2639 31.0457 54.935 30.666C53.6061 30.2691 52.536 29.7599 51.7249 29.1386L53.1487 25.9803C53.9253 26.5326 54.8401 26.9899 55.8928 27.3524C56.9629 27.6975 58.0415 27.8701 59.1288 27.8701C59.9572 27.8701 60.6217 27.7924 61.1222 27.6371C61.64 27.4645 62.0197 27.2315 62.2613 26.9381C62.5029 26.6447 62.6237 26.3082 62.6237 25.9285C62.6237 25.4453 62.4339 25.0656 62.0542 24.7894C61.6745 24.496 61.174 24.2631 60.5527 24.0905C59.9314 23.9006 59.241 23.728 58.4816 23.5727C57.7395 23.4001 56.9888 23.193 56.2294 22.9514C55.4873 22.7098 54.8055 22.3991 54.1842 22.0194C53.5629 21.6397 53.0538 21.1392 52.6568 20.5179C52.2771 19.8966 52.0873 19.1027 52.0873 18.1362C52.0873 17.1007 52.3634 16.1601 52.9157 15.3144C53.4852 14.4515 54.3309 13.7698 55.4527 13.2693C56.5918 12.7515 58.0156 12.4926 59.7243 12.4926C60.8633 12.4926 61.9851 12.6307 63.0897 12.9068C64.1943 13.1657 65.1694 13.5627 66.015 14.0977L64.7206 17.2819C63.875 16.7987 63.0293 16.4449 62.1836 16.2205C61.3379 15.9789 60.5095 15.8581 59.6984 15.8581C58.8872 15.8581 58.2228 15.953 57.705 16.1428C57.1872 16.3327 56.8162 16.5829 56.5918 16.8936C56.3674 17.187 56.2553 17.5322 56.2553 17.9291C56.2553 18.3951 56.4451 18.7748 56.8248 19.0682C57.2045 19.3443 57.705 19.5687 58.3263 19.7413C58.9476 19.9139 59.6293 20.0865 60.3715 20.259C61.1308 20.4316 61.8816 20.6301 62.6237 20.8545C63.3831 21.0788 64.0734 21.3809 64.6948 21.7605C65.3161 22.1402 65.8166 22.6407 66.1963 23.262C66.5932 23.8834 66.7917 24.6686 66.7917 25.6179C66.7917 26.6361 66.5069 27.5681 65.9374 28.4138C65.3678 29.2594 64.5135 29.9412 63.3745 30.4589C62.2527 30.9767 60.8288 31.2356 59.1029 31.2356ZM76.2847 31.132C74.6969 31.132 73.2989 30.8213 72.0908 30.2C70.9 29.5787 69.9766 28.733 69.3208 27.663C68.665 26.5757 68.3371 25.3417 68.3371 23.961C68.3371 22.5631 68.6564 21.3291 69.2949 20.259C69.9508 19.1717 70.8396 18.3261 71.9614 17.722C73.0832 17.1007 74.3517 16.79 75.7669 16.79C77.1304 16.79 78.3557 17.0834 79.443 17.6702C80.5476 18.2398 81.4191 19.0682 82.0577 20.1555C82.6963 21.2255 83.0156 22.5113 83.0156 24.0128C83.0156 24.1681 83.0069 24.3493 82.9897 24.5564C82.9724 24.7463 82.9552 24.9275 82.9379 25.1001H71.6248V22.7443H80.8151L79.2618 23.4433C79.2618 22.7184 79.1151 22.0885 78.8217 21.5534C78.5283 21.0184 78.1227 20.6042 77.605 20.3108C77.0872 20.0002 76.4832 19.8448 75.7928 19.8448C75.1025 19.8448 74.4898 20.0002 73.9548 20.3108C73.437 20.6042 73.0314 21.0271 72.738 21.5793C72.4446 22.1143 72.2979 22.7529 72.2979 23.495V24.1164C72.2979 24.8757 72.4619 25.5488 72.7898 26.1356C73.135 26.7052 73.6096 27.1452 74.2136 27.4559C74.835 27.7493 75.5598 27.896 76.3882 27.896C77.1304 27.896 77.7776 27.7838 78.3298 27.5595C78.8994 27.3351 79.4171 26.9985 79.8831 26.5498L82.0318 28.8797C81.3933 29.6046 80.5907 30.1655 79.6242 30.5625C78.6578 30.9422 77.5446 31.132 76.2847 31.132ZM85.7043 30.9249V16.9972H89.5616V20.9321L89.0179 19.7931C89.4322 18.8093 90.0966 18.0672 91.0113 17.5667C91.926 17.0489 93.0392 16.79 94.3509 16.79V20.5179C94.1783 20.5007 94.023 20.492 93.8849 20.492C93.7468 20.4748 93.6001 20.4661 93.4448 20.4661C92.3402 20.4661 91.4428 20.7854 90.7524 21.424C90.0794 22.0453 89.7428 23.0204 89.7428 24.3493V30.9249H85.7043ZM105.01 31.132C103.784 31.132 102.732 30.8731 101.852 30.3554C100.971 29.8376 100.298 29.0523 99.8323 27.9996C99.3663 26.9295 99.1333 25.5833 99.1333 23.961C99.1333 22.3215 99.3749 20.9753 99.8581 19.9225C100.359 18.8697 101.049 18.0844 101.929 17.5667C102.809 17.0489 103.836 16.79 105.01 16.79C106.322 16.79 107.495 17.0834 108.531 17.6702C109.583 18.257 110.412 19.0855 111.016 20.1555C111.637 21.2255 111.948 22.494 111.948 23.961C111.948 25.4108 111.637 26.6706 111.016 27.7407C110.412 28.8107 109.583 29.6478 108.531 30.2518C107.495 30.8386 106.322 31.132 105.01 31.132ZM96.7775 30.9249V11.716H100.816V19.8189L100.557 23.9351L100.635 28.0772V30.9249H96.7775ZM104.311 27.8183C104.984 27.8183 105.579 27.663 106.097 27.3524C106.632 27.0417 107.055 26.6016 107.366 26.0321C107.694 25.4453 107.858 24.7549 107.858 23.961C107.858 23.1499 107.694 22.4595 107.366 21.89C107.055 21.3204 106.632 20.8804 106.097 20.5697C105.579 20.259 104.984 20.1037 104.311 20.1037C103.638 20.1037 103.034 20.259 102.499 20.5697C101.964 20.8804 101.541 21.3204 101.23 21.89C100.92 22.4595 100.764 23.1499 100.764 23.961C100.764 24.7549 100.92 25.4453 101.23 26.0321C101.541 26.6016 101.964 27.0417 102.499 27.3524C103.034 27.663 103.638 27.8183 104.311 27.8183ZM122.967 30.9249V28.2067L122.708 27.6112V22.7443C122.708 21.8814 122.44 21.2083 121.905 20.725C121.388 20.2418 120.585 20.0002 119.498 20.0002C118.756 20.0002 118.022 20.121 117.297 20.3626C116.59 20.587 115.986 20.8976 115.485 21.2946L114.035 18.4728C114.795 17.9377 115.71 17.5235 116.78 17.2301C117.85 16.9367 118.937 16.79 120.041 16.79C122.164 16.79 123.812 17.2905 124.986 18.2916C126.16 19.2926 126.746 20.8545 126.746 22.9773V30.9249H122.967ZM118.721 31.132C117.634 31.132 116.702 30.9508 115.925 30.5884C115.149 30.2087 114.553 29.6995 114.139 29.061C113.725 28.4224 113.518 27.7062 113.518 26.9123C113.518 26.0838 113.716 25.359 114.113 24.7377C114.527 24.1164 115.175 23.6331 116.055 23.2879C116.935 22.9255 118.083 22.7443 119.498 22.7443H123.2V25.1001H119.938C118.989 25.1001 118.333 25.2554 117.97 25.5661C117.625 25.8767 117.453 26.2651 117.453 26.731C117.453 27.2488 117.651 27.663 118.048 27.9737C118.462 28.2671 119.023 28.4138 119.731 28.4138C120.404 28.4138 121.008 28.2584 121.543 27.9478C122.078 27.6199 122.466 27.1452 122.708 26.5239L123.329 28.3879C123.036 29.2853 122.501 29.967 121.724 30.433C120.948 30.899 119.947 31.132 118.721 31.132Z" fill="#475A73"/>
<path d="M136.641 31.2356C135.191 31.2356 133.801 31.0457 132.473 30.666C131.144 30.2691 130.074 29.7599 129.262 29.1386L130.686 25.9803C131.463 26.5326 132.378 26.9899 133.43 27.3524C134.5 27.6975 135.579 27.8701 136.666 27.8701C137.495 27.8701 138.159 27.7924 138.66 27.6371C139.178 27.4645 139.557 27.2315 139.799 26.9381C140.041 26.6447 140.161 26.3082 140.161 25.9285C140.161 25.4453 139.971 25.0656 139.592 24.7894C139.212 24.496 138.712 24.2631 138.09 24.0905C137.469 23.9006 136.779 23.728 136.019 23.5727C135.277 23.4001 134.526 23.193 133.767 22.9514C133.025 22.7098 132.343 22.3991 131.722 22.0194C131.101 21.6397 130.591 21.1392 130.194 20.5179C129.815 19.8966 129.625 19.1027 129.625 18.1362C129.625 17.1007 129.901 16.1601 130.453 15.3144C131.023 14.4515 131.869 13.7698 132.99 13.2693C134.129 12.7515 135.553 12.4926 137.262 12.4926C138.401 12.4926 139.523 12.6307 140.627 12.9068C141.732 13.1657 142.707 13.5627 143.553 14.0977L142.258 17.2819C141.413 16.7987 140.567 16.4449 139.721 16.2205C138.876 15.9789 138.047 15.8581 137.236 15.8581C136.425 15.8581 135.76 15.953 135.243 16.1428C134.725 16.3327 134.354 16.5829 134.129 16.8936C133.905 17.187 133.793 17.5322 133.793 17.9291C133.793 18.3951 133.983 18.7748 134.362 19.0682C134.742 19.3443 135.243 19.5687 135.864 19.7413C136.485 19.9139 137.167 20.0865 137.909 20.259C138.668 20.4316 139.419 20.6301 140.161 20.8545C140.921 21.0788 141.611 21.3809 142.232 21.7605C142.854 22.1402 143.354 22.6407 143.734 23.262C144.131 23.8834 144.329 24.6686 144.329 25.6179C144.329 26.6361 144.045 27.5681 143.475 28.4138C142.905 29.2594 142.051 29.9412 140.912 30.4589C139.79 30.9767 138.366 31.2356 136.641 31.2356ZM153.822 31.132C152.234 31.132 150.837 30.8213 149.628 30.2C148.438 29.5787 147.514 28.733 146.858 27.663C146.203 26.5757 145.875 25.3417 145.875 23.961C145.875 22.5631 146.194 21.3291 146.833 20.259C147.488 19.1717 148.377 18.3261 149.499 17.722C150.621 17.1007 151.889 16.79 153.305 16.79C154.668 16.79 155.893 17.0834 156.981 17.6702C158.085 18.2398 158.957 19.0682 159.595 20.1555C160.234 21.2255 160.553 22.5113 160.553 24.0128C160.553 24.1681 160.545 24.3493 160.527 24.5564C160.51 24.7463 160.493 24.9275 160.476 25.1001H149.162V22.7443H158.353L156.799 23.4433C156.799 22.7184 156.653 22.0885 156.359 21.5534C156.066 21.0184 155.66 20.6042 155.143 20.3108C154.625 20.0002 154.021 19.8448 153.33 19.8448C152.64 19.8448 152.027 20.0002 151.492 20.3108C150.975 20.6042 150.569 21.0271 150.276 21.5793C149.982 22.1143 149.836 22.7529 149.836 23.495V24.1164C149.836 24.8757 149.999 25.5488 150.327 26.1356C150.673 26.7052 151.147 27.1452 151.751 27.4559C152.373 27.7493 153.097 27.896 153.926 27.896C154.668 27.896 155.315 27.7838 155.867 27.5595C156.437 27.3351 156.955 26.9985 157.421 26.5498L159.569 28.8797C158.931 29.6046 158.128 30.1655 157.162 30.5625C156.195 30.9422 155.082 31.132 153.822 31.132ZM169.792 36.1543C168.48 36.1543 167.211 35.9903 165.986 35.6624C164.778 35.3517 163.768 34.8771 162.957 34.2386L164.562 31.3391C165.149 31.8223 165.891 32.202 166.789 32.4782C167.703 32.7716 168.601 32.9183 169.481 32.9183C170.913 32.9183 171.949 32.599 172.587 31.9604C173.243 31.3218 173.571 30.3726 173.571 29.1127V27.0158L173.83 23.5209L173.778 20.0002V16.9972H177.61V28.595C177.61 31.1838 176.937 33.0909 175.59 34.3162C174.244 35.5416 172.311 36.1543 169.792 36.1543ZM169.17 30.2518C167.876 30.2518 166.702 29.9757 165.649 29.4234C164.614 28.8539 163.777 28.0686 163.138 27.0676C162.517 26.0493 162.206 24.8671 162.206 23.5209C162.206 22.1575 162.517 20.9753 163.138 19.9743C163.777 18.956 164.614 18.1707 165.649 17.6185C166.702 17.0662 167.876 16.79 169.17 16.79C170.344 16.79 171.379 17.0317 172.277 17.5149C173.174 17.9809 173.873 18.7144 174.374 19.7154C174.874 20.6991 175.124 21.9676 175.124 23.5209C175.124 25.0569 174.874 26.3255 174.374 27.3265C173.873 28.3102 173.174 29.0437 172.277 29.5269C171.379 30.0102 170.344 30.2518 169.17 30.2518ZM169.973 26.9381C170.68 26.9381 171.31 26.8001 171.863 26.5239C172.415 26.2305 172.846 25.825 173.157 25.3072C173.468 24.7894 173.623 24.194 173.623 23.5209C173.623 22.8306 173.468 22.2352 173.157 21.7347C172.846 21.2169 172.415 20.8199 171.863 20.5438C171.31 20.2504 170.68 20.1037 169.973 20.1037C169.265 20.1037 168.635 20.2504 168.083 20.5438C167.531 20.8199 167.091 21.2169 166.763 21.7347C166.452 22.2352 166.297 22.8306 166.297 23.5209C166.297 24.194 166.452 24.7894 166.763 25.3072C167.091 25.825 167.531 26.2305 168.083 26.5239C168.635 26.8001 169.265 26.9381 169.973 26.9381ZM189.912 30.9249V28.2067L189.653 27.6112V22.7443C189.653 21.8814 189.385 21.2083 188.85 20.725C188.332 20.2418 187.53 20.0002 186.443 20.0002C185.7 20.0002 184.967 20.121 184.242 20.3626C183.534 20.587 182.93 20.8976 182.43 21.2946L180.98 18.4728C181.74 17.9377 182.654 17.5235 183.724 17.2301C184.794 16.9367 185.882 16.79 186.986 16.79C189.109 16.79 190.757 17.2905 191.931 18.2916C193.104 19.2926 193.691 20.8545 193.691 22.9773V30.9249H189.912ZM185.666 31.132C184.579 31.132 183.647 30.9508 182.87 30.5884C182.093 30.2087 181.498 29.6995 181.084 29.061C180.67 28.4224 180.462 27.7062 180.462 26.9123C180.462 26.0838 180.661 25.359 181.058 24.7377C181.472 24.1164 182.119 23.6331 182.999 23.2879C183.88 22.9255 185.027 22.7443 186.443 22.7443H190.145V25.1001H186.883C185.933 25.1001 185.278 25.2554 184.915 25.5661C184.57 25.8767 184.397 26.2651 184.397 26.731C184.397 27.2488 184.596 27.663 184.993 27.9737C185.407 28.2671 185.968 28.4138 186.676 28.4138C187.349 28.4138 187.953 28.2584 188.488 27.9478C189.023 27.6199 189.411 27.1452 189.653 26.5239L190.274 28.3879C189.981 29.2853 189.446 29.967 188.669 30.433C187.892 30.899 186.891 31.132 185.666 31.132ZM197.346 30.9249V16.9972H201.204V20.9321L200.66 19.7931C201.074 18.8093 201.739 18.0672 202.653 17.5667C203.568 17.0489 204.681 16.79 205.993 16.79V20.5179C205.82 20.5007 205.665 20.492 205.527 20.492C205.389 20.4748 205.242 20.4661 205.087 20.4661C203.982 20.4661 203.085 20.7854 202.394 21.424C201.721 22.0453 201.385 23.0204 201.385 24.3493V30.9249H197.346Z" fill="#7EAC08"/>
<path d="M22.9085 16.9802C22.5508 16.9779 22.3788 17.0656 22.3925 17.2434" stroke="#1E481F" stroke-width="2"/>
<path d="M22.3926 17.2434C22.3295 17.2422 22.2636 17.2715 22.1948 17.3311" stroke="#41651F" stroke-width="2"/>
<path d="M16.634 20.4374C16.5927 20.5601 16.5795 20.6639 16.5944 20.7487C16.6082 20.8256 16.6403 20.8347 16.6908 20.7762C17.6419 19.6858 19.2278 19.4708 20.3647 19.0838C20.4151 19.0666 20.4404 19.0843 20.4404 19.1371V19.1938C20.4404 19.2088 20.4329 19.2196 20.418 19.2265L19.0558 19.856C18.8688 19.942 18.878 19.981 19.0833 19.973C19.3252 19.9627 19.6079 19.8612 19.9312 19.6686" stroke="#41651F" stroke-width="2"/>
<path d="M19.9313 19.6686C19.9416 19.7305 20.0144 19.7397 20.1497 19.6961C20.1715 19.6892 20.1824 19.6972 20.1824 19.7202C20.1824 19.7351 20.1824 19.7494 20.1824 19.7632C20.1812 19.8033 20.1658 19.8377 20.136 19.8664C20.0006 19.9959 19.8401 20.0774 19.6544 20.1106C19.5993 20.1198 19.55 20.1421 19.5064 20.1777C19.2622 20.3749 18.9784 20.4712 18.655 20.4666C18.6367 20.4666 18.6269 20.4764 18.6258 20.4959C18.6258 20.5142 18.6292 20.5291 18.6361 20.5406C18.6464 20.5555 18.6654 20.5664 18.6929 20.5733C19.382 20.7292 20.0167 20.6805 20.5969 20.4271C21.4294 20.0636 22.1736 19.4713 22.8295 18.6503" stroke="#1E481F" stroke-width="2"/>
<path d="M20.922 22.3776L20.7603 22.541C20.7328 22.5685 20.7385 22.5828 20.7775 22.584C20.8761 22.5851 20.9862 22.5364 21.1077 22.4378" stroke="#253C54" stroke-width="2"/>
<path d="M22.2395 21.6517L22.1758 22.2021C22.1721 22.2369 22.1782 22.272 22.1934 22.3034C22.2087 22.3348 22.2325 22.3613 22.2621 22.3798C22.2918 22.3983 22.326 22.408 22.361 22.408C22.3959 22.4079 22.4301 22.3979 22.4596 22.3793C22.697 22.2291 22.9538 22.1373 23.2302 22.1041" stroke="#1E481F" stroke-width="2"/>
<path d="M13.6154 16.8684C13.6613 17.0748 13.7502 17.2663 13.882 17.4429C14.0781 17.7026 14.4496 17.8144 14.6715 18.093C14.9673 18.468 15.2288 18.7747 15.4558 19.0132C15.6244 19.1904 15.7517 19.4759 16.0165 19.6359C16.1473 19.715 16.2476 19.7167 16.3175 19.641C16.3806 19.5711 16.4253 19.4536 16.4517 19.2884" stroke="#41651F" stroke-width="2"/>
<path d="M18.6911 10.642C18.2118 11.3816 17.8323 12.143 17.5525 12.9262C17.5181 13.0225 17.5129 13.1211 17.537 13.222C17.5565 13.3046 17.5875 13.3092 17.6299 13.2358C17.728 13.0707 17.752 12.8832 17.8466 12.7267C18.2296 12.0857 18.4882 11.5788 18.6223 11.2062C18.7921 10.7326 18.9251 10.4041 19.0214 10.2206" stroke="#394F63" stroke-width="2"/>
<path d="M19.9313 19.6686C20.2701 19.4708 20.8601 19.3693 21.051 18.8911C21.0716 18.8384 21.1043 18.7942 21.149 18.7587C21.6811 18.3379 22.0956 17.8328 22.3926 17.2434" stroke="#5B9009" stroke-width="2"/>
<path d="M13.624 30.2999C14.0426 30.8136 14.4663 31.1937 14.8951 31.4403C15.0258 31.5159 15.129 31.669 15.2838 31.7344C15.457 31.8066 15.5613 31.8582 15.5969 31.8892C15.7322 32.0084 15.7987 32.1219 15.7964 32.2297C15.7872 32.6127 15.8606 32.6299 16.0165 32.2813C16.247 31.7688 16.7252 31.4901 17.2309 31.2511C17.576 31.0882 17.8443 30.8165 18.0358 30.4358" stroke="#41651F" stroke-width="2"/>
<path d="M11.7578 11.4487C11.3232 11.3937 10.8812 11.5284 10.4317 11.8529" stroke="#808E9A" stroke-width="2"/>
<path d="M10.1702 12.6991L10.5469 13.5557C10.5721 13.6153 10.6174 13.6423 10.6828 13.6365C10.9133 13.6176 11.1489 13.4233 11.2917 13.3545C11.6712 13.1721 11.939 12.9353 12.0949 12.6441C12.1935 12.4595 12.2061 12.1917 12.1327 11.8409" stroke="#808E9A" stroke-width="2"/>
<path d="M17.0245 12.5633C17.0061 12.5633 16.9884 12.5633 16.9712 12.5633C16.9627 12.5632 16.9543 12.5649 16.9466 12.5684C16.9389 12.5718 16.932 12.5769 16.9264 12.5833C16.9209 12.5897 16.9168 12.5972 16.9144 12.6053C16.912 12.6134 16.9114 12.622 16.9127 12.6303C16.9574 12.9055 16.7424 12.9434 16.7046 13.1532C16.6805 13.2862 16.7028 13.2948 16.7716 13.179C16.8164 13.1022 16.8731 13.0386 16.9419 12.9881C16.9843 12.9571 17.0142 12.9159 17.0314 12.8643C17.0669 12.753 17.134 12.6642 17.2326 12.5977C17.2486 12.5873 17.2567 12.5719 17.2567 12.5512C17.2567 12.5352 17.2567 12.5191 17.2567 12.5031C17.2578 12.4434 17.2297 12.4228 17.1724 12.4411C17.1162 12.4606 17.0755 12.4956 17.0503 12.5461C17.0445 12.5575 17.0359 12.5633 17.0245 12.5633Z" stroke="#394F63" stroke-width="2"/>
<path d="M14.3189 25.6628C14.3522 25.797 14.4169 25.926 14.5133 26.0498C14.55 26.0957 14.5981 26.1152 14.6577 26.1083C14.7449 26.0968 14.7994 26.0504 14.8212 25.969C14.8372 25.907 14.8722 25.8594 14.9261 25.8262C15.16 25.6766 15.363 25.5476 15.6433 25.4392C16.0401 25.2844 16.3766 25.0619 16.6529 24.7718C16.7263 24.695 16.8037 24.6423 16.8851 24.6136C16.9425 24.593 16.9757 24.5522 16.9849 24.4915C16.9998 24.4066 17.0445 24.3493 17.1191 24.3195C17.1741 24.2988 17.2131 24.2604 17.236 24.2042C17.3232 23.9864 17.5233 23.7117 17.8363 23.3804C18.0198 23.1843 18.0272 22.9945 17.8587 22.811" stroke="#394F63" stroke-width="2"/>
<path d="M17.8586 22.811C17.697 22.5037 17.4722 22.2538 17.1844 22.0611C17.1729 22.0531 17.1712 22.0433 17.1792 22.0319V22.0302C17.1861 22.0175 17.1959 22.0152 17.2085 22.0233C18.624 22.8351 19.558 23.8619 19.4548 25.5372C19.4546 25.5388 19.4547 25.5404 19.4551 25.542C19.4555 25.5435 19.4562 25.545 19.4571 25.5462C19.4581 25.5475 19.4593 25.5486 19.4606 25.5494C19.462 25.5502 19.4635 25.5508 19.4651 25.551C19.4667 25.5512 19.4683 25.5511 19.4699 25.5507C19.4714 25.5503 19.4729 25.5496 19.4741 25.5487C19.4754 25.5477 19.4765 25.5465 19.4773 25.5451C19.4781 25.5438 19.4787 25.5423 19.4789 25.5407C19.4978 25.391 19.5666 25.262 19.5821 25.1158C19.7312 23.6183 19.2455 22.5117 18.1252 21.7962C15.2821 19.9816 11.8748 22.6666 12.9326 25.9139C13.1447 26.5664 13.5208 27.0577 14.0609 27.388C14.1526 27.4441 14.1738 27.4241 14.1245 27.3278C13.9835 27.0543 13.7513 26.7739 13.6515 26.5365C13.1906 25.4375 13.206 23.7329 14.2277 22.9056C14.2759 22.8666 14.2914 22.877 14.2742 22.9366C14.0093 23.8413 14.0242 24.75 14.3189 25.6628" stroke="#808E9A" stroke-width="2"/>
<path d="M17.8587 22.811C17.6454 23.745 17.0554 23.8757 16.4534 24.3728C16.2402 24.55 15.9288 24.6463 15.793 24.9903C15.7924 24.9918 15.7916 24.9931 15.7905 24.9942C15.7893 24.9953 15.788 24.9962 15.7865 24.9966C15.785 24.9971 15.7834 24.9973 15.7818 24.9971C15.7803 24.9969 15.7788 24.9963 15.7775 24.9954L15.731 24.9714C15.7135 24.9618 15.6939 24.9567 15.6738 24.9564C15.6538 24.9561 15.6338 24.9606 15.6158 24.9696L14.8057 25.3549C14.7598 25.3767 14.7243 25.41 14.699 25.4547C14.6142 25.6037 14.4875 25.6731 14.3189 25.6628" stroke="#B6BFC8" stroke-width="2"/>
<path d="M9.55621 23.1498C9.84976 23.2278 10.2012 23.1648 10.6106 22.9606C10.8703 22.8316 11.2367 22.5633 11.2195 22.2331C11.2103 22.0508 11.1575 21.9527 11.0612 21.939" stroke="#394F63" stroke-width="2"/>
<path d="M11.0612 21.939C10.0877 20.7935 8.99892 21.9407 9.5562 23.1499" stroke="#808E9A" stroke-width="2"/>
<path d="M11.0612 21.939C10.8433 22.0124 10.5538 22.1436 10.1926 22.3328C9.83256 22.522 9.62043 22.7944 9.55621 23.1498" stroke="#B6BFC8" stroke-width="2"/>
<path d="M6.18848 24.2386C6.23549 24.3109 6.2934 24.3659 6.3622 24.4037C6.41494 24.4324 6.46081 24.4244 6.4998 24.3797L6.64944 24.2145C6.68613 24.1733 6.732 24.1498 6.78704 24.144C7.5232 24.0626 7.97728 23.6699 8.14928 22.9658" stroke="#394F63" stroke-width="2"/>
<path d="M8.14924 22.9658C7.11552 21.8203 5.39552 22.7336 6.18844 24.2386" stroke="#808E9A" stroke-width="2"/>
<path d="M8.14928 22.9658C7.50084 23.0054 7.27208 23.0277 6.84896 23.5403C6.81685 23.5793 6.77557 23.6011 6.72512 23.6057L6.55483 23.6177C6.52275 23.6196 6.49242 23.633 6.46938 23.6554C6.44633 23.6779 6.4321 23.7078 6.42928 23.7398C6.39488 24.0827 6.31461 24.2489 6.18848 24.2386" stroke="#B6BFC8" stroke-width="2"/>
<path d="M3.8974 25.9449C4.46672 26.6157 4.97584 25.6748 5.21664 25.1227C5.23957 25.0688 5.24072 25.0149 5.22008 24.961L4.87952 24.0339" stroke="#394F63" stroke-width="2"/>
<path d="M4.87953 24.034C4.00004 23.9158 3.54825 24.3556 3.52417 25.3532C3.51958 25.5435 3.644 25.7408 3.89741 25.9449" stroke="#808E9A" stroke-width="2"/>
<path d="M4.8795 24.0339L4.90874 24.7512C4.9106 24.7917 4.8982 24.8317 4.87369 24.864C4.84919 24.8964 4.81412 24.9191 4.77458 24.9283C4.48104 25.0006 4.21157 25.1267 3.96618 25.3067C3.91573 25.3446 3.8905 25.3956 3.8905 25.4598L3.89738 25.9449" stroke="#B6BFC8" stroke-width="2"/>
<path d="M9.23285 26.4024C9.55736 26.5159 9.879 26.4448 10.1978 26.1891C10.2838 26.1203 10.4655 25.993 10.743 25.8073C11.1283 25.5527 11.1036 25.1852 10.6691 24.7047" stroke="#394F63" stroke-width="2"/>
<path d="M10.669 24.7048C9.40311 23.7966 8.15783 25.1571 9.23283 26.4024" stroke="#808E9A" stroke-width="2"/>
<path d="M10.6691 24.7047C10.6599 24.7277 10.6518 24.7472 10.645 24.7632C10.6289 24.8045 10.6014 24.8148 10.5624 24.7942C10.5051 24.7644 10.4586 24.7569 10.4231 24.7718C10.1915 24.8658 10.0332 25.0287 9.94837 25.2603C9.93117 25.3096 9.89906 25.3457 9.85205 25.3687C9.48856 25.551 9.28216 25.8956 9.23285 26.4024" stroke="#B6BFC8" stroke-width="2"/>
<path d="M6.62707 26.8633C6.76697 26.7934 6.91087 26.7303 7.05879 26.6741C7.11613 26.6535 7.16543 26.6202 7.20671 26.5744C7.33285 26.4322 7.48077 26.3164 7.65047 26.2269C7.67651 26.213 7.69873 26.1929 7.7152 26.1684C7.73166 26.1439 7.74187 26.1157 7.74493 26.0864C7.74798 26.057 7.74379 26.0273 7.73272 26C7.72165 25.9726 7.70404 25.9484 7.68143 25.9294C6.63567 25.0573 5.37835 25.9345 5.95971 27.2125C6.07782 27.4716 6.17357 27.4636 6.24695 27.1884C6.27562 27.0852 6.40233 26.9768 6.62707 26.8633Z" stroke="#808E9A" stroke-width="2"/>
<path d="M8.86133 28.7571L9.75573 28.1086C9.79763 28.078 9.82568 28.032 9.83374 27.9808C9.8418 27.9295 9.82921 27.8771 9.79873 27.8351L9.77637 27.8059C9.65769 27.6426 9.48273 27.5304 9.28988 27.494C9.09704 27.4576 8.90208 27.4998 8.74781 27.6115L8.69965 27.6459C8.54566 27.7582 8.44521 27.9307 8.42037 28.1255C8.39554 28.3203 8.44836 28.5215 8.56721 28.6848L8.58785 28.7141C8.61847 28.756 8.66445 28.784 8.71571 28.7921C8.76697 28.8001 8.81934 28.7875 8.86133 28.7571Z" stroke="#808E9A" stroke-width="2"/>
<path d="M5.42446 29.1819C5.46962 29.1823 5.5135 29.1277 5.54646 29.03C5.57941 28.9323 5.59874 28.7995 5.6002 28.6608C5.60165 28.5221 5.5851 28.389 5.5542 28.2906C5.52329 28.1922 5.48056 28.1366 5.4354 28.1362C5.39025 28.1357 5.34637 28.1903 5.31341 28.2881C5.28045 28.3858 5.26112 28.5186 5.25967 28.6572C5.25822 28.7959 5.27476 28.9291 5.30567 29.0275C5.33657 29.1258 5.37931 29.1814 5.42446 29.1819Z" stroke="#808E9A" stroke-width="2"/>
<path d="M9.05575 30.2808C8.98401 30.1382 8.84996 30.0342 8.68311 29.9918C8.51625 29.9493 8.33024 29.9719 8.16601 30.0545C8.08468 30.0954 8.01115 30.1498 7.94962 30.2146C7.88808 30.2794 7.83974 30.3534 7.80735 30.4323C7.77497 30.5111 7.75917 30.5933 7.76087 30.6742C7.76256 30.7551 7.78172 30.8331 7.81724 30.9038C7.88898 31.0464 8.02303 31.1504 8.18988 31.1928C8.35674 31.2353 8.54275 31.2127 8.70698 31.1301C8.7883 31.0892 8.86183 31.0348 8.92337 30.97C8.98491 30.9052 9.03325 30.8312 9.06564 30.7524C9.09803 30.6735 9.11382 30.5913 9.11212 30.5104C9.11042 30.4295 9.09127 30.3515 9.05575 30.2808Z" stroke="#394F63" stroke-width="2"/>
<path d="M9.9071 32.5531C10.4437 32.8317 11.0543 32.7303 10.8548 31.9683" stroke="#394F63" stroke-width="2"/>
<path d="M10.8548 31.9683C10.4592 31.2975 9.5734 31.7825 9.90708 32.5531" stroke="#808E9A" stroke-width="2"/>
<path d="M10.8548 31.9683C10.6255 32.2825 10.3096 32.4774 9.9071 32.5531" stroke="#B6BFC8" stroke-width="2"/>
<path d="M16.973 5.87002C16.9861 5.87416 17.0189 5.8146 17.0642 5.70446C17.1095 5.59432 17.1636 5.44261 17.2146 5.2827C17.2399 5.20351 17.2637 5.12469 17.2845 5.05074C17.3054 4.97678 17.323 4.90915 17.3363 4.8517C17.3496 4.79425 17.3584 4.7481 17.3621 4.7159C17.3658 4.6837 17.3644 4.66607 17.3579 4.66402C17.3449 4.65988 17.3121 4.71943 17.2668 4.82957C17.2215 4.93971 17.1674 5.09142 17.1163 5.25133C17.091 5.33053 17.0673 5.40935 17.0464 5.4833C17.0255 5.55725 17.0079 5.62489 16.9946 5.68234C16.9813 5.73979 16.9726 5.78593 16.9689 5.81814C16.9652 5.85034 16.9666 5.86797 16.973 5.87002Z" stroke="#808E9A" stroke-width="2"/>
<path d="M23.5071 12.8987C23.3902 13.0408 23.2371 13.1618 23.0479 13.2616C23.0391 13.2662 23.0318 13.2731 23.0266 13.2816C23.0215 13.2901 23.0187 13.2998 23.0186 13.3097C23.0186 13.3258 23.0181 13.3424 23.0169 13.3596C23.0168 13.3649 23.0183 13.3701 23.0212 13.3746C23.024 13.3791 23.028 13.3827 23.0328 13.3848C23.0375 13.3868 23.0426 13.3873 23.0475 13.3862C23.0523 13.3851 23.0567 13.3824 23.0599 13.3785C23.2285 13.2077 23.4028 13.1028 23.5828 13.0638" stroke="#253C54" stroke-width="2"/>
<path d="M6.40673 13.2724C6.40483 13.2652 6.37759 13.2649 6.32656 13.2714C6.27553 13.278 6.20172 13.2913 6.10933 13.3106C6.01694 13.3299 5.90778 13.3548 5.7881 13.3839C5.66842 13.413 5.54056 13.4457 5.41181 13.4802C5.28309 13.5147 5.156 13.5503 5.03782 13.5849C4.91963 13.6195 4.81265 13.6525 4.72299 13.682C4.63333 13.7115 4.56275 13.7369 4.51527 13.7567C4.46779 13.7766 4.44435 13.7905 4.44628 13.7977C4.44817 13.8049 4.47542 13.8053 4.52645 13.7987C4.57747 13.7922 4.65129 13.7789 4.74368 13.7596C4.83607 13.7403 4.94522 13.7154 5.0649 13.6863C5.18458 13.6571 5.31245 13.6244 5.44119 13.5899C5.56992 13.5554 5.697 13.5198 5.81519 13.4852C5.93338 13.4506 6.04036 13.4176 6.13002 13.3881C6.21968 13.3586 6.29026 13.3333 6.33774 13.3134C6.38522 13.2936 6.40866 13.2796 6.40673 13.2724Z" stroke="#808E9A" stroke-width="2"/>
<path d="M3.86127 19.4192L5.19943 18.2771C5.20766 18.2701 5.214 18.2611 5.2179 18.251C5.2218 18.2409 5.22313 18.23 5.22177 18.2192C5.2204 18.2085 5.21639 18.1982 5.21009 18.1894C5.20379 18.1806 5.19539 18.1735 5.18567 18.1687C5.12604 18.1401 5.10769 18.1429 5.13063 18.1773" stroke="#394F63" stroke-width="2"/>
<path d="M24.4514 29.0443C24.4927 29.1211 24.546 29.171 24.6114 29.1939C24.6699 29.2146 24.6905 29.1951 24.6733 29.1355C24.6423 29.0334 24.5867 28.9594 24.5065 28.9136" stroke="#394F63" stroke-width="2"/>
<path d="M24.5013 27.7749C24.5185 27.9664 24.5913 28.131 24.7197 28.2686C24.7321 28.2817 24.7473 28.2919 24.7642 28.2984C24.7811 28.3048 24.7992 28.3074 24.8172 28.3059C24.8352 28.3044 24.8526 28.2989 24.8682 28.2898C24.8838 28.2806 24.8971 28.2681 24.9072 28.2531C24.9496 28.1889 24.9806 28.1201 25.0001 28.0467C25.0116 27.9997 25.0391 27.9659 25.0826 27.9452C25.7552 27.6236 25.8205 27.0044 26.352 26.6862C26.5148 26.5899 26.5143 26.5153 26.3503 26.4626" stroke="#808E9A" stroke-width="2"/>
<path d="M20.5316 33.1757C20.5407 33.2147 20.5579 33.2394 20.5832 33.2497C20.5912 33.2531 20.5999 33.2544 20.6086 33.2537C20.6173 33.2529 20.6256 33.25 20.6329 33.2452C20.6402 33.2405 20.6462 33.234 20.6504 33.2264C20.6547 33.2188 20.657 33.2103 20.6571 33.2015C20.6594 33.1098 20.6233 33.033 20.5488 32.9711" stroke="#394F63" stroke-width="2"/>
<path d="M20.6863 31.4093C20.3028 31.6879 20.9306 32.443 21.2006 32.6322C21.2251 32.6494 21.2547 32.6579 21.2847 32.6564C21.3146 32.6548 21.3431 32.6433 21.3657 32.6236C21.4036 32.5904 21.4317 32.5479 21.45 32.4963C21.4684 32.4459 21.5022 32.4092 21.5515 32.3863C21.8634 32.2452 22.099 32.0314 22.2584 31.7447C22.513 31.2855 22.7503 30.9569 22.427 30.5063C22.3995 30.4685 22.4058 30.4387 22.4459 30.4169C22.4608 30.4077 22.4803 30.4031 22.5044 30.4031" stroke="#394F63" stroke-width="2"/>
<path d="M22.5044 30.4031L22.9344 30.9879C22.9395 30.9956 22.9468 31.0016 22.9553 31.0051C22.9639 31.0086 22.9733 31.0095 22.9823 31.0076C22.9914 31.0058 22.9997 31.0013 23.0061 30.9947C23.0126 30.9881 23.017 30.9798 23.0187 30.9707C23.0754 30.6955 22.6747 30.3653 22.4855 30.2896" stroke="#808E9A" stroke-width="2"/>
<path d="M21.6272 30.4839L21.4019 30.5682" stroke="#394F63" stroke-width="2"/>
<path d="M22.4012 30.3137C22.4081 30.3676 22.4425 30.3974 22.5044 30.4031" stroke="#B6BFC8" stroke-width="2"/>
<path d="M14.0248 38.6161C14.1177 38.7503 14.222 38.85 14.3378 38.9154C14.4043 38.9521 14.4158 38.9395 14.3722 38.8775L14.1693 38.5938" stroke="#394F63" stroke-width="2"/>
<path d="M14.5184 36.4541C14.4726 36.6307 14.4737 36.8204 14.5219 37.0234" stroke="#808E9A" stroke-width="2"/>
<path d="M14.5219 37.0234C14.5425 37.4052 14.6789 37.7303 14.9312 37.9986C14.9702 38.0411 15.0189 38.0623 15.0774 38.0623L15.676 38.064C15.7333 38.064 15.7832 38.0445 15.8256 38.0055L16.5893 37.3313C16.6317 37.2934 16.6782 37.2613 16.7286 37.235C17.1999 36.9924 17.6918 35.9931 17.6333 35.484C17.5903 35.1228 17.2756 34.8235 17.2824 34.538" stroke="#253C54" stroke-width="2"/>
<path d="M18.3024 35.6732C18.3334 35.8211 18.3924 35.9478 18.4796 36.0533C18.5277 36.1118 18.5564 36.1032 18.5656 36.0275C18.5782 35.93 18.5363 35.8194 18.44 35.6955" stroke="#253C54" stroke-width="2"/>
<path d="M14.5219 37.0234C15.0608 36.606 15.606 36.2093 16.1576 35.8332C16.5474 35.566 16.8255 35.3183 16.9918 35.0901C17.1741 34.8401 17.1546 34.6309 16.9333 34.4623" stroke="#A2ACB9" stroke-width="2"/>
<path d="M22.9086 16.9802C22.5508 16.9779 22.3788 17.0656 22.3926 17.2434C22.3295 17.2422 22.2636 17.2715 22.1948 17.3311C22.1558 17.2864 22.1116 17.2847 22.0623 17.3259C21.2109 18.0501 20.1875 18.0896 19.1452 18.3012C18.2388 18.4852 16.5859 19.3177 16.634 20.4374C16.5927 20.5601 16.5795 20.6639 16.5945 20.7487C16.6082 20.8256 16.6403 20.8347 16.6908 20.7763C17.6419 19.6858 19.2278 19.4708 20.3647 19.0838C20.4152 19.0666 20.4404 19.0844 20.4404 19.1371V19.1939C20.4404 19.2088 20.4329 19.2197 20.418 19.2265L19.0558 19.8561C18.8689 19.9421 18.878 19.9811 19.0833 19.973C19.3252 19.9627 19.6079 19.8612 19.9313 19.6686C19.9416 19.7305 20.0144 19.7397 20.1497 19.6961C20.1715 19.6892 20.1824 19.6973 20.1824 19.7202C20.1824 19.7351 20.1824 19.7494 20.1824 19.7632C20.1812 19.8033 20.1657 19.8377 20.1359 19.8664C20.0006 19.996 19.8401 20.0774 19.6543 20.1106C19.5993 20.1198 19.55 20.1422 19.5064 20.1777C19.2622 20.3749 18.9784 20.4713 18.655 20.4667C18.6367 20.4667 18.6269 20.4764 18.6258 20.4959C18.6258 20.5142 18.6292 20.5292 18.6361 20.5406C18.6464 20.5555 18.6653 20.5664 18.6929 20.5733C19.382 20.7292 20.0167 20.6805 20.5969 20.4271C21.4294 20.0636 22.1736 19.4714 22.8295 18.6503C22.5955 20.1175 22.0847 21.435 20.8927 22.338C20.8904 22.3392 20.8904 22.3415 20.8927 22.3449L20.922 22.3776L20.7603 22.541C20.7328 22.5685 20.7385 22.5828 20.7775 22.584C20.8761 22.5851 20.9862 22.5364 21.1077 22.4378C21.1169 22.4447 21.1267 22.4578 21.137 22.4773C21.1473 22.4968 21.1611 22.4997 21.1783 22.4859L22.2395 21.6517L22.1759 22.2021C22.1721 22.2369 22.1782 22.272 22.1934 22.3034C22.2087 22.3348 22.2325 22.3613 22.2622 22.3798C22.2918 22.3983 22.326 22.408 22.361 22.408C22.3959 22.4079 22.4301 22.3979 22.4597 22.3793C22.697 22.2291 22.9539 22.1374 23.2302 22.1041C23.0995 22.4194 22.9315 22.6746 22.7263 22.8695C22.7106 22.8841 22.6982 22.902 22.6899 22.9218C22.6816 22.9417 22.6776 22.9631 22.6781 22.9847C22.6827 23.1235 22.7526 23.1602 22.8879 23.0948C23.4246 22.8334 23.8397 22.4418 24.1332 21.9201C24.186 21.826 24.2244 21.8318 24.2485 21.9373C24.2519 21.9522 24.2479 21.9877 24.2364 22.0439C23.9062 23.7192 22.7159 24.7512 21.0561 25.0694C21.0057 25.0795 20.9597 25.1049 20.9243 25.1421C20.8889 25.1794 20.8658 25.2267 20.8583 25.2775C20.5935 27.1271 19.6652 28.467 18.0737 29.2971C16.9797 29.8665 16.4741 30.1503 15.9821 31.1238C15.9786 31.131 15.973 31.1371 15.9661 31.1412C15.9592 31.1453 15.9512 31.1473 15.9432 31.1469C15.9351 31.1465 15.9274 31.1438 15.9208 31.1391C15.9143 31.1344 15.9093 31.1279 15.9065 31.1203C15.4008 29.8579 14.0334 29.3539 13.1407 28.7089C13.1224 28.6953 13.1009 28.6867 13.0783 28.684C13.0556 28.6813 13.0327 28.6845 13.0117 28.6934C12.8156 28.7771 12.6597 28.9073 12.5439 29.0839C12.5268 29.1105 12.5162 29.1407 12.513 29.1721C12.5097 29.2035 12.5138 29.2351 12.5249 29.2645C12.8288 30.0568 12.6734 30.7288 12.0588 31.2803C11.982 31.348 11.9602 31.4305 11.9935 31.528C12.4045 32.7509 11.9745 33.9618 10.5676 33.9618C9.75115 33.9618 9.19101 33.5444 8.88714 32.7096C8.83898 32.5778 8.74495 32.5015 8.60506 32.4809C7.51114 32.3175 6.81626 31.9236 6.61846 30.7385C6.60126 30.6387 6.54278 30.5935 6.44302 30.6026C4.70754 30.7523 3.53106 29.1269 4.42202 27.5892C4.43565 27.566 4.44417 27.5401 4.44701 27.5133C4.44984 27.4865 4.44693 27.4595 4.43847 27.4339C4.43 27.4083 4.41617 27.3849 4.39791 27.3651C4.37965 27.3453 4.35738 27.3296 4.33258 27.3191C4.20186 27.263 4.04763 27.2068 3.8699 27.1506C2.84707 26.8295 2.37923 26.1163 2.46638 25.0109C2.55009 23.9422 3.08501 23.2846 4.07114 23.0381C4.34118 22.9693 4.66626 22.9951 4.9707 22.9607C5.02803 22.9549 5.07218 22.928 5.10314 22.8798C5.6415 22.0456 5.99066 21.478 7.06566 21.3473C7.12299 21.3404 7.16427 21.31 7.1895 21.2561C7.27664 21.0681 7.34602 20.8789 7.39762 20.6885C7.5765 20.0229 8.25762 19.2661 9.0299 19.457C9.04763 19.4612 9.06374 19.4704 9.07635 19.4836C9.08896 19.4967 9.09756 19.5132 9.10116 19.5312C9.10476 19.5492 9.10321 19.5679 9.09668 19.5853C9.09016 19.6026 9.07893 19.6177 9.0643 19.629C8.46001 20.0808 8.1441 20.6891 8.11658 21.4539C8.1152 21.4886 8.1207 21.5233 8.13277 21.5558C8.14484 21.5884 8.16324 21.6183 8.1869 21.6437C8.21057 21.6691 8.23903 21.6896 8.27065 21.704C8.30227 21.7183 8.33642 21.7263 8.37114 21.7274C8.5397 21.7332 8.63717 21.6535 8.66354 21.4883C8.67157 21.439 8.69049 21.3943 8.7203 21.3542C9.7179 20.0246 11.5927 20.219 12.2515 21.7498C12.3742 22.033 12.5249 22.0491 12.7038 21.7979L12.8913 21.5365C13.0415 21.3255 13.0633 21.1025 12.9567 20.8674C12.1414 19.0752 9.52526 18.3751 7.7915 19.0666C7.63555 19.1285 7.5656 19.0758 7.58166 18.9083L7.66078 18.1171C7.67683 17.9623 7.75882 17.8591 7.90674 17.8075C8.30922 17.6711 8.79541 17.6052 9.3653 17.6097C11.0543 17.6258 12.4154 18.2857 13.4486 19.5895C13.6687 19.867 13.8958 20.1737 14.1297 20.5097C14.1692 20.5665 14.2271 20.608 14.2939 20.6271C14.3606 20.6462 14.432 20.6418 14.4961 20.6146L14.5631 20.5871C14.7466 20.5079 14.765 20.4007 14.6182 20.2654C13.5191 19.2437 13.3712 18.2461 13.1596 16.9389C13.1562 16.9185 13.1576 16.8976 13.1638 16.8778C13.1699 16.8581 13.1806 16.84 13.195 16.8251C13.2094 16.8103 13.2271 16.799 13.2466 16.7921C13.2661 16.7853 13.287 16.7832 13.3075 16.7859C13.4451 16.8031 13.5478 16.8306 13.6154 16.8684C13.6613 17.0748 13.7502 17.2663 13.882 17.4429C14.0781 17.7026 14.4496 17.8144 14.6715 18.0931C14.9673 18.468 15.2288 18.7748 15.4558 19.0133C15.6244 19.1904 15.7517 19.4759 16.0165 19.6359C16.1473 19.715 16.2476 19.7167 16.3175 19.6411C16.3806 19.5711 16.4253 19.4536 16.4517 19.2885C16.6524 18.1269 16.2206 17.2841 15.1565 16.7601C15.0989 16.7318 15.0518 16.6856 15.0224 16.6283C14.993 16.571 14.9827 16.5056 14.9931 16.4419C15.1995 15.1897 15.4386 14.0098 16.2281 12.9984C16.7647 12.3116 17.5857 11.5261 18.6911 10.642C18.2118 11.3816 17.8323 12.143 17.5525 12.9262C17.5181 13.0225 17.5129 13.1211 17.537 13.222C17.5565 13.3046 17.5875 13.3092 17.6299 13.2358C17.7279 13.0707 17.752 12.8832 17.8466 12.7267C18.2296 12.0857 18.4882 11.5789 18.6223 11.2062C18.792 10.7326 18.9251 10.4041 19.0214 10.2206C20.1153 8.7999 21.2178 7.44798 22.9344 6.75138C23.0238 6.71469 23.0336 6.66309 22.9636 6.59658C22.92 6.5553 22.8455 6.53581 22.74 6.5381C21.0665 6.5725 19.6647 7.28458 18.3557 8.25638C15.8308 10.1312 14.8297 13.2289 14.398 16.1718C14.3922 16.211 14.3726 16.2468 14.3426 16.2727C14.3126 16.2986 14.2742 16.3129 14.2346 16.3129C13.7347 16.314 13.2296 16.3455 12.7193 16.4075C11.4551 16.5605 9.9501 16.4229 9.17438 15.2723C7.88438 13.3579 8.93874 10.7693 11.2573 10.4563C12.5955 10.2757 13.3867 10.8123 14.2415 11.7428C14.252 11.754 14.2652 11.7624 14.2799 11.7671C14.2945 11.7719 14.3101 11.7728 14.3252 11.7699C14.3403 11.767 14.3545 11.7603 14.3663 11.7505C14.3781 11.7406 14.3873 11.7279 14.3929 11.7136C14.6577 11.0187 15.0155 10.372 15.4661 9.77342C15.5923 9.60486 15.5533 9.49536 15.3492 9.4449C14.3424 9.19493 13.374 9.01204 12.4441 8.89622C11.5531 8.785 10.9448 8.67205 10.6192 8.55738C8.6687 7.86766 7.05878 6.11154 6.35186 4.22298C5.9167 3.0551 5.8479 1.43658 5.66214 0.0726242C5.65297 0.000384219 5.68049 -0.0179624 5.7447 0.0175843C6.61502 0.497464 7.20498 0.521544 8.42446 0.610984C10.1479 0.739984 12.1844 1.45206 13.3024 2.84182C14.2151 3.97932 14.8848 5.24696 15.3113 6.64474C15.5441 7.40957 15.7368 8.16924 15.8893 8.92374C15.8959 8.95623 15.9118 8.98611 15.935 9.00979C15.9582 9.03346 15.9877 9.04993 16.0201 9.05719C16.0524 9.06446 16.0862 9.06223 16.1173 9.05076C16.1484 9.03929 16.1755 9.01907 16.1954 8.99254C18.0169 6.58454 22.0469 4.35714 24.8143 6.6757C24.823 6.68307 24.8297 6.69257 24.8337 6.70324C24.8378 6.71391 24.839 6.72539 24.8372 6.73653C24.8355 6.74766 24.8309 6.75807 24.8238 6.76672C24.8168 6.77536 24.8076 6.78193 24.7971 6.78578C21.966 7.90034 20.418 9.98498 19.6062 12.878C19.2175 14.2632 19.0959 15.6782 19.2415 17.123C19.2473 17.1757 19.2759 17.2027 19.3275 17.2038C20.6084 17.2463 21.7608 16.8965 22.7847 16.1546C22.7984 16.1449 22.8145 16.1391 22.8312 16.138C22.8479 16.1368 22.8645 16.1402 22.8792 16.148C22.8939 16.1557 22.9061 16.1673 22.9143 16.1816C22.9226 16.1958 22.9265 16.2121 22.9258 16.2286L22.9086 16.9802ZM9.00926 3.11702C10.4919 5.0331 12.0949 6.22678 14.3877 8.16006C14.4026 8.17268 14.4192 8.1744 14.4376 8.16522L14.5236 8.1205C14.5637 8.09872 14.5694 8.0712 14.5408 8.03794C13.4067 6.70437 12.6046 5.84896 12.1345 5.4717C11.1117 4.65298 10.1038 3.81649 9.11074 2.96222C9.06946 2.92782 8.99951 2.91808 8.9009 2.93298C8.85274 2.93986 8.84758 2.95878 8.88542 2.98974C8.93128 3.02758 8.97256 3.07001 9.00926 3.11702ZM11.7578 11.4487C11.3232 11.3937 10.8812 11.5284 10.4317 11.8529C9.25866 12.5942 9.33434 13.9977 10.184 14.9351C10.2442 15.0022 10.3457 15.0332 10.4265 15.0263C10.4438 15.0243 10.4602 15.0179 10.4744 15.0079C10.4885 14.9978 10.4998 14.9844 10.5072 14.9689C10.5146 14.9533 10.5179 14.9362 10.5167 14.9192C10.5156 14.9021 10.51 14.8857 10.5005 14.8715C10.0372 14.1674 9.92716 13.4433 10.1703 12.6991L10.5469 13.5557C10.5722 13.6153 10.6175 13.6423 10.6828 13.6365C10.9133 13.6176 11.1489 13.4233 11.2917 13.3545C11.6712 13.1721 11.939 12.9354 12.0949 12.6441C12.1936 12.4595 12.2062 12.1917 12.1328 11.8409L13.2061 12.3534C13.26 12.3798 13.2909 12.3632 13.2989 12.3035C13.307 12.2474 13.3041 12.1975 13.2903 12.1539C13.2674 12.084 13.2405 12.0358 13.2095 12.0094C12.8621 11.705 12.2377 11.3352 11.7578 11.4487ZM17.0245 12.5633C17.0061 12.5633 16.9883 12.5633 16.9711 12.5633C16.9627 12.5632 16.9543 12.5649 16.9466 12.5684C16.9389 12.5718 16.932 12.5769 16.9264 12.5833C16.9209 12.5897 16.9167 12.5972 16.9144 12.6053C16.912 12.6134 16.9114 12.622 16.9127 12.6303C16.9574 12.9055 16.7424 12.9434 16.7045 13.1532C16.6805 13.2862 16.7028 13.2948 16.7716 13.179C16.8163 13.1022 16.8731 13.0386 16.9419 12.9881C16.9843 12.9571 17.0141 12.9159 17.0313 12.8643C17.0669 12.753 17.134 12.6642 17.2326 12.5977C17.2486 12.5873 17.2567 12.5719 17.2567 12.5512C17.2567 12.5352 17.2567 12.5191 17.2567 12.5031C17.2578 12.4434 17.2297 12.4228 17.1724 12.4411C17.1162 12.4606 17.0755 12.4956 17.0503 12.5461C17.0445 12.5575 17.0359 12.5633 17.0245 12.5633ZM14.3189 25.6628C14.3521 25.7969 14.4169 25.9259 14.5133 26.0498C14.55 26.0956 14.5981 26.1151 14.6577 26.1083C14.7449 26.0968 14.7994 26.0504 14.8211 25.9689C14.8372 25.907 14.8722 25.8594 14.9261 25.8262C15.16 25.6765 15.3629 25.5475 15.6433 25.4392C16.04 25.2844 16.3766 25.0619 16.6529 24.7718C16.7263 24.695 16.8037 24.6423 16.8851 24.6136C16.9425 24.5929 16.9757 24.5522 16.9849 24.4915C16.9998 24.4066 17.0445 24.3493 17.1191 24.3195C17.1741 24.2988 17.2131 24.2604 17.236 24.2042C17.3232 23.9864 17.5233 23.7117 17.8363 23.3803C18.0198 23.1843 18.0272 22.9945 17.8587 22.811C17.697 22.5037 17.4722 22.2537 17.1844 22.0611C17.173 22.0531 17.1712 22.0433 17.1793 22.0319V22.0301C17.1861 22.0175 17.1959 22.0152 17.2085 22.0233C18.6241 22.8351 19.558 23.8619 19.4548 25.5372C19.4546 25.5388 19.4547 25.5404 19.4551 25.542C19.4555 25.5435 19.4562 25.545 19.4571 25.5462C19.4581 25.5475 19.4593 25.5486 19.4607 25.5494C19.462 25.5502 19.4636 25.5508 19.4651 25.551C19.4667 25.5512 19.4683 25.5511 19.4699 25.5507C19.4714 25.5503 19.4729 25.5496 19.4742 25.5487C19.4754 25.5477 19.4765 25.5465 19.4773 25.5451C19.4781 25.5438 19.4787 25.5422 19.4789 25.5407C19.4978 25.391 19.5666 25.262 19.5821 25.1158C19.7312 23.6183 19.2456 22.5117 18.1253 21.7962C15.2821 19.9816 11.8748 22.6665 12.9326 25.9139C13.1447 26.5664 13.5208 27.0577 14.0609 27.3879C14.1526 27.4441 14.1738 27.4241 14.1245 27.3277C13.9835 27.0543 13.7513 26.7739 13.6515 26.5365C13.1906 25.4375 13.2061 23.7329 14.2277 22.9056C14.2759 22.8666 14.2914 22.877 14.2742 22.9366C14.0093 23.8413 14.0242 24.75 14.3189 25.6628ZM9.55622 23.1499C9.84977 23.2278 10.2012 23.1648 10.6106 22.9607C10.8703 22.8317 11.2367 22.5633 11.2195 22.2331C11.2103 22.0508 11.1575 21.9527 11.0612 21.939C10.0877 20.7935 8.99894 21.9407 9.55622 23.1499ZM6.18846 24.2386C6.23547 24.3109 6.29338 24.3659 6.36218 24.4037C6.41492 24.4324 6.46079 24.4244 6.49978 24.3797L6.64942 24.2145C6.68611 24.1733 6.73198 24.1498 6.78702 24.144C7.52318 24.0626 7.97726 23.6699 8.14926 22.9658C7.11554 21.8203 5.39554 22.7336 6.18846 24.2386ZM3.89742 25.9449C4.46674 26.6157 4.97586 25.6748 5.21666 25.1227C5.23959 25.0688 5.24074 25.0149 5.2201 24.961L4.87954 24.0339C4.00005 23.9158 3.54826 24.3556 3.52418 25.3532C3.51959 25.5435 3.644 25.7408 3.89742 25.9449ZM9.23286 26.4024C9.55736 26.5159 9.879 26.4448 10.1978 26.1891C10.2838 26.1203 10.4655 25.993 10.743 25.8073C11.1283 25.5527 11.1036 25.1852 10.6691 24.7047C9.40314 23.7966 8.15786 25.1571 9.23286 26.4024ZM6.62706 26.8633C6.76695 26.7934 6.91086 26.7303 7.05878 26.6741C7.11611 26.6535 7.16542 26.6202 7.2067 26.5744C7.33283 26.4322 7.48075 26.3164 7.65046 26.2269C7.67649 26.213 7.69871 26.1929 7.71518 26.1684C7.73165 26.1439 7.74186 26.1157 7.74491 26.0864C7.74797 26.057 7.74378 26.0273 7.73271 26C7.72164 25.9726 7.70403 25.9484 7.68142 25.9294C6.63566 25.0573 5.37834 25.9345 5.9597 27.2125C6.07781 27.4716 6.17355 27.4636 6.24694 27.1884C6.2756 27.0852 6.40231 26.9769 6.62706 26.8633ZM8.86134 28.7571L9.75574 28.1086C9.79763 28.078 9.82569 28.032 9.83375 27.9808C9.8418 27.9295 9.82922 27.8771 9.79874 27.8351L9.77638 27.8059C9.6577 27.6426 9.48273 27.5304 9.28989 27.494C9.09705 27.4576 8.90209 27.4998 8.74782 27.6115L8.69966 27.6459C8.54566 27.7582 8.44521 27.9307 8.42038 28.1255C8.39554 28.3203 8.44836 28.5215 8.56722 28.6848L8.58786 28.7141C8.61848 28.756 8.66445 28.784 8.71571 28.7921C8.76697 28.8001 8.81934 28.7875 8.86134 28.7571ZM5.42447 29.1819C5.46962 29.1823 5.51351 29.1277 5.54646 29.03C5.57942 28.9323 5.59875 28.7995 5.6002 28.6608C5.60165 28.5221 5.58511 28.389 5.5542 28.2906C5.5233 28.1922 5.48057 28.1367 5.43541 28.1362C5.39025 28.1357 5.34637 28.1904 5.31341 28.2881C5.28046 28.3858 5.26113 28.5186 5.25968 28.6572C5.25822 28.7959 5.27477 28.9291 5.30567 29.0275C5.33658 29.1259 5.37931 29.1814 5.42447 29.1819ZM9.05575 30.2808C8.98401 30.1382 8.84997 30.0342 8.68311 29.9918C8.51625 29.9493 8.33024 29.9719 8.16601 30.0545C8.08469 30.0954 8.01116 30.1498 7.94962 30.2146C7.88808 30.2794 7.83974 30.3534 7.80735 30.4322C7.77497 30.5111 7.75917 30.5933 7.76087 30.6742C7.76257 30.7551 7.78172 30.8331 7.81725 30.9038C7.88899 31.0464 8.02303 31.1504 8.18989 31.1928C8.35675 31.2353 8.54275 31.2127 8.70698 31.1301C8.78831 31.0892 8.86184 31.0348 8.92338 30.97C8.98491 30.9052 9.03326 30.8312 9.06564 30.7524C9.09803 30.6735 9.11382 30.5913 9.11212 30.5104C9.11043 30.4295 9.09127 30.3515 9.05575 30.2808ZM9.9071 32.5531C10.4437 32.8317 11.0543 32.7303 10.8548 31.9683C10.4592 31.2975 9.57342 31.7825 9.9071 32.5531Z" fill="#031D35"/>
<path d="M16.634 6.79438C16.2453 5.7899 15.8084 4.49818 16.5549 3.54186C16.9058 3.09294 17.5714 2.77646 18.084 2.43246C18.0934 2.42615 18.104 2.42193 18.1152 2.42008C18.1263 2.41822 18.1377 2.41878 18.1487 2.42172C18.1596 2.42465 18.1697 2.42989 18.1785 2.43708C18.1872 2.44428 18.1943 2.45326 18.1992 2.46342C18.7204 3.49542 18.9732 4.8697 18.1373 5.78646C17.9458 5.99515 17.5038 6.38732 16.8112 6.96294C16.7722 6.9962 16.7389 6.99103 16.7114 6.94746C16.6793 6.89471 16.6535 6.84369 16.634 6.79438ZM16.9731 5.87002C16.9861 5.87416 17.0189 5.81461 17.0642 5.70447C17.1095 5.59433 17.1636 5.44262 17.2147 5.28271C17.2399 5.20351 17.2637 5.12469 17.2846 5.05074C17.3054 4.97679 17.323 4.90915 17.3364 4.8517C17.3497 4.79425 17.3584 4.74811 17.3621 4.7159C17.3658 4.6837 17.3644 4.66607 17.3579 4.66402C17.3449 4.65989 17.3121 4.71944 17.2668 4.82958C17.2215 4.93972 17.1674 5.09143 17.1163 5.25134C17.0911 5.33053 17.0673 5.40935 17.0464 5.4833C17.0256 5.55726 17.008 5.62489 16.9947 5.68234C16.9814 5.73979 16.9726 5.78594 16.9689 5.81814C16.9652 5.85034 16.9666 5.86797 16.9731 5.87002Z" fill="#031D35"/>
<path d="M19.4926 4.1645L20.4558 3.18238C20.4736 3.16436 20.4962 3.15175 20.5208 3.146C20.5455 3.14024 20.5712 3.14158 20.5952 3.14986C20.6191 3.15813 20.6402 3.173 20.656 3.19276C20.6718 3.21251 20.6817 3.23635 20.6846 3.2615L20.8497 4.81466C20.8523 4.83893 20.8482 4.86344 20.8379 4.88557C20.8276 4.90769 20.8115 4.92659 20.7912 4.94022L19.4634 5.83634C19.442 5.85084 19.4168 5.85882 19.3909 5.85934C19.365 5.85985 19.3396 5.85287 19.3176 5.83924C19.2956 5.8256 19.278 5.80589 19.2669 5.78249C19.2559 5.75909 19.2518 5.73299 19.2553 5.70734L19.4565 4.24018C19.4602 4.21174 19.4728 4.18522 19.4926 4.1645Z" fill="#031D35"/>
<path d="M17.1163 5.25134C17.0101 5.58436 16.9459 5.86136 16.9731 5.87002C17.0002 5.87869 17.1084 5.61574 17.2147 5.28271C17.3209 4.94969 17.3851 4.67269 17.3579 4.66403C17.3308 4.65537 17.2226 4.91831 17.1163 5.25134Z" fill="#FDFEFE"/>
<path d="M3.45707 6.2371C5.39379 6.15626 6.58403 7.09022 7.74159 8.50406C8.20599 9.07166 8.66351 9.77858 9.27411 10.2017C9.29253 10.2147 9.30737 10.2323 9.31723 10.2526C9.32708 10.2728 9.33162 10.2953 9.33042 10.3177C9.32921 10.3401 9.3223 10.3617 9.31034 10.3806C9.29837 10.3994 9.28176 10.4148 9.26207 10.4253C7.27203 11.4934 4.08831 12.0318 2.34423 10.1914C1.37071 9.1611 0.916627 8.22714 0.128867 7.25706C0.118341 7.24448 0.111085 7.22951 0.107721 7.21343C0.104357 7.19736 0.104986 7.18067 0.10955 7.16477C0.114115 7.14888 0.12248 7.13427 0.133932 7.12218C0.145384 7.1101 0.159581 7.1009 0.175307 7.09538C1.21763 6.73762 2.44399 6.2801 3.45707 6.2371ZM3.58263 8.3355C3.58721 8.42609 3.63079 8.48973 3.71335 8.52642C5.07387 9.13702 6.46363 9.91102 7.90155 10.2447C7.97952 10.263 8.07928 10.2453 8.20083 10.1914C8.24899 10.1707 8.24842 10.1512 8.19911 10.1329C7.57131 9.9093 7.01059 9.60314 6.41719 9.30902C5.55031 8.87902 4.59055 8.60038 3.67207 8.20134C3.66152 8.19657 3.64992 8.19461 3.6384 8.19565C3.62687 8.19669 3.6158 8.20069 3.60628 8.20727C3.59676 8.21385 3.5891 8.22278 3.58405 8.23319C3.579 8.24361 3.57673 8.25515 3.57747 8.2667L3.58263 8.3355Z" fill="#031D35"/>
<path d="M20.3836 15.0676C20.8583 11.0944 23.8993 7.07647 28.287 7.19859C29.4446 7.22955 30.6469 7.44627 31.7735 7.08163C31.8916 7.04264 31.9466 7.08507 31.9386 7.20891C31.8503 8.56886 31.5459 9.9116 31.0253 11.2371C30.4215 12.7714 28.5244 14.1612 27.0503 14.6892C26.547 14.8692 25.8131 15.0108 24.8487 15.114C23.2681 15.2843 21.8663 15.3755 20.2495 15.9345C20.2384 15.9384 20.2265 15.9391 20.2151 15.9366C20.2036 15.934 20.1932 15.9282 20.1849 15.9199C20.1766 15.9116 20.1708 15.9012 20.1683 15.8897C20.1657 15.8783 20.1664 15.8664 20.1703 15.8554C20.2649 15.5802 20.3492 15.3566 20.3836 15.0676ZM23.2956 11.8374C23.2807 11.8994 23.2434 11.9418 23.1838 11.9647C23.0898 11.9991 23.0204 12.0616 22.9757 12.1522C22.9733 12.1571 22.972 12.1623 22.9718 12.1677C22.9716 12.173 22.9726 12.1783 22.9745 12.1832C22.9765 12.1881 22.9794 12.1925 22.9832 12.196C22.9869 12.1996 22.9914 12.2022 22.9963 12.2038L23.0617 12.2227C23.0756 12.2275 23.0909 12.227 23.1045 12.2213C23.1182 12.2156 23.1292 12.2051 23.1356 12.1918C23.2853 11.8804 23.5347 11.8684 23.7411 11.7325C24.1665 11.4516 24.5936 11.1724 25.0225 10.8949C25.9685 10.2825 27.0125 9.83363 28.0307 9.34515C28.6861 9.02867 29.8144 8.68811 30.5935 8.12051C30.7793 7.9852 30.7569 7.91927 30.5265 7.92271C29.6372 7.93475 28.6121 7.81263 27.8243 7.89175C25.4267 8.13427 23.4005 9.53779 22.3616 11.717C22.3582 11.7251 22.3593 11.7319 22.3651 11.7377C22.3788 11.7526 22.3949 11.7652 22.4132 11.7755C22.4419 11.7904 22.4683 11.7875 22.4923 11.7669C22.7251 11.5651 22.99 11.4344 23.287 11.3748C23.2999 11.3722 23.3132 11.3728 23.3258 11.3767C23.3384 11.3805 23.3498 11.3875 23.3591 11.3969C23.3683 11.4063 23.375 11.4178 23.3786 11.4305C23.3823 11.4431 23.3827 11.4565 23.3799 11.4694L23.2956 11.8374ZM23.5071 12.8987C23.3902 13.0409 23.2371 13.1618 23.0479 13.2616C23.0391 13.2662 23.0318 13.2732 23.0267 13.2816C23.0215 13.2901 23.0187 13.2998 23.0187 13.3098C23.0187 13.3258 23.0181 13.3424 23.0169 13.3596C23.0169 13.3649 23.0183 13.3702 23.0212 13.3747C23.024 13.3792 23.0281 13.3827 23.0328 13.3848C23.0375 13.3869 23.0427 13.3874 23.0475 13.3863C23.0524 13.3851 23.0567 13.3824 23.0599 13.3785C23.2285 13.2077 23.4028 13.1028 23.5828 13.0638C23.8087 12.9308 24.3545 12.6229 25.2203 12.1402C26.1961 11.5955 27.3462 10.8857 28.6706 10.0108C28.6858 10.0006 28.697 9.98532 28.702 9.96768C28.7071 9.95004 28.7057 9.93118 28.6981 9.91447L28.674 9.86287C28.6454 9.7998 28.6001 9.78432 28.5381 9.81643C26.934 10.6707 25.4083 11.5553 23.9612 12.4704C23.7743 12.5885 23.623 12.7313 23.5071 12.8987Z" fill="#031D35"/>
<path d="M19.0213 10.2206C18.925 10.4041 18.792 10.7326 18.6223 11.2062C18.4881 11.5788 18.2296 12.0857 17.8466 12.7267C17.752 12.8832 17.7279 13.0707 17.6298 13.2358C17.5874 13.3092 17.5565 13.3046 17.537 13.222C17.5129 13.1211 17.518 13.0225 17.5524 12.9262C17.8322 12.143 18.2118 11.3816 18.6911 10.642C18.7392 10.5113 18.8493 10.3708 19.0213 10.2206Z" fill="#6F8091"/>
<path d="M11.7578 11.4487C11.8575 11.6333 11.9825 11.764 12.1327 11.8409C12.2061 12.1917 12.1935 12.4595 12.0949 12.6441C11.939 12.9354 11.6712 13.1721 11.2917 13.3545C11.1489 13.4233 10.9133 13.6176 10.6828 13.6365C10.6174 13.6423 10.5721 13.6153 10.5469 13.5557L10.1702 12.6992L10.4317 11.8529C10.8812 11.5284 11.3232 11.3937 11.7578 11.4487Z" fill="#FDFEFE"/>
<path d="M7.57134 12.9537C6.49634 14.4277 5.2803 16.2372 3.11998 15.1278C2.72782 14.926 2.32592 14.7213 1.91426 14.5137C1.85578 14.4839 1.84661 14.4432 1.88674 14.3916C2.0897 14.1256 2.29438 13.8613 2.50078 13.5987C3.83378 11.9011 5.71718 12.3913 7.50598 12.7834C7.52377 12.7871 7.54034 12.7952 7.55418 12.8069C7.56802 12.8187 7.57868 12.8337 7.58519 12.8507C7.5917 12.8677 7.59384 12.886 7.59142 12.904C7.589 12.922 7.5821 12.9391 7.57134 12.9537ZM6.40673 13.2724C6.40484 13.2652 6.37759 13.2649 6.32656 13.2714C6.27554 13.2779 6.20172 13.2912 6.10933 13.3105C6.01694 13.3298 5.90778 13.3548 5.7881 13.3839C5.66842 13.413 5.54056 13.4457 5.41181 13.4802C5.28309 13.5147 5.156 13.5503 5.03782 13.5849C4.91963 13.6195 4.81265 13.6525 4.72299 13.682C4.63333 13.7115 4.56275 13.7369 4.51527 13.7567C4.46779 13.7766 4.44435 13.7905 4.44628 13.7977C4.44818 13.8049 4.47542 13.8053 4.52645 13.7987C4.57748 13.7922 4.65129 13.7789 4.74368 13.7596C4.83607 13.7403 4.94522 13.7154 5.0649 13.6862C5.18458 13.6571 5.31245 13.6244 5.44119 13.5899C5.56992 13.5554 5.697 13.5198 5.81519 13.4852C5.93338 13.4506 6.04036 13.4176 6.13002 13.3881C6.21968 13.3586 6.29026 13.3332 6.33774 13.3134C6.38522 13.2935 6.40866 13.2796 6.40673 13.2724Z" fill="#031D35"/>
<path d="M17.0503 12.5461C17.0755 12.4956 17.1162 12.4606 17.1724 12.4411C17.2297 12.4228 17.2578 12.4434 17.2567 12.5031C17.2567 12.5191 17.2567 12.5352 17.2567 12.5512C17.2567 12.5719 17.2486 12.5873 17.2326 12.5977C17.134 12.6642 17.0669 12.753 17.0314 12.8643C17.0142 12.9159 16.9843 12.9571 16.9419 12.9881C16.8731 13.0386 16.8164 13.1022 16.7716 13.179C16.7028 13.2948 16.6805 13.2862 16.7046 13.1532C16.7424 12.9434 16.9574 12.9055 16.9127 12.6303C16.9114 12.622 16.912 12.6134 16.9144 12.6053C16.9168 12.5972 16.9209 12.5897 16.9264 12.5833C16.932 12.5769 16.9389 12.5718 16.9466 12.5684C16.9543 12.5649 16.9627 12.5632 16.9712 12.5633C16.9884 12.5633 17.0061 12.5633 17.0245 12.5633C17.0359 12.5633 17.0445 12.5575 17.0503 12.5461Z" fill="#6F8091"/>
<path d="M23.5828 13.0638C23.4028 13.1028 23.2285 13.2077 23.0599 13.3785C23.0567 13.3824 23.0523 13.3851 23.0475 13.3862C23.0426 13.3873 23.0375 13.3868 23.0328 13.3848C23.028 13.3827 23.024 13.3791 23.0212 13.3746C23.0183 13.3701 23.0168 13.3649 23.0169 13.3596C23.0181 13.3424 23.0186 13.3258 23.0186 13.3097C23.0187 13.2998 23.0215 13.2901 23.0266 13.2816C23.0318 13.2731 23.0391 13.2662 23.0479 13.2616C23.2371 13.1618 23.3902 13.0408 23.5071 12.8986L23.6292 12.8711C23.6934 12.8562 23.7135 12.8797 23.6894 12.9416C23.6734 12.9795 23.6378 13.0202 23.5828 13.0638Z" fill="#475A73"/>
<path d="M5.44118 13.5899C5.98254 13.4448 6.41483 13.3027 6.40671 13.2724C6.3986 13.2421 5.95316 13.3352 5.4118 13.4802C4.87044 13.6253 4.43816 13.7674 4.44627 13.7977C4.45438 13.828 4.89982 13.7349 5.44118 13.5899Z" fill="#FDFEFE"/>
<path d="M4.47703 21.0773C3.16639 21.4694 2.1705 21.9613 1.39478 23.1258C1.2354 23.3654 1.13449 23.3431 1.09207 23.0587C0.691305 20.3635 1.74739 17.4498 4.55443 16.6001C5.49125 16.3169 6.43611 16.0566 7.38899 15.8192C7.40232 15.8159 7.41632 15.8161 7.42953 15.8199C7.44274 15.8238 7.45469 15.831 7.46415 15.841C7.47361 15.851 7.48024 15.8633 7.48336 15.8767C7.48647 15.8901 7.48595 15.9041 7.48186 15.9173C7.29037 16.5227 7.13328 17.1402 7.01059 17.7697C6.84547 18.6148 6.68895 19.1755 6.54103 19.4519C6.11332 20.2511 5.42532 20.7929 4.47703 21.0773ZM3.86127 19.4192L5.19943 18.2771C5.20766 18.2701 5.214 18.2611 5.2179 18.251C5.2218 18.2409 5.22313 18.23 5.22177 18.2192C5.2204 18.2085 5.21639 18.1982 5.21009 18.1894C5.20379 18.1806 5.19539 18.1735 5.18567 18.1687C5.12604 18.1401 5.10769 18.1429 5.13062 18.1773L6.42578 16.6689C6.56912 16.5015 6.53529 16.451 6.32431 16.5175C5.32441 16.8294 4.51429 17.4314 3.89394 18.3235C3.59466 18.7553 3.39515 19.3194 3.17499 19.8337C3.15091 19.8887 3.16237 19.9363 3.20938 19.9765L3.24207 20.004C3.28908 20.043 3.32807 20.0361 3.35903 19.9833C3.49777 19.7517 3.66519 19.5637 3.86127 19.4192Z" fill="#031D35"/>
<path d="M26.8336 16.6551C27.314 16.8432 27.8392 17.1683 28.4091 17.6304C30.5969 19.4037 30.9891 22.3311 29.8401 24.8097C29.8325 24.8267 29.8201 24.8412 29.8045 24.8514C29.7889 24.8617 29.7707 24.8673 29.7519 24.8676C29.7331 24.868 29.7144 24.8631 29.6981 24.8534C29.6818 24.8438 29.6684 24.8298 29.6595 24.8131C28.9991 23.5506 28.0548 23.1086 26.8181 22.4017C25.8859 21.8685 25.2581 21.1873 24.8745 20.1794C24.8034 19.9902 24.6905 19.4175 24.5357 18.4611C24.4084 17.6722 24.1945 16.9034 23.8941 16.1546C23.8902 16.1442 23.889 16.1329 23.8909 16.1219C23.8927 16.1109 23.8974 16.1006 23.9044 16.0921C23.9115 16.0836 23.9206 16.0773 23.9309 16.0738C23.9412 16.0703 23.9523 16.0697 23.9629 16.0721C24.9571 16.2733 25.7603 16.232 26.8336 16.6551ZM27.9774 21.0807L28.0238 21.0704C28.0995 21.0555 28.1333 21.0096 28.1253 20.9328C28.0049 19.7425 27.642 18.2788 26.7424 17.4739C26.3726 17.1436 25.6279 16.6534 25.1015 16.6225C25.0791 16.621 25.0567 16.6265 25.0376 16.6384C25.0184 16.6502 25.0035 16.6677 24.9949 16.6883C24.9863 16.7089 24.9845 16.7317 24.9897 16.7532C24.995 16.7747 25.007 16.794 25.0241 16.8082C25.2598 17.0112 25.4696 17.209 25.6519 17.4773C26.1519 18.2215 26.6954 18.9319 27.2825 19.6084C27.5382 19.9031 27.74 20.3744 27.8879 21.0222C27.8925 21.0416 27.9043 21.0585 27.9209 21.0694C27.9376 21.0803 27.9578 21.0843 27.9774 21.0807Z" fill="#031D35"/>
<path d="M13.6154 16.8684C14.1899 16.928 14.6744 17.1104 15.0688 17.4154C15.6571 17.8694 16.118 18.4938 16.4517 19.2884C16.4253 19.4536 16.3806 19.5711 16.3175 19.641C16.2476 19.7167 16.1473 19.715 16.0165 19.6359C15.7517 19.4759 15.6244 19.1904 15.4558 19.0132C15.2288 18.7747 14.9673 18.468 14.6715 18.093C14.4496 17.8144 14.0781 17.7026 13.882 17.4429C13.7502 17.2663 13.6613 17.0748 13.6154 16.8684Z" fill="#7EAC08"/>
<path d="M22.9085 16.9802C22.9739 17.5662 22.9475 18.1229 22.8294 18.6503C22.1735 19.4713 21.4293 20.0636 20.5969 20.4271C20.0166 20.6805 19.382 20.7292 18.6928 20.5733C18.6653 20.5664 18.6464 20.5555 18.6361 20.5406C18.6292 20.5291 18.6257 20.5142 18.6257 20.4959C18.6269 20.4764 18.6366 20.4666 18.655 20.4666C18.9783 20.4712 19.2621 20.3749 19.5064 20.1777C19.55 20.1421 19.5993 20.1198 19.6543 20.1106C19.8401 20.0774 20.0006 19.9959 20.1359 19.8664C20.1657 19.8377 20.1812 19.8033 20.1823 19.7632C20.1823 19.7494 20.1823 19.7351 20.1823 19.7202C20.1823 19.6972 20.1714 19.6892 20.1497 19.6961C20.0143 19.7397 19.9415 19.7305 19.9312 19.6686C20.2701 19.4708 20.86 19.3693 21.0509 18.8911C21.0716 18.8384 21.1043 18.7942 21.149 18.7587C21.681 18.3379 22.0956 17.8328 22.3925 17.2434C22.3788 17.0656 22.5508 16.9779 22.9085 16.9802Z" fill="#387309"/>
<path d="M22.3926 17.2434C22.0956 17.8328 21.681 18.3379 21.149 18.7587C21.1043 18.7942 21.0716 18.8384 21.051 18.8911C20.86 19.3693 20.2701 19.4708 19.9312 19.6686C19.6079 19.8612 19.3252 19.9627 19.0833 19.973C18.878 19.981 18.8688 19.9421 19.0558 19.8561L20.418 19.2265C20.4329 19.2197 20.4404 19.2088 20.4404 19.1939V19.1371C20.4404 19.0844 20.4151 19.0666 20.3647 19.0838C19.2278 19.4708 17.6419 19.6858 16.6908 20.7763C16.6403 20.8347 16.6082 20.8256 16.5944 20.7487C16.5795 20.6639 16.5927 20.5601 16.634 20.4374C17.7761 19.1784 19.3241 18.9479 20.8858 18.5059C21.4832 18.3362 21.9196 17.9446 22.1948 17.3311C22.2636 17.2715 22.3295 17.2422 22.3926 17.2434Z" fill="#7EAC08"/>
<path d="M5.13063 18.1773C5.10769 18.1429 5.12604 18.1401 5.18567 18.1687C5.19539 18.1735 5.20379 18.1806 5.21009 18.1894C5.21639 18.1982 5.2204 18.2085 5.22177 18.2192C5.22313 18.23 5.2218 18.2409 5.2179 18.251C5.214 18.2611 5.20766 18.2701 5.19943 18.2771L3.86127 19.4192L5.13063 18.1773Z" fill="#6F8091"/>
<path d="M23.2302 22.1041C22.9538 22.1373 22.697 22.2291 22.4596 22.3793C22.4301 22.3979 22.3959 22.4079 22.361 22.4079C22.326 22.408 22.2918 22.3983 22.2621 22.3798C22.2325 22.3613 22.2087 22.3348 22.1934 22.3034C22.1782 22.2719 22.1721 22.2369 22.1758 22.2021L22.2395 21.6517C22.8483 20.8726 23.0307 20.262 23.3695 19.457C23.4074 19.3653 23.4377 19.3681 23.4607 19.4656C23.6785 20.3978 23.6017 21.2773 23.2302 22.1041Z" fill="#387309"/>
<path d="M17.8586 22.811C17.6454 23.745 17.0554 23.8757 16.4534 24.3728C16.2401 24.5499 15.9288 24.6463 15.7929 24.9903C15.7924 24.9918 15.7915 24.9931 15.7904 24.9942C15.7893 24.9953 15.7879 24.9961 15.7865 24.9966C15.785 24.9971 15.7834 24.9973 15.7818 24.9971C15.7802 24.9969 15.7788 24.9963 15.7774 24.9954L15.731 24.9714C15.7135 24.9618 15.6939 24.9567 15.6738 24.9564C15.6537 24.9561 15.6338 24.9606 15.6158 24.9696L14.8056 25.3549C14.7598 25.3767 14.7242 25.41 14.699 25.4547C14.6142 25.6037 14.4874 25.6731 14.3189 25.6628C14.0242 24.75 14.0093 23.8413 14.2742 22.9366C14.2914 22.877 14.2759 22.8666 14.2277 22.9056C13.206 23.7329 13.1906 25.4375 13.6515 26.5365C13.7513 26.7739 13.9835 27.0543 14.1245 27.3278C14.1738 27.4241 14.1526 27.4441 14.0609 27.388C13.5208 27.0577 13.1447 26.5664 12.9326 25.9139C11.8748 22.6666 15.2821 19.9816 18.1252 21.7962C19.2455 22.5117 19.7312 23.6183 19.5821 25.1158C19.5666 25.262 19.4978 25.391 19.4789 25.5407C19.4787 25.5423 19.4781 25.5438 19.4773 25.5451C19.4765 25.5465 19.4754 25.5477 19.4741 25.5487C19.4729 25.5496 19.4714 25.5503 19.4699 25.5507C19.4683 25.5511 19.4667 25.5512 19.4651 25.551C19.4635 25.5508 19.462 25.5502 19.4606 25.5494C19.4593 25.5486 19.4581 25.5475 19.4571 25.5462C19.4562 25.545 19.4555 25.5435 19.4551 25.542C19.4547 25.5404 19.4546 25.5388 19.4548 25.5372C19.558 23.8619 18.624 22.8351 17.2085 22.0233C17.1959 22.0152 17.1861 22.0175 17.1792 22.0302V22.0319C17.1712 22.0433 17.1729 22.0531 17.1844 22.0611C17.4722 22.2538 17.697 22.5037 17.8586 22.811Z" fill="#FDFEFE"/>
<path d="M11.0612 21.939C10.8433 22.0124 10.5538 22.1437 10.1926 22.3329C9.83255 22.5221 9.62041 22.7944 9.5562 23.1499C8.99892 21.9407 10.0877 20.7935 11.0612 21.939Z" fill="#FDFEFE"/>
<path d="M11.0612 21.939C11.1575 21.9527 11.2103 22.0508 11.2195 22.2331C11.2367 22.5633 10.8703 22.8316 10.6106 22.9606C10.2012 23.1648 9.84976 23.2278 9.55621 23.1498C9.62043 22.7944 9.83256 22.522 10.1926 22.3328C10.5538 22.1436 10.8433 22.0124 11.0612 21.939Z" fill="#6F8091"/>
<path d="M20.9219 22.3776L21.1077 22.4378C20.9861 22.5364 20.8761 22.5851 20.7774 22.584C20.7385 22.5828 20.7327 22.5685 20.7602 22.541L20.9219 22.3776Z" fill="#475A73"/>
<path d="M8.14924 22.9658C7.5008 23.0054 7.27204 23.0277 6.84892 23.5403C6.81682 23.5793 6.77554 23.6011 6.72508 23.6057L6.5548 23.6177C6.52271 23.6196 6.49239 23.633 6.46935 23.6554C6.4463 23.6778 6.43207 23.7078 6.42924 23.7398C6.39484 24.0827 6.31458 24.2489 6.18844 24.2386C5.39552 22.7336 7.11552 21.8203 8.14924 22.9658Z" fill="#FDFEFE"/>
<path d="M17.8586 22.811C18.0272 22.9945 18.0197 23.1842 17.8362 23.3803C17.5232 23.7117 17.3231 23.9863 17.236 24.2042C17.213 24.2604 17.174 24.2988 17.119 24.3194C17.0445 24.3493 16.9998 24.4066 16.9849 24.4914C16.9757 24.5522 16.9424 24.5929 16.8851 24.6136C16.8037 24.6422 16.7263 24.695 16.6529 24.7718C16.3765 25.0619 16.04 25.2844 15.6432 25.4392C15.3629 25.5475 15.1599 25.6765 14.926 25.8262C14.8721 25.8594 14.8371 25.907 14.8211 25.9689C14.7993 26.0503 14.7448 26.0968 14.6577 26.1082C14.5981 26.1151 14.5499 26.0956 14.5132 26.0498C14.4169 25.9259 14.3521 25.7969 14.3188 25.6628C14.4874 25.6731 14.6141 25.6037 14.699 25.4546C14.7242 25.4099 14.7597 25.3767 14.8056 25.3549L15.6157 24.9696C15.6338 24.9606 15.6537 24.9561 15.6738 24.9564C15.6938 24.9567 15.7134 24.9618 15.731 24.9713L15.7774 24.9954C15.7787 24.9963 15.7802 24.9968 15.7818 24.9971C15.7833 24.9973 15.7849 24.9971 15.7864 24.9966C15.7879 24.9961 15.7893 24.9953 15.7904 24.9942C15.7915 24.9931 15.7924 24.9917 15.7929 24.9902C15.9288 24.6462 16.2401 24.5499 16.4534 24.3728C17.0554 23.8757 17.6453 23.745 17.8586 22.811Z" fill="#6F8091"/>
<path d="M8.14921 22.9658C7.97721 23.6699 7.52313 24.0626 6.78697 24.144C6.73193 24.1498 6.68607 24.1733 6.64937 24.2145L6.49974 24.3797C6.46075 24.4244 6.41488 24.4324 6.36213 24.4037C6.29333 24.3659 6.23543 24.3109 6.18842 24.2386C6.31455 24.2489 6.39481 24.0827 6.42921 23.7398C6.43204 23.7078 6.44627 23.6779 6.46932 23.6554C6.49236 23.633 6.52269 23.6196 6.55477 23.6177L6.72505 23.6057C6.77551 23.6011 6.81679 23.5793 6.84889 23.5403C7.27201 23.0277 7.50077 23.0054 8.14921 22.9658Z" fill="#6F8091"/>
<path d="M23.1236 26.7894C22.8667 26.6793 22.6425 26.7177 22.451 26.9046C22.3088 27.0422 22.2538 27.0141 22.2859 26.8203C22.482 25.6209 23.1855 24.9323 24.3964 24.7546C24.5454 24.7328 24.5942 24.6514 24.5426 24.5104C24.4416 24.2363 24.4359 23.9611 24.5254 23.6848C24.5575 23.5873 24.6056 23.5781 24.6698 23.6572L25.2478 24.3573C25.2837 24.4007 25.3303 24.434 25.3829 24.454C25.4356 24.474 25.4926 24.48 25.5483 24.4713C25.6039 24.4626 25.6564 24.4396 25.7005 24.4046C25.7446 24.3695 25.7789 24.3236 25.7999 24.2713L26.1112 23.4973C26.1708 23.3471 26.2339 23.3459 26.3004 23.4938C26.4609 23.855 26.4942 24.2312 26.4002 24.6222C26.3957 24.6396 26.3956 24.6578 26.3997 24.6753C26.4038 24.6928 26.4121 24.7092 26.4238 24.7229C26.4356 24.7367 26.4505 24.7475 26.4673 24.7545C26.4841 24.7615 26.5024 24.7645 26.5206 24.7632C27.728 24.6669 28.6981 25.8004 28.9079 26.9029C28.9093 26.9112 28.9084 26.9198 28.9053 26.9277C28.9022 26.9356 28.897 26.9424 28.8903 26.9476C28.8836 26.9527 28.8756 26.9559 28.8672 26.9568C28.8587 26.9577 28.8502 26.9563 28.8426 26.9528L28.33 26.6965C28.3069 26.6848 28.2814 26.6789 28.2555 26.6791C28.2296 26.6794 28.2042 26.6858 28.1812 26.6979C28.1582 26.71 28.1383 26.7274 28.1232 26.7487C28.1081 26.7699 28.0982 26.7945 28.0944 26.8203C27.888 28.2238 27.3083 30.3412 25.8756 30.9414C25.3768 31.1513 24.5082 30.2242 24.2278 29.8492C23.9629 29.4966 22.9705 27.5582 23.1786 26.9063C23.1958 26.8513 23.1774 26.8123 23.1236 26.7894ZM24.4514 29.0443C24.4927 29.1211 24.546 29.171 24.6114 29.1939C24.6698 29.2146 24.6905 29.1951 24.6733 29.1354C24.6423 29.0334 24.5867 28.9594 24.5064 28.9136C24.491 28.6934 24.3482 28.5506 24.2914 28.4096C24.1642 28.0954 24.0885 27.8105 24.0644 27.5548C24.0334 27.2222 24.0833 27.2096 24.214 27.5169C24.253 27.6087 24.3488 27.6947 24.5013 27.7749C24.5185 27.9664 24.5913 28.131 24.7197 28.2686C24.7321 28.2817 24.7473 28.2919 24.7642 28.2983C24.7811 28.3048 24.7992 28.3074 24.8172 28.3059C24.8352 28.3044 24.8526 28.2989 24.8682 28.2898C24.8838 28.2806 24.8971 28.2681 24.9072 28.2531C24.9496 28.1889 24.9806 28.1201 25.0001 28.0467C25.0115 27.9997 25.0391 27.9658 25.0826 27.9452C25.7552 27.6236 25.8205 27.0044 26.352 26.6862C26.5148 26.5898 26.5142 26.5153 26.3503 26.4626C26.4363 26.3479 26.4976 26.212 26.5343 26.0549C26.538 26.039 26.5457 26.0243 26.5568 26.0123C26.5678 26.0002 26.5819 25.9912 26.5975 25.986C26.6132 25.9809 26.6299 25.9797 26.6463 25.9828C26.6626 25.9858 26.6779 25.9929 26.6908 26.0033L27.1793 26.4178C27.1992 26.4346 27.2246 26.443 27.2503 26.4414C27.276 26.4398 27.2999 26.4283 27.3169 26.4092L27.3616 26.3611C27.3995 26.3187 27.4064 26.2711 27.3823 26.2183C27.1128 25.6266 26.6662 25.4271 26.0424 25.6198C26.0111 25.6294 25.9822 25.6459 25.9575 25.6682C25.9329 25.6905 25.9132 25.7179 25.8996 25.7488C25.7666 26.0515 25.6376 26.3559 25.5126 26.6621C25.4771 26.7504 25.4037 26.7831 25.2925 26.7601C25.2386 26.7498 25.2145 26.7166 25.2202 26.6604C25.289 26.0807 24.816 25.1244 24.085 25.6748C22.9498 26.5279 23.5054 27.9246 24.1435 28.8568C24.2158 28.9634 24.3184 29.0259 24.4514 29.0443Z" fill="#031D35"/>
<path d="M4.87953 24.0339L4.90877 24.7512C4.91063 24.7917 4.89823 24.8316 4.87372 24.864C4.84922 24.8964 4.81415 24.9191 4.77461 24.9283C4.48106 25.0006 4.2116 25.1267 3.96621 25.3067C3.91576 25.3446 3.89053 25.3956 3.89053 25.4598L3.89741 25.9448C3.644 25.7407 3.51958 25.5435 3.52417 25.3532C3.54825 24.3556 4.00004 23.9158 4.87953 24.0339Z" fill="#FDFEFE"/>
<path d="M4.8795 24.0339L5.22006 24.961C5.2407 25.0149 5.23955 25.0688 5.21662 25.1227C4.97582 25.6748 4.4667 26.6157 3.89738 25.9449L3.8905 25.4598C3.8905 25.3956 3.91573 25.3446 3.96618 25.3067C4.21157 25.1267 4.48104 25.0006 4.77458 24.9283C4.81412 24.9191 4.84919 24.8964 4.87369 24.864C4.8982 24.8317 4.9106 24.7917 4.90874 24.7512L4.8795 24.0339Z" fill="#6F8091"/>
<path d="M10.669 24.7047C10.6599 24.7277 10.6518 24.7471 10.645 24.7632C10.6289 24.8045 10.6014 24.8148 10.5624 24.7942C10.5051 24.7643 10.4586 24.7569 10.4231 24.7718C10.1914 24.8658 10.0332 25.0287 9.94835 25.2603C9.93115 25.3096 9.89905 25.3457 9.85204 25.3686C9.48854 25.551 9.28214 25.8955 9.23283 26.4024C8.15783 25.1571 9.40311 23.7966 10.669 24.7047Z" fill="#FDFEFE"/>
<path d="M10.6691 24.7047C11.1036 25.1852 11.1283 25.5527 10.743 25.8073C10.4655 25.993 10.2838 26.1203 10.1978 26.1891C9.879 26.4448 9.55736 26.5159 9.23285 26.4024C9.28216 25.8956 9.48856 25.551 9.85205 25.3687C9.89906 25.3457 9.93117 25.3096 9.94837 25.2603C10.0332 25.0287 10.1915 24.8658 10.4231 24.7718C10.4586 24.7569 10.5051 24.7644 10.5624 24.7942C10.6014 24.8148 10.6289 24.8045 10.645 24.7632C10.6518 24.7472 10.6599 24.7277 10.6691 24.7047Z" fill="#6F8091"/>
<path d="M6.62701 26.8633C6.40227 26.9768 6.27556 27.0852 6.24689 27.1884C6.1735 27.4636 6.07776 27.4716 5.95965 27.2125C5.37829 25.9345 6.63561 25.0573 7.68137 25.9294C7.70398 25.9484 7.72159 25.9726 7.73266 26C7.74373 26.0273 7.74792 26.057 7.74487 26.0864C7.74181 26.1157 7.7316 26.1439 7.71513 26.1684C7.69867 26.1929 7.67645 26.213 7.65041 26.2269C7.48071 26.3164 7.33278 26.4322 7.20665 26.5744C7.16537 26.6202 7.11606 26.6535 7.05873 26.6741C6.91081 26.7303 6.76691 26.7934 6.62701 26.8633Z" fill="#FDFEFE"/>
<path d="M26.3503 26.4626C26.5143 26.5153 26.5148 26.5899 26.352 26.6862C25.8205 27.0044 25.7552 27.6236 25.0826 27.9452C25.0391 27.9659 25.0116 27.9997 25.0001 28.0467C24.9806 28.1201 24.9496 28.1889 24.9072 28.2531C24.8971 28.2681 24.8838 28.2806 24.8682 28.2898C24.8526 28.2989 24.8352 28.3044 24.8172 28.3059C24.7992 28.3074 24.7811 28.3048 24.7642 28.2984C24.7473 28.2919 24.7321 28.2817 24.7197 28.2686C24.5913 28.131 24.5185 27.9664 24.5013 27.7749C25.0637 27.1987 25.7552 26.9562 26.3503 26.4626Z" fill="#FDFEFE"/>
<path d="M8.86133 28.7571C8.81934 28.7875 8.76697 28.8001 8.71571 28.7921C8.66445 28.784 8.61847 28.756 8.58785 28.7141L8.56721 28.6848C8.44836 28.5215 8.39554 28.3203 8.42037 28.1255C8.44521 27.9307 8.54566 27.7582 8.69965 27.6459L8.74781 27.6115C8.90208 27.4998 9.09704 27.4576 9.28988 27.494C9.48273 27.5304 9.65769 27.6426 9.77637 27.8059L9.79873 27.8351C9.82921 27.8771 9.8418 27.9295 9.83374 27.9808C9.82568 28.032 9.79763 28.078 9.75573 28.1086L8.86133 28.7571Z" fill="#FDFEFE"/>
<path d="M5.25964 28.6572C5.25661 28.946 5.33039 29.1809 5.42443 29.1819C5.51847 29.1828 5.59715 28.9496 5.60018 28.6608C5.6032 28.372 5.52942 28.1371 5.43538 28.1362C5.34134 28.1352 5.26266 28.3685 5.25964 28.6572Z" fill="#FDFEFE"/>
<path d="M20.8927 29.2146C20.8434 29.046 20.7757 28.8895 20.6897 28.745C20.4512 28.346 20.5464 28.2359 20.9753 28.4148C21.1278 28.479 21.2591 28.5713 21.3691 28.6917C21.3964 28.7215 21.4297 28.7452 21.4668 28.7611C21.5039 28.777 21.544 28.7848 21.5844 28.784C21.6247 28.7832 21.6645 28.7738 21.7009 28.7564C21.7374 28.739 21.7697 28.714 21.7957 28.6831C21.9574 28.4916 22.15 28.3402 22.3736 28.229C22.3976 28.2168 22.4246 28.2119 22.4513 28.2149C22.4781 28.2179 22.5034 28.2287 22.524 28.2459C22.5447 28.2631 22.5599 28.286 22.5677 28.3117C22.5755 28.3374 22.5756 28.3649 22.568 28.3907L22.3702 29.046C22.3489 29.1168 22.3555 29.193 22.3884 29.2589C22.4214 29.3248 22.4782 29.3754 22.5473 29.4003C25.0413 30.3188 23.7238 33.5473 22.3186 34.7805C21.6753 35.3447 21.1765 35.0557 20.6639 34.5053C19.4049 33.1534 18.1734 30.2122 20.8153 29.3591C20.8443 29.35 20.8686 29.3299 20.883 29.3029C20.8975 29.2759 20.9009 29.2443 20.8927 29.2146ZM20.5315 33.1757C20.5407 33.2147 20.5579 33.2394 20.5831 33.2497C20.5911 33.2531 20.5999 33.2544 20.6085 33.2536C20.6172 33.2529 20.6255 33.25 20.6328 33.2452C20.6401 33.2405 20.6462 33.234 20.6504 33.2264C20.6546 33.2188 20.6569 33.2102 20.6571 33.2015C20.6594 33.1098 20.6232 33.033 20.5487 32.9711C20.4335 32.4361 20.2477 31.9821 20.3715 31.3921C20.3842 31.3313 20.4208 31.3072 20.4816 31.3199C20.5447 31.3336 20.6129 31.3634 20.6863 31.4093C20.3027 31.6879 20.9305 32.443 21.2006 32.6322C21.2251 32.6494 21.2547 32.6579 21.2846 32.6564C21.3145 32.6548 21.3431 32.6433 21.3657 32.6236C21.4035 32.5904 21.4316 32.5479 21.45 32.4963C21.4683 32.4459 21.5022 32.4092 21.5515 32.3863C21.8634 32.2452 22.099 32.0314 22.2584 31.7447C22.5129 31.2855 22.7503 30.9569 22.4269 30.5063C22.3994 30.4685 22.4057 30.4386 22.4459 30.4169C22.4608 30.4077 22.4803 30.4031 22.5043 30.4031L22.9343 30.9879C22.9395 30.9956 22.9468 31.0016 22.9553 31.0051C22.9638 31.0086 22.9732 31.0095 22.9823 31.0076C22.9913 31.0058 22.9996 31.0013 23.0061 30.9947C23.0125 30.9881 23.0169 30.9798 23.0186 30.9707C23.0754 30.6955 22.6746 30.3653 22.4854 30.2896C22.4292 30.1692 22.3472 30.0832 22.2395 30.0316C22.2161 30.0201 22.1905 30.0136 22.1642 30.0125C22.1379 30.0113 22.1114 30.0154 22.0864 30.0247C21.8398 30.1199 21.6868 30.273 21.6271 30.4839L21.4018 30.5682C21.3204 30.3435 21.2086 30.1566 21.0664 30.0075C21.0251 29.9639 20.9758 29.9519 20.9185 29.9714C19.4789 30.4409 19.7936 32.0853 20.375 33.0897C20.4163 33.162 20.4684 33.1906 20.5315 33.1757Z" fill="#031D35"/>
<path d="M24.5065 28.9136C24.5867 28.9594 24.6423 29.0334 24.6733 29.1355C24.6905 29.1951 24.6699 29.2146 24.6114 29.1939C24.546 29.171 24.4927 29.1211 24.4514 29.0443C24.4388 29.0305 24.4308 29.0162 24.4273 29.0013C24.4205 28.9772 24.4279 28.9589 24.4497 28.9463L24.5065 28.9136Z" fill="#6F8091"/>
<path d="M8.70698 31.1301C9.04898 30.9581 9.20513 30.5779 9.05574 30.2808C8.90635 29.9838 8.508 29.8825 8.166 30.0545C7.824 30.2265 7.66786 30.6067 7.81724 30.9037C7.96663 31.2008 8.36498 31.3021 8.70698 31.1301Z" fill="#6F8091"/>
<path d="M13.624 30.2999C14.0425 30.8136 14.4662 31.1937 14.8951 31.4403C15.0258 31.5159 15.129 31.669 15.2838 31.7344C15.457 31.8066 15.5613 31.8582 15.5969 31.8892C15.7322 32.0084 15.7987 32.1219 15.7964 32.2297C15.7872 32.6127 15.8606 32.6299 16.0165 32.2813C16.247 31.7688 16.7252 31.4901 17.2309 31.2511C17.576 31.0882 17.8443 30.8165 18.0358 30.4358C18.1126 30.375 18.2187 30.3349 18.354 30.3154C18.4171 30.3062 18.44 30.332 18.4228 30.3928C18.1837 31.2373 18.0014 31.9958 17.2205 32.5135C17.0818 32.6053 16.986 32.6746 16.9333 32.7217C16.7705 32.8684 16.7986 32.9447 17.0176 32.9504C17.1919 32.955 17.3713 33.0009 17.5559 33.088C18.9021 33.7233 19.6618 34.7186 19.8349 36.0739C20.1118 38.2394 18.8821 39.8184 17.1328 40.8917C16.6375 41.1961 16.3175 41.4902 15.9976 41.9254C15.9855 41.942 15.9697 41.9554 15.9514 41.9647C15.933 41.9739 15.9128 41.9786 15.8922 41.9785C15.8717 41.9783 15.8515 41.9732 15.8334 41.9637C15.8152 41.9542 15.7996 41.9404 15.7878 41.9237C15.2855 41.2064 14.7076 41.0172 14.0815 40.5631C12.8225 39.6515 12.0227 38.2515 12.0072 36.6931C11.99 35.0299 13.1132 33.1912 14.9622 32.9023C14.9777 32.9 14.9922 32.8932 15.0038 32.8828C15.0155 32.8723 15.0238 32.8586 15.0278 32.8433C15.0318 32.828 15.0313 32.8118 15.0264 32.7966C15.0215 32.7814 15.0123 32.7679 15 32.7578C14.9817 32.7429 14.9742 32.7268 14.9777 32.7096C14.9834 32.6832 14.9736 32.6649 14.9484 32.6546C14.5402 32.4895 14.2088 32.1959 13.9543 31.7739C13.6435 31.2602 13.5334 30.7689 13.624 30.2999ZM14.0248 38.6161C14.1177 38.7503 14.222 38.85 14.3378 38.9154C14.4043 38.9521 14.4158 38.9395 14.3722 38.8775L14.1693 38.5937C13.4537 37.1352 13.6573 35.8469 14.7799 34.7289C14.8062 34.7025 14.8469 34.6853 14.902 34.6773C14.9547 34.6693 14.9662 34.6876 14.9364 34.7323C14.6096 35.2277 14.445 35.7764 14.4427 36.3784C14.4427 36.4013 14.4467 36.4197 14.4548 36.4334C14.472 36.4586 14.4932 36.4655 14.5184 36.4541C14.4725 36.6306 14.4737 36.8204 14.5219 37.0234C14.5425 37.4052 14.6789 37.7303 14.9312 37.9986C14.9702 38.041 15.0189 38.0623 15.0774 38.0623L15.676 38.064C15.7333 38.064 15.7832 38.0445 15.8256 38.0055L16.5893 37.3313C16.6317 37.2934 16.6782 37.2613 16.7286 37.2349C17.1999 36.9924 17.6918 35.9931 17.6333 35.484C17.5903 35.1228 17.2756 34.8235 17.2825 34.538L18.3024 35.6732C18.3334 35.8211 18.3924 35.9478 18.4796 36.0533C18.5277 36.1118 18.5564 36.1032 18.5656 36.0275C18.5782 35.93 18.5363 35.8194 18.44 35.6955C18.3242 34.9502 17.975 34.4044 17.3925 34.0581C16.2212 33.3632 14.2673 33.6711 13.5948 34.9594C12.971 36.1519 13.0255 37.3227 13.7582 38.4716C13.7868 38.5163 13.8264 38.5473 13.8769 38.5645L14.0248 38.6161Z" fill="#031D35"/>
<path d="M22.4012 30.3137C22.4081 30.3676 22.4425 30.3974 22.5044 30.4031C22.4803 30.4031 22.4608 30.4077 22.4459 30.4169C22.4058 30.4386 22.3995 30.4685 22.427 30.5063C22.7503 30.9569 22.513 31.2855 22.2584 31.7447C22.099 32.0314 21.8634 32.2452 21.5515 32.3863C21.5022 32.4092 21.4684 32.4459 21.45 32.4963C21.4317 32.5479 21.4036 32.5904 21.3657 32.6236C21.3431 32.6433 21.3146 32.6548 21.2847 32.6564C21.2547 32.6579 21.2251 32.6494 21.2006 32.6322C20.9306 32.443 20.3028 31.6879 20.6863 31.4093C21.0051 31.1937 21.2436 30.9134 21.4019 30.5682L21.6272 30.4839C21.9276 30.5011 22.1856 30.4444 22.4012 30.3137Z" fill="#6F8091"/>
<path d="M22.4011 30.3137L22.4854 30.2896C22.6746 30.3653 23.0754 30.6955 23.0186 30.9707C23.0169 30.9798 23.0125 30.9881 23.0061 30.9947C22.9996 31.0013 22.9913 31.0058 22.9822 31.0076C22.9732 31.0095 22.9638 31.0086 22.9553 31.0051C22.9467 31.0016 22.9394 30.9956 22.9343 30.9879L22.5043 30.4031C22.4424 30.3974 22.408 30.3676 22.4011 30.3137Z" fill="#FDFEFE"/>
<path d="M13.624 30.2999C14.6973 30.5006 15.438 30.9822 15.8463 31.7447C15.8531 31.7571 15.8627 31.7678 15.8743 31.7759C15.886 31.7839 15.8993 31.7892 15.9133 31.7912C15.9274 31.7932 15.9417 31.7919 15.9551 31.7874C15.9685 31.7829 15.9807 31.7754 15.9907 31.7653C16.6271 31.1358 17.0503 30.6525 18.0358 30.4358C17.8443 30.8165 17.576 31.0882 17.2309 31.2511C16.7252 31.4901 16.247 31.7688 16.0165 32.2813C15.8606 32.6299 15.7872 32.6127 15.7964 32.2297C15.7987 32.1219 15.7322 32.0084 15.5969 31.8892C15.5613 31.8582 15.457 31.8066 15.2838 31.7344C15.129 31.669 15.0258 31.5159 14.8951 31.4403C14.4663 31.1937 14.0426 30.8136 13.624 30.2999Z" fill="#7EAC08"/>
<path d="M10.8548 31.9683C10.6255 32.2825 10.3096 32.4774 9.90708 32.5531C9.5734 31.7825 10.4592 31.2975 10.8548 31.9683Z" fill="#FDFEFE"/>
<path d="M10.8548 31.9683C11.0543 32.7303 10.4437 32.8317 9.9071 32.5531C10.3096 32.4774 10.6255 32.2825 10.8548 31.9683Z" fill="#6F8091"/>
<path d="M20.5487 32.9711C20.6232 33.033 20.6594 33.1098 20.6571 33.2015C20.6569 33.2103 20.6546 33.2188 20.6504 33.2264C20.6462 33.234 20.6401 33.2405 20.6329 33.2452C20.6256 33.25 20.6172 33.2529 20.6085 33.2537C20.5999 33.2544 20.5911 33.2531 20.5831 33.2497C20.5579 33.2394 20.5407 33.2147 20.5315 33.1757C20.4891 33.0932 20.4948 33.025 20.5487 32.9711Z" fill="#6F8091"/>
<path d="M17.2824 34.538C17.2756 34.8235 17.5903 35.1228 17.6333 35.484C17.6918 35.9931 17.1999 36.9924 16.7286 37.2349C16.6782 37.2613 16.6317 37.2934 16.5893 37.3313L15.8256 38.0055C15.7832 38.0445 15.7333 38.064 15.676 38.064L15.0774 38.0623C15.0189 38.0623 14.9702 38.041 14.9312 37.9986C14.6789 37.7303 14.5425 37.4052 14.5219 37.0234C15.0608 36.606 15.606 36.2092 16.1576 35.8331C16.5474 35.566 16.8255 35.3183 16.9918 35.0901C17.1741 34.8401 17.1546 34.6309 16.9333 34.4623C17.017 34.4015 17.1334 34.4267 17.2824 34.538Z" fill="#475A73"/>
<path d="M16.9333 34.4623C17.1546 34.6309 17.1741 34.8401 16.9918 35.0901C16.8255 35.3183 16.5475 35.566 16.1576 35.8332C15.606 36.2093 15.0608 36.606 14.5219 37.0234C14.4737 36.8204 14.4726 36.6307 14.5184 36.4541C14.6027 36.3784 14.6715 36.3526 14.7351 36.2528C15.2672 35.4077 15.9999 34.8109 16.9333 34.4623Z" fill="#FDFEFE"/>
<path d="M18.44 35.6955C18.5363 35.8194 18.5782 35.93 18.5656 36.0275C18.5564 36.1032 18.5277 36.1118 18.4796 36.0533C18.3924 35.9478 18.3334 35.8211 18.3024 35.6732C18.3116 35.6434 18.3127 35.613 18.3058 35.582C18.2737 35.4547 18.2829 35.4324 18.3334 35.5149L18.44 35.6955Z" fill="#475A73"/>
<path d="M14.1692 38.5937L14.3722 38.8775C14.4157 38.9394 14.4043 38.9521 14.3378 38.9154C14.222 38.85 14.1176 38.7503 14.0247 38.6161C13.9743 38.5622 14.0224 38.5547 14.1692 38.5937Z" fill="#6F8091"/>
</svg>
