<svg width="249" height="3522" viewBox="0 0 249 3522" fill="none" xmlns="http://www.w3.org/2000/svg">
<g opacity="0.2" filter="url(#filter0_f_450_2)">
<path d="M-32.1699 301.279C-141.776 364.033 -261.218 361.48 -298.949 295.578C-336.68 229.676 -278.414 125.38 -168.807 62.6259C-59.2009 -0.12797 60.2402 2.42425 97.9716 68.3264C135.703 134.229 77.4367 238.525 -32.1699 301.279ZM-149.774 95.8705C-228.844 141.141 -270.877 216.38 -243.658 263.922C-216.438 311.463 -130.274 313.305 -51.2037 268.034C27.8663 222.764 -23.9843 257.042 -51.2036 209.5C-78.423 161.958 -70.7038 50.6 -149.774 95.8705Z" fill="#7EAC08"/>
</g>
<g opacity="0.2" filter="url(#filter1_f_450_2)">
<path d="M-40.9021 1137.28C-150.509 1200.03 -269.95 1197.48 -307.681 1131.58C-345.413 1065.68 -287.146 961.38 -177.54 898.626C-67.9331 835.872 51.508 838.424 89.2394 904.326C126.971 970.229 68.7045 1074.52 -40.9021 1137.28ZM-158.506 931.87C-237.576 977.141 -279.609 1052.38 -252.39 1099.92C-225.17 1147.46 -139.006 1149.3 -59.9359 1104.03C19.1341 1058.76 -32.7165 1093.04 -59.9359 1045.5C-87.1553 997.958 -79.436 886.6 -158.506 931.87Z" fill="#7EAC08"/>
</g>
<g opacity="0.2" filter="url(#filter2_f_450_2)">
<path d="M-32.1699 2002.92C-141.776 2065.68 -261.218 2063.13 -298.949 1997.22C-336.68 1931.32 -278.414 1827.02 -168.807 1764.27C-59.2009 1701.52 60.2402 1704.07 97.9716 1769.97C135.703 1835.87 77.4367 1940.17 -32.1699 2002.92ZM-149.774 1797.52C-228.844 1842.79 -270.877 1918.03 -243.658 1965.57C-216.438 2013.11 -130.274 2014.95 -51.2037 1969.68C27.8663 1924.41 -23.9843 1958.69 -51.2036 1911.15C-78.423 1863.6 -70.7038 1752.25 -149.774 1797.52Z" fill="#7EAC08"/>
</g>
<g opacity="0.2" filter="url(#filter3_f_450_2)">
<path d="M-32.1699 2740.92C-141.776 2803.68 -261.218 2801.13 -298.949 2735.22C-336.68 2669.32 -278.414 2565.02 -168.807 2502.27C-59.2009 2439.52 60.2402 2442.07 97.9716 2507.97C135.703 2573.87 77.4367 2678.17 -32.1699 2740.92ZM-149.774 2535.52C-228.844 2580.79 -270.877 2656.03 -243.658 2703.57C-216.438 2751.11 -130.274 2752.95 -51.2037 2707.68C27.8663 2662.41 -23.9843 2696.69 -51.2036 2649.15C-78.423 2601.6 -70.7038 2490.25 -149.774 2535.52Z" fill="#7EAC08"/>
</g>
<g opacity="0.2" filter="url(#filter4_f_450_2)">
<path d="M-1.90219 927.279C-111.509 990.033 -230.95 987.48 -268.681 921.578C-306.413 855.676 -248.146 751.38 -138.54 688.626C-28.9332 625.872 90.5079 628.424 128.239 694.326C165.971 760.229 107.704 864.525 -1.90219 927.279ZM-119.506 721.87C-198.576 767.141 -240.609 842.38 -213.39 889.922C-186.17 937.463 -100.006 939.305 -20.936 894.034C58.134 848.764 6.28342 883.042 -20.9359 835.5C-48.1553 787.958 -40.4361 676.6 -119.506 721.87Z" fill="#7EAC08"/>
</g>
<g opacity="0.2" filter="url(#filter5_f_450_2)">
<path d="M-1.90219 1754.92C-111.509 1817.68 -230.95 1815.13 -268.681 1749.22C-306.413 1683.32 -248.146 1579.02 -138.54 1516.27C-28.9332 1453.52 90.5079 1456.07 128.239 1521.97C165.971 1587.87 107.704 1692.17 -1.90219 1754.92ZM-119.506 1549.52C-198.576 1594.79 -240.609 1670.03 -213.39 1717.57C-186.17 1765.11 -100.006 1766.95 -20.936 1721.68C58.134 1676.41 6.28342 1710.69 -20.9359 1663.15C-48.1553 1615.6 -40.4361 1504.25 -119.506 1549.52Z" fill="#7EAC08"/>
</g>
<g opacity="0.2" filter="url(#filter6_f_450_2)">
<path d="M-1.90219 2628.92C-111.509 2691.68 -230.95 2689.13 -268.681 2623.22C-306.413 2557.32 -248.146 2453.02 -138.54 2390.27C-28.9332 2327.52 90.5079 2330.07 128.239 2395.97C165.971 2461.87 107.704 2566.17 -1.90219 2628.92ZM-119.506 2423.52C-198.576 2468.79 -240.609 2544.03 -213.39 2591.57C-186.17 2639.11 -100.006 2640.95 -20.936 2595.68C58.134 2550.41 6.28342 2584.69 -20.9359 2537.15C-48.1553 2489.6 -40.4361 2378.25 -119.506 2423.52Z" fill="#7EAC08"/>
</g>
<g opacity="0.2" filter="url(#filter7_f_450_2)">
<path d="M-1.90219 3366.92C-111.509 3429.68 -230.95 3427.13 -268.681 3361.22C-306.413 3295.32 -248.146 3191.02 -138.54 3128.27C-28.9332 3065.52 90.5079 3068.07 128.239 3133.97C165.971 3199.87 107.704 3304.17 -1.90219 3366.92ZM-119.506 3161.52C-198.576 3206.79 -240.609 3282.03 -213.39 3329.57C-186.17 3377.11 -100.006 3378.95 -20.936 3333.68C58.134 3288.41 6.28342 3322.69 -20.9359 3275.15C-48.1553 3227.6 -40.4361 3116.25 -119.506 3161.52Z" fill="#7EAC08"/>
</g>
<defs>
<filter id="filter0_f_450_2" x="-419.536" y="-91.9195" width="638.095" height="547.744" filterUnits="userSpaceOnUse" color-interpolation-filters="sRGB">
<feFlood flood-opacity="0" result="BackgroundImageFix"/>
<feBlend mode="normal" in="SourceGraphic" in2="BackgroundImageFix" result="shape"/>
<feGaussianBlur stdDeviation="54.55" result="effect1_foregroundBlur_450_2"/>
</filter>
<filter id="filter1_f_450_2" x="-428.268" y="744.081" width="638.095" height="547.743" filterUnits="userSpaceOnUse" color-interpolation-filters="sRGB">
<feFlood flood-opacity="0" result="BackgroundImageFix"/>
<feBlend mode="normal" in="SourceGraphic" in2="BackgroundImageFix" result="shape"/>
<feGaussianBlur stdDeviation="54.55" result="effect1_foregroundBlur_450_2"/>
</filter>
<filter id="filter2_f_450_2" x="-419.536" y="1609.73" width="638.095" height="547.743" filterUnits="userSpaceOnUse" color-interpolation-filters="sRGB">
<feFlood flood-opacity="0" result="BackgroundImageFix"/>
<feBlend mode="normal" in="SourceGraphic" in2="BackgroundImageFix" result="shape"/>
<feGaussianBlur stdDeviation="54.55" result="effect1_foregroundBlur_450_2"/>
</filter>
<filter id="filter3_f_450_2" x="-419.536" y="2347.73" width="638.095" height="547.744" filterUnits="userSpaceOnUse" color-interpolation-filters="sRGB">
<feFlood flood-opacity="0" result="BackgroundImageFix"/>
<feBlend mode="normal" in="SourceGraphic" in2="BackgroundImageFix" result="shape"/>
<feGaussianBlur stdDeviation="54.55" result="effect1_foregroundBlur_450_2"/>
</filter>
<filter id="filter4_f_450_2" x="-389.268" y="534.081" width="638.095" height="547.744" filterUnits="userSpaceOnUse" color-interpolation-filters="sRGB">
<feFlood flood-opacity="0" result="BackgroundImageFix"/>
<feBlend mode="normal" in="SourceGraphic" in2="BackgroundImageFix" result="shape"/>
<feGaussianBlur stdDeviation="54.55" result="effect1_foregroundBlur_450_2"/>
</filter>
<filter id="filter5_f_450_2" x="-389.268" y="1361.73" width="638.095" height="547.743" filterUnits="userSpaceOnUse" color-interpolation-filters="sRGB">
<feFlood flood-opacity="0" result="BackgroundImageFix"/>
<feBlend mode="normal" in="SourceGraphic" in2="BackgroundImageFix" result="shape"/>
<feGaussianBlur stdDeviation="54.55" result="effect1_foregroundBlur_450_2"/>
</filter>
<filter id="filter6_f_450_2" x="-389.268" y="2235.73" width="638.095" height="547.744" filterUnits="userSpaceOnUse" color-interpolation-filters="sRGB">
<feFlood flood-opacity="0" result="BackgroundImageFix"/>
<feBlend mode="normal" in="SourceGraphic" in2="BackgroundImageFix" result="shape"/>
<feGaussianBlur stdDeviation="54.55" result="effect1_foregroundBlur_450_2"/>
</filter>
<filter id="filter7_f_450_2" x="-389.268" y="2973.73" width="638.095" height="547.744" filterUnits="userSpaceOnUse" color-interpolation-filters="sRGB">
<feFlood flood-opacity="0" result="BackgroundImageFix"/>
<feBlend mode="normal" in="SourceGraphic" in2="BackgroundImageFix" result="shape"/>
<feGaussianBlur stdDeviation="54.55" result="effect1_foregroundBlur_450_2"/>
</filter>
</defs>
</svg>
