<svg width="273" height="56" viewBox="0 0 273 56" fill="none" xmlns="http://www.w3.org/2000/svg">
<path d="M73.0888 5.36364H74.7706L78.7251 15.0227H78.8615L82.8161 5.36364H84.4979V17H83.1797V8.15909H83.0661L79.4297 17H78.157L74.5206 8.15909H74.407V17H73.0888V5.36364ZM89.7095 17.2045C89.1565 17.2045 88.6546 17.1004 88.2038 16.892C87.7531 16.6799 87.3951 16.375 87.13 15.9773C86.8648 15.5758 86.7322 15.0909 86.7322 14.5227C86.7322 14.0227 86.8307 13.6174 87.0277 13.3068C87.2247 12.9924 87.4879 12.7462 87.8175 12.5682C88.147 12.3902 88.5107 12.2576 88.9084 12.1705C89.3099 12.0795 89.7133 12.0076 90.1186 11.9545C90.6489 11.8864 91.0788 11.8352 91.4084 11.8011C91.7417 11.7633 91.9841 11.7008 92.1357 11.6136C92.291 11.5265 92.3686 11.375 92.3686 11.1591V11.1136C92.3686 10.553 92.2152 10.1174 91.9084 9.80682C91.6054 9.49621 91.1451 9.34091 90.5277 9.34091C89.8875 9.34091 89.3857 9.48106 89.022 9.76136C88.6584 10.0417 88.4027 10.3409 88.255 10.6591L86.9822 10.2045C87.2095 9.67424 87.5125 9.26136 87.8913 8.96591C88.2739 8.66667 88.6906 8.45833 89.1413 8.34091C89.5959 8.2197 90.0429 8.15909 90.4822 8.15909C90.7625 8.15909 91.0845 8.19318 91.4482 8.26136C91.8156 8.32576 92.1697 8.46023 92.5107 8.66477C92.8554 8.86932 93.1413 9.17803 93.3686 9.59091C93.5959 10.0038 93.7095 10.5568 93.7095 11.25V17H92.3686V15.8182H92.3004C92.2095 16.0076 92.058 16.2102 91.8459 16.4261C91.6338 16.642 91.3516 16.8258 90.9993 16.9773C90.647 17.1288 90.2171 17.2045 89.7095 17.2045ZM89.9141 16C90.4444 16 90.8913 15.8958 91.255 15.6875C91.6224 15.4792 91.8989 15.2102 92.0845 14.8807C92.2739 14.5511 92.3686 14.2045 92.3686 13.8409V12.6136C92.3118 12.6818 92.1868 12.7443 91.9936 12.8011C91.8042 12.8542 91.5845 12.9015 91.3345 12.9432C91.0883 12.9811 90.8478 13.0152 90.6129 13.0455C90.3819 13.072 90.1944 13.0947 90.0504 13.1136C89.7019 13.1591 89.3762 13.233 89.0732 13.3352C88.7739 13.4337 88.5315 13.5833 88.3459 13.7841C88.1641 13.9811 88.0732 14.25 88.0732 14.5909C88.0732 15.0568 88.2455 15.4091 88.5902 15.6477C88.9387 15.8826 89.38 16 89.9141 16ZM96.157 17V8.27273H97.4524V9.59091H97.5433C97.7024 9.15909 97.9903 8.80871 98.407 8.53977C98.8236 8.27083 99.2933 8.13636 99.8161 8.13636C99.9145 8.13636 100.038 8.13826 100.185 8.14205C100.333 8.14583 100.445 8.15152 100.521 8.15909V9.52273C100.475 9.51136 100.371 9.49432 100.208 9.47159C100.049 9.44508 99.8804 9.43182 99.7024 9.43182C99.2782 9.43182 98.8994 9.52083 98.5661 9.69886C98.2365 9.87311 97.9751 10.1155 97.782 10.4261C97.5926 10.733 97.4979 11.0833 97.4979 11.4773V17H96.157ZM103.36 13.8182L103.337 12.1591H103.61L107.428 8.27273H109.087L105.019 12.3864H104.906L103.36 13.8182ZM102.11 17V5.36364H103.451V17H102.11ZM107.656 17L104.246 12.6818L105.201 11.75L109.36 17H107.656ZM114.113 17.1818C113.272 17.1818 112.547 16.9962 111.937 16.625C111.331 16.25 110.863 15.7273 110.533 15.0568C110.208 14.3826 110.045 13.5985 110.045 12.7045C110.045 11.8106 110.208 11.0227 110.533 10.3409C110.863 9.6553 111.321 9.12121 111.908 8.73864C112.499 8.35227 113.189 8.15909 113.977 8.15909C114.431 8.15909 114.88 8.23485 115.323 8.38636C115.766 8.53788 116.17 8.78409 116.533 9.125C116.897 9.46212 117.187 9.90909 117.403 10.4659C117.619 11.0227 117.727 11.7083 117.727 12.5227V13.0909H110.999V11.9318H116.363C116.363 11.4394 116.264 11 116.067 10.6136C115.874 10.2273 115.598 9.92235 115.238 9.69886C114.882 9.47538 114.461 9.36364 113.977 9.36364C113.442 9.36364 112.98 9.49621 112.59 9.76136C112.204 10.0227 111.906 10.3636 111.698 10.7841C111.49 11.2045 111.386 11.6553 111.386 12.1364V12.9091C111.386 13.5682 111.499 14.1269 111.727 14.5852C111.958 15.0398 112.278 15.3864 112.687 15.625C113.096 15.8598 113.571 15.9773 114.113 15.9773C114.465 15.9773 114.783 15.928 115.067 15.8295C115.355 15.7273 115.603 15.5758 115.812 15.375C116.02 15.1705 116.181 14.9167 116.295 14.6136L117.59 14.9773C117.454 15.4167 117.225 15.803 116.903 16.1364C116.581 16.4659 116.183 16.7235 115.71 16.9091C115.236 17.0909 114.704 17.1818 114.113 17.1818ZM123.562 8.27273V9.40909H119.039V8.27273H123.562ZM120.357 6.18182H121.698V14.5C121.698 14.8788 121.753 15.1629 121.863 15.3523C121.977 15.5379 122.121 15.6629 122.295 15.7273C122.473 15.7879 122.66 15.8182 122.857 15.8182C123.005 15.8182 123.126 15.8106 123.221 15.7955C123.316 15.7765 123.391 15.7614 123.448 15.75L123.721 16.9545C123.63 16.9886 123.503 17.0227 123.34 17.0568C123.177 17.0947 122.971 17.1136 122.721 17.1136C122.342 17.1136 121.971 17.0322 121.607 16.8693C121.247 16.7064 120.948 16.4583 120.71 16.125C120.475 15.7917 120.357 15.3712 120.357 14.8636V6.18182ZM125.579 20.2727V8.27273H126.874V9.65909H127.033C127.132 9.50758 127.268 9.31439 127.442 9.07955C127.621 8.84091 127.874 8.62879 128.204 8.44318C128.537 8.25379 128.988 8.15909 129.556 8.15909C130.291 8.15909 130.939 8.3428 131.499 8.71023C132.06 9.07765 132.497 9.59848 132.812 10.2727C133.126 10.947 133.283 11.7424 133.283 12.6591C133.283 13.5833 133.126 14.3845 132.812 15.0625C132.497 15.7367 132.062 16.2595 131.505 16.6307C130.948 16.9981 130.306 17.1818 129.579 17.1818C129.018 17.1818 128.569 17.089 128.232 16.9034C127.895 16.714 127.636 16.5 127.454 16.2614C127.272 16.0189 127.132 15.8182 127.033 15.6591H126.92V20.2727H125.579ZM126.897 12.6364C126.897 13.2955 126.994 13.8769 127.187 14.3807C127.38 14.8807 127.662 15.2727 128.033 15.5568C128.405 15.8371 128.859 15.9773 129.397 15.9773C129.958 15.9773 130.425 15.8295 130.8 15.5341C131.179 15.2348 131.463 14.8333 131.653 14.3295C131.846 13.822 131.942 13.2576 131.942 12.6364C131.942 12.0227 131.848 11.4697 131.658 10.9773C131.473 10.4811 131.191 10.089 130.812 9.80114C130.437 9.50947 129.965 9.36364 129.397 9.36364C128.852 9.36364 128.393 9.50189 128.022 9.77841C127.651 10.0511 127.371 10.4337 127.181 10.9261C126.992 11.4148 126.897 11.9848 126.897 12.6364ZM136.67 5.36364V17H135.329V5.36364H136.67ZM141.694 17.2045C141.141 17.2045 140.639 17.1004 140.188 16.892C139.737 16.6799 139.379 16.375 139.114 15.9773C138.849 15.5758 138.717 15.0909 138.717 14.5227C138.717 14.0227 138.815 13.6174 139.012 13.3068C139.209 12.9924 139.472 12.7462 139.802 12.5682C140.131 12.3902 140.495 12.2576 140.893 12.1705C141.294 12.0795 141.698 12.0076 142.103 11.9545C142.633 11.8864 143.063 11.8352 143.393 11.8011C143.726 11.7633 143.969 11.7008 144.12 11.6136C144.275 11.5265 144.353 11.375 144.353 11.1591V11.1136C144.353 10.553 144.2 10.1174 143.893 9.80682C143.59 9.49621 143.129 9.34091 142.512 9.34091C141.872 9.34091 141.37 9.48106 141.006 9.76136C140.643 10.0417 140.387 10.3409 140.239 10.6591L138.967 10.2045C139.194 9.67424 139.497 9.26136 139.876 8.96591C140.258 8.66667 140.675 8.45833 141.126 8.34091C141.58 8.2197 142.027 8.15909 142.467 8.15909C142.747 8.15909 143.069 8.19318 143.433 8.26136C143.8 8.32576 144.154 8.46023 144.495 8.66477C144.84 8.86932 145.126 9.17803 145.353 9.59091C145.58 10.0038 145.694 10.5568 145.694 11.25V17H144.353V15.8182H144.285C144.194 16.0076 144.042 16.2102 143.83 16.4261C143.618 16.642 143.336 16.8258 142.984 16.9773C142.631 17.1288 142.201 17.2045 141.694 17.2045ZM141.898 16C142.429 16 142.876 15.8958 143.239 15.6875C143.607 15.4792 143.883 15.2102 144.069 14.8807C144.258 14.5511 144.353 14.2045 144.353 13.8409V12.6136C144.296 12.6818 144.171 12.7443 143.978 12.8011C143.789 12.8542 143.569 12.9015 143.319 12.9432C143.073 12.9811 142.832 13.0152 142.597 13.0455C142.366 13.072 142.179 13.0947 142.035 13.1136C141.686 13.1591 141.361 13.233 141.058 13.3352C140.758 13.4337 140.516 13.5833 140.33 13.7841C140.148 13.9811 140.058 14.25 140.058 14.5909C140.058 15.0568 140.23 15.4091 140.575 15.6477C140.923 15.8826 141.364 16 141.898 16ZM151.687 17.1818C150.869 17.1818 150.164 16.9886 149.573 16.6023C148.982 16.2159 148.528 15.6837 148.21 15.0057C147.891 14.3277 147.732 13.553 147.732 12.6818C147.732 11.7955 147.895 11.0133 148.221 10.3352C148.55 9.65341 149.009 9.12121 149.596 8.73864C150.187 8.35227 150.876 8.15909 151.664 8.15909C152.278 8.15909 152.831 8.27273 153.323 8.5C153.816 8.72727 154.219 9.04545 154.533 9.45455C154.848 9.86364 155.043 10.3409 155.119 10.8864H153.778C153.675 10.4886 153.448 10.1364 153.096 9.82955C152.747 9.51894 152.278 9.36364 151.687 9.36364C151.164 9.36364 150.706 9.5 150.312 9.77273C149.922 10.0417 149.617 10.4223 149.397 10.9148C149.181 11.4034 149.073 11.9773 149.073 12.6364C149.073 13.3106 149.179 13.8977 149.391 14.3977C149.607 14.8977 149.91 15.286 150.3 15.5625C150.694 15.839 151.156 15.9773 151.687 15.9773C152.035 15.9773 152.352 15.9167 152.636 15.7955C152.92 15.6742 153.16 15.5 153.357 15.2727C153.554 15.0455 153.694 14.7727 153.778 14.4545H155.119C155.043 14.9697 154.855 15.4337 154.556 15.8466C154.261 16.2557 153.869 16.5814 153.38 16.8239C152.895 17.0625 152.331 17.1818 151.687 17.1818ZM160.738 17.1818C159.897 17.1818 159.172 16.9962 158.562 16.625C157.956 16.25 157.488 15.7273 157.158 15.0568C156.833 14.3826 156.67 13.5985 156.67 12.7045C156.67 11.8106 156.833 11.0227 157.158 10.3409C157.488 9.6553 157.946 9.12121 158.533 8.73864C159.124 8.35227 159.814 8.15909 160.602 8.15909C161.056 8.15909 161.505 8.23485 161.948 8.38636C162.391 8.53788 162.795 8.78409 163.158 9.125C163.522 9.46212 163.812 9.90909 164.028 10.4659C164.244 11.0227 164.352 11.7083 164.352 12.5227V13.0909H157.624V11.9318H162.988C162.988 11.4394 162.889 11 162.692 10.6136C162.499 10.2273 162.223 9.92235 161.863 9.69886C161.507 9.47538 161.086 9.36364 160.602 9.36364C160.067 9.36364 159.605 9.49621 159.215 9.76136C158.829 10.0227 158.531 10.3636 158.323 10.7841C158.115 11.2045 158.011 11.6553 158.011 12.1364V12.9091C158.011 13.5682 158.124 14.1269 158.352 14.5852C158.583 15.0398 158.903 15.3864 159.312 15.625C159.721 15.8598 160.196 15.9773 160.738 15.9773C161.09 15.9773 161.408 15.928 161.692 15.8295C161.98 15.7273 162.228 15.5758 162.437 15.375C162.645 15.1705 162.806 14.9167 162.92 14.6136L164.215 14.9773C164.079 15.4167 163.85 15.803 163.528 16.1364C163.206 16.4659 162.808 16.7235 162.335 16.9091C161.861 17.0909 161.329 17.1818 160.738 17.1818ZM174.687 8.27273V9.40909H170.164V8.27273H174.687ZM171.482 6.18182H172.823V14.5C172.823 14.8788 172.878 15.1629 172.988 15.3523C173.102 15.5379 173.246 15.6629 173.42 15.7273C173.598 15.7879 173.785 15.8182 173.982 15.8182C174.13 15.8182 174.251 15.8106 174.346 15.7955C174.441 15.7765 174.516 15.7614 174.573 15.75L174.846 16.9545C174.755 16.9886 174.628 17.0227 174.465 17.0568C174.302 17.0947 174.096 17.1136 173.846 17.1136C173.467 17.1136 173.096 17.0322 172.732 16.8693C172.372 16.7064 172.073 16.4583 171.835 16.125C171.6 15.7917 171.482 15.3712 171.482 14.8636V6.18182ZM182.204 13.4318V8.27273H183.545V17H182.204V15.5227H182.113C181.908 15.9659 181.59 16.3428 181.158 16.6534C180.727 16.9602 180.181 17.1136 179.522 17.1136C178.977 17.1136 178.492 16.9943 178.067 16.7557C177.643 16.5133 177.31 16.1496 177.067 15.6648C176.825 15.1761 176.704 14.5606 176.704 13.8182V8.27273H178.045V13.7273C178.045 14.3636 178.223 14.8712 178.579 15.25C178.939 15.6288 179.397 15.8182 179.954 15.8182C180.287 15.8182 180.626 15.733 180.971 15.5625C181.319 15.392 181.611 15.1307 181.846 14.7784C182.085 14.4261 182.204 13.9773 182.204 13.4318ZM187.251 13.8182L187.228 12.1591H187.501L191.319 8.27273H192.978L188.91 12.3864H188.796L187.251 13.8182ZM186.001 17V5.36364H187.342V17H186.001ZM191.546 17L188.137 12.6818L189.092 11.75L193.251 17H191.546ZM197.272 17.2045C196.719 17.2045 196.217 17.1004 195.766 16.892C195.316 16.6799 194.958 16.375 194.692 15.9773C194.427 15.5758 194.295 15.0909 194.295 14.5227C194.295 14.0227 194.393 13.6174 194.59 13.3068C194.787 12.9924 195.05 12.7462 195.38 12.5682C195.71 12.3902 196.073 12.2576 196.471 12.1705C196.872 12.0795 197.276 12.0076 197.681 11.9545C198.211 11.8864 198.641 11.8352 198.971 11.8011C199.304 11.7633 199.547 11.7008 199.698 11.6136C199.853 11.5265 199.931 11.375 199.931 11.1591V11.1136C199.931 10.553 199.778 10.1174 199.471 9.80682C199.168 9.49621 198.708 9.34091 198.09 9.34091C197.45 9.34091 196.948 9.48106 196.585 9.76136C196.221 10.0417 195.965 10.3409 195.817 10.6591L194.545 10.2045C194.772 9.67424 195.075 9.26136 195.454 8.96591C195.836 8.66667 196.253 8.45833 196.704 8.34091C197.158 8.2197 197.605 8.15909 198.045 8.15909C198.325 8.15909 198.647 8.19318 199.011 8.26136C199.378 8.32576 199.732 8.46023 200.073 8.66477C200.418 8.86932 200.704 9.17803 200.931 9.59091C201.158 10.0038 201.272 10.5568 201.272 11.25V17H199.931V15.8182H199.863C199.772 16.0076 199.621 16.2102 199.408 16.4261C199.196 16.642 198.914 16.8258 198.562 16.9773C198.21 17.1288 197.78 17.2045 197.272 17.2045ZM197.477 16C198.007 16 198.454 15.8958 198.817 15.6875C199.185 15.4792 199.461 15.2102 199.647 14.8807C199.836 14.5511 199.931 14.2045 199.931 13.8409V12.6136C199.874 12.6818 199.749 12.7443 199.556 12.8011C199.367 12.8542 199.147 12.9015 198.897 12.9432C198.651 12.9811 198.41 13.0152 198.175 13.0455C197.944 13.072 197.757 13.0947 197.613 13.1136C197.264 13.1591 196.939 13.233 196.636 13.3352C196.336 13.4337 196.094 13.5833 195.908 13.7841C195.727 13.9811 195.636 14.25 195.636 14.5909C195.636 15.0568 195.808 15.4091 196.153 15.6477C196.501 15.8826 196.942 16 197.477 16ZM205.06 11.75V17H203.719V8.27273H205.015V9.63636H205.129C205.333 9.19318 205.644 8.83712 206.06 8.56818C206.477 8.29545 207.015 8.15909 207.674 8.15909C208.265 8.15909 208.782 8.2803 209.225 8.52273C209.668 8.76136 210.013 9.125 210.259 9.61364C210.505 10.0985 210.629 10.7121 210.629 11.4545V17H209.288V11.5455C209.288 10.8598 209.11 10.3258 208.754 9.94318C208.397 9.55682 207.909 9.36364 207.288 9.36364C206.86 9.36364 206.477 9.45644 206.14 9.64205C205.807 9.82765 205.543 10.0985 205.35 10.4545C205.157 10.8106 205.06 11.2424 205.06 11.75ZM216.602 20.4545C215.954 20.4545 215.397 20.3712 214.931 20.2045C214.465 20.0417 214.077 19.8258 213.766 19.5568C213.46 19.2917 213.215 19.0076 213.033 18.7045L214.102 17.9545C214.223 18.1136 214.376 18.2955 214.562 18.5C214.747 18.7083 215.001 18.8883 215.323 19.0398C215.649 19.1951 216.075 19.2727 216.602 19.2727C217.306 19.2727 217.888 19.1023 218.346 18.7614C218.804 18.4205 219.033 17.8864 219.033 17.1591V15.3864H218.92C218.821 15.5455 218.681 15.7424 218.499 15.9773C218.321 16.2083 218.064 16.4148 217.727 16.5966C217.393 16.7746 216.942 16.8636 216.374 16.8636C215.67 16.8636 215.037 16.697 214.477 16.3636C213.92 16.0303 213.478 15.5455 213.153 14.9091C212.831 14.2727 212.67 13.5 212.67 12.5909C212.67 11.697 212.827 10.9186 213.141 10.2557C213.456 9.58901 213.893 9.07386 214.454 8.71023C215.014 8.3428 215.662 8.15909 216.397 8.15909C216.965 8.15909 217.416 8.25379 217.749 8.44318C218.086 8.62879 218.344 8.84091 218.522 9.07955C218.704 9.31439 218.844 9.50758 218.942 9.65909H219.079V8.27273H220.374V17.25C220.374 18 220.204 18.6098 219.863 19.0795C219.526 19.553 219.071 19.8996 218.499 20.1193C217.931 20.3428 217.299 20.4545 216.602 20.4545ZM216.556 15.6591C217.094 15.6591 217.549 15.536 217.92 15.2898C218.291 15.0436 218.573 14.6894 218.766 14.2273C218.96 13.7652 219.056 13.2121 219.056 12.5682C219.056 11.9394 218.961 11.3845 218.772 10.9034C218.583 10.4223 218.302 10.0455 217.931 9.77273C217.56 9.5 217.102 9.36364 216.556 9.36364C215.988 9.36364 215.514 9.50758 215.136 9.79545C214.761 10.0833 214.478 10.4697 214.289 10.9545C214.103 11.4394 214.011 11.9773 214.011 12.5682C214.011 13.1742 214.105 13.7102 214.295 14.1761C214.488 14.6383 214.772 15.0019 215.147 15.267C215.526 15.5284 215.996 15.6591 216.556 15.6591ZM233.511 10.2273L232.306 10.5682C232.23 10.3674 232.119 10.1723 231.971 9.98295C231.827 9.78977 231.63 9.63068 231.38 9.50568C231.13 9.38068 230.81 9.31818 230.42 9.31818C229.886 9.31818 229.441 9.44129 229.085 9.6875C228.732 9.92992 228.556 10.2386 228.556 10.6136C228.556 10.947 228.677 11.2102 228.92 11.4034C229.162 11.5966 229.541 11.7576 230.056 11.8864L231.352 12.2045C232.132 12.3939 232.713 12.6837 233.096 13.0739C233.478 13.4602 233.67 13.9583 233.67 14.5682C233.67 15.0682 233.526 15.5152 233.238 15.9091C232.954 16.303 232.556 16.6136 232.045 16.8409C231.533 17.0682 230.939 17.1818 230.261 17.1818C229.371 17.1818 228.634 16.9886 228.05 16.6023C227.467 16.2159 227.098 15.6515 226.942 14.9091L228.215 14.5909C228.336 15.0606 228.566 15.4129 228.903 15.6477C229.244 15.8826 229.689 16 230.238 16C230.863 16 231.359 15.8674 231.727 15.6023C232.098 15.3333 232.283 15.0114 232.283 14.6364C232.283 14.3333 232.177 14.0795 231.965 13.875C231.753 13.6667 231.427 13.5114 230.988 13.4091L229.533 13.0682C228.734 12.8788 228.147 12.5852 227.772 12.1875C227.401 11.786 227.215 11.2841 227.215 10.6818C227.215 10.1894 227.353 9.75379 227.63 9.375C227.91 8.99621 228.291 8.69886 228.772 8.48295C229.257 8.26705 229.806 8.15909 230.42 8.15909C231.283 8.15909 231.961 8.34848 232.454 8.72727C232.95 9.10606 233.302 9.60606 233.511 10.2273ZM238.256 17.2045C237.703 17.2045 237.201 17.1004 236.751 16.892C236.3 16.6799 235.942 16.375 235.677 15.9773C235.412 15.5758 235.279 15.0909 235.279 14.5227C235.279 14.0227 235.378 13.6174 235.575 13.3068C235.772 12.9924 236.035 12.7462 236.364 12.5682C236.694 12.3902 237.058 12.2576 237.455 12.1705C237.857 12.0795 238.26 12.0076 238.665 11.9545C239.196 11.8864 239.626 11.8352 239.955 11.8011C240.289 11.7633 240.531 11.7008 240.683 11.6136C240.838 11.5265 240.915 11.375 240.915 11.1591V11.1136C240.915 10.553 240.762 10.1174 240.455 9.80682C240.152 9.49621 239.692 9.34091 239.075 9.34091C238.434 9.34091 237.933 9.48106 237.569 9.76136C237.205 10.0417 236.95 10.3409 236.802 10.6591L235.529 10.2045C235.756 9.67424 236.059 9.26136 236.438 8.96591C236.821 8.66667 237.237 8.45833 237.688 8.34091C238.143 8.2197 238.59 8.15909 239.029 8.15909C239.309 8.15909 239.631 8.19318 239.995 8.26136C240.362 8.32576 240.717 8.46023 241.058 8.66477C241.402 8.86932 241.688 9.17803 241.915 9.59091C242.143 10.0038 242.256 10.5568 242.256 11.25V17H240.915V15.8182H240.847C240.756 16.0076 240.605 16.2102 240.393 16.4261C240.181 16.642 239.898 16.8258 239.546 16.9773C239.194 17.1288 238.764 17.2045 238.256 17.2045ZM238.461 16C238.991 16 239.438 15.8958 239.802 15.6875C240.169 15.4792 240.446 15.2102 240.631 14.8807C240.821 14.5511 240.915 14.2045 240.915 13.8409V12.6136C240.859 12.6818 240.734 12.7443 240.54 12.8011C240.351 12.8542 240.131 12.9015 239.881 12.9432C239.635 12.9811 239.395 13.0152 239.16 13.0455C238.929 13.072 238.741 13.0947 238.597 13.1136C238.249 13.1591 237.923 13.233 237.62 13.3352C237.321 13.4337 237.078 13.5833 236.893 13.7841C236.711 13.9811 236.62 14.25 236.62 14.5909C236.62 15.0568 236.792 15.4091 237.137 15.6477C237.486 15.8826 237.927 16 238.461 16ZM245.255 20.2727C245.028 20.2727 244.825 20.2538 244.647 20.2159C244.469 20.1818 244.346 20.1477 244.278 20.1136L244.619 18.9318C244.944 19.0152 245.232 19.0455 245.482 19.0227C245.732 19 245.954 18.8883 246.147 18.6875C246.344 18.4905 246.524 18.1705 246.687 17.7273L246.937 17.0455L243.71 8.27273H245.164L247.573 15.2273H247.664L250.073 8.27273H251.528L247.823 18.2727C247.656 18.7235 247.45 19.0966 247.204 19.392C246.958 19.6913 246.672 19.9129 246.346 20.0568C246.024 20.2008 245.66 20.2727 245.255 20.2727ZM258.798 13.4318V8.27273H260.138V17H258.798V15.5227H258.707C258.502 15.9659 258.184 16.3428 257.752 16.6534C257.32 16.9602 256.775 17.1136 256.116 17.1136C255.57 17.1136 255.085 16.9943 254.661 16.7557C254.237 16.5133 253.904 16.1496 253.661 15.6648C253.419 15.1761 253.298 14.5606 253.298 13.8182V8.27273H254.638V13.7273C254.638 14.3636 254.817 14.8712 255.173 15.25C255.532 15.6288 255.991 15.8182 256.548 15.8182C256.881 15.8182 257.22 15.733 257.565 15.5625C257.913 15.392 258.205 15.1307 258.44 14.7784C258.678 14.4261 258.798 13.9773 258.798 13.4318ZM262.594 17V8.27273H263.89V9.59091H263.981C264.14 9.15909 264.428 8.80871 264.844 8.53977C265.261 8.27083 265.731 8.13636 266.254 8.13636C266.352 8.13636 266.475 8.13826 266.623 8.14205C266.771 8.14583 266.882 8.15152 266.958 8.15909V9.52273C266.913 9.51136 266.808 9.49432 266.646 9.47159C266.487 9.44508 266.318 9.43182 266.14 9.43182C265.716 9.43182 265.337 9.52083 265.004 9.69886C264.674 9.87311 264.413 10.1155 264.219 10.4261C264.03 10.733 263.935 11.0833 263.935 11.4773V17H262.594Z" fill="white"/>
<path d="M22.9085 17.9803C22.5508 17.978 22.3788 18.0657 22.3925 18.2434" stroke="#FDFEFE" stroke-width="2"/>
<path d="M22.3926 18.2434C22.3295 18.2423 22.2636 18.2715 22.1948 18.3312" stroke="#FDFEFE" stroke-width="2"/>
<path d="M16.634 21.4374C16.5927 21.5601 16.5795 21.6638 16.5944 21.7487C16.6082 21.8255 16.6403 21.8347 16.6908 21.7762C17.6419 20.6857 19.2278 20.4707 20.3647 20.0837C20.4151 20.0665 20.4404 20.0843 20.4404 20.1371V20.1938C20.4404 20.2087 20.4329 20.2196 20.418 20.2265L19.0558 20.856C18.8688 20.942 18.878 20.981 19.0833 20.973C19.3252 20.9627 19.6079 20.8612 19.9312 20.6685" stroke="#FDFEFE" stroke-width="2"/>
<path d="M19.9313 20.6686C19.9416 20.7306 20.0144 20.7397 20.1497 20.6962C20.1715 20.6893 20.1824 20.6973 20.1824 20.7202C20.1824 20.7351 20.1824 20.7495 20.1824 20.7632C20.1812 20.8034 20.1658 20.8378 20.136 20.8664C20.0006 20.996 19.8401 21.0774 19.6544 21.1107C19.5993 21.1198 19.55 21.1422 19.5064 21.1777C19.2622 21.375 18.9784 21.4713 18.655 21.4667C18.6367 21.4667 18.6269 21.4765 18.6258 21.4959C18.6258 21.5143 18.6292 21.5292 18.6361 21.5407C18.6464 21.5556 18.6654 21.5665 18.6929 21.5733C19.382 21.7293 20.0167 21.6806 20.5969 21.4272C21.4294 21.0637 22.1736 20.4714 22.8295 19.6504" stroke="#FDFEFE" stroke-width="2"/>
<path d="M20.922 23.3777L20.7603 23.5411C20.7328 23.5686 20.7385 23.5829 20.7775 23.5841C20.8761 23.5852 20.9862 23.5365 21.1077 23.4379" stroke="#FDFEFE" stroke-width="2"/>
<path d="M22.2395 22.6519L22.1758 23.2023C22.1721 23.237 22.1782 23.2721 22.1934 23.3035C22.2087 23.3349 22.2325 23.3614 22.2621 23.3799C22.2918 23.3984 22.326 23.4082 22.361 23.4081C22.3959 23.408 22.4301 23.3981 22.4596 23.3794C22.697 23.2292 22.9538 23.1375 23.2302 23.1042" stroke="#FDFEFE" stroke-width="2"/>
<path d="M13.6154 17.8684C13.6613 18.0748 13.7502 18.2663 13.882 18.4429C14.0781 18.7026 14.4496 18.8144 14.6715 19.093C14.9673 19.468 15.2288 19.7747 15.4558 20.0132C15.6244 20.1904 15.7517 20.4759 16.0165 20.6359C16.1473 20.715 16.2476 20.7167 16.3175 20.641C16.3806 20.5711 16.4253 20.4536 16.4517 20.2884" stroke="#FDFEFE" stroke-width="2"/>
<path d="M18.6911 11.6421C18.2118 12.3817 17.8323 13.1431 17.5525 13.9263C17.5181 14.0226 17.5129 14.1212 17.537 14.2221C17.5565 14.3047 17.5875 14.3092 17.6299 14.2359C17.728 14.0707 17.752 13.8833 17.8466 13.7267C18.2296 13.0858 18.4882 12.5789 18.6223 12.2063C18.7921 11.7327 18.9251 11.4042 19.0214 11.2207" stroke="#FDFEFE" stroke-width="2"/>
<path d="M19.9313 20.6686C20.2701 20.4708 20.8601 20.3693 21.051 19.8912C21.0716 19.8384 21.1043 19.7943 21.149 19.7587C21.6811 19.3379 22.0956 18.8328 22.3926 18.2434" stroke="#FDFEFE" stroke-width="2"/>
<path d="M13.624 31.2998C14.0426 31.8135 14.4663 32.1936 14.8951 32.4402C15.0258 32.5158 15.129 32.6689 15.2838 32.7343C15.457 32.8065 15.5613 32.8581 15.5969 32.8891C15.7322 33.0083 15.7987 33.1219 15.7964 33.2296C15.7872 33.6126 15.8606 33.6298 16.0165 33.2812C16.247 32.7687 16.7252 32.49 17.2309 32.251C17.576 32.0881 17.8443 31.8164 18.0358 31.4357" stroke="#FDFEFE" stroke-width="2"/>
<path d="M11.7578 12.4487C11.3232 12.3937 10.8812 12.5284 10.4317 12.8529" stroke="#FDFEFE" stroke-width="2"/>
<path d="M10.1702 13.6991L10.5469 14.5557C10.5721 14.6153 10.6174 14.6422 10.6828 14.6365C10.9133 14.6176 11.1489 14.4232 11.2917 14.3544C11.6712 14.1721 11.939 13.9353 12.0949 13.6441C12.1935 13.4594 12.2061 13.1917 12.1327 12.8408" stroke="#FDFEFE" stroke-width="2"/>
<path d="M17.0245 13.5632C17.0061 13.5632 16.9884 13.5632 16.9712 13.5632C16.9627 13.5631 16.9543 13.5648 16.9466 13.5683C16.9389 13.5717 16.932 13.5768 16.9264 13.5832C16.9209 13.5896 16.9168 13.5971 16.9144 13.6052C16.912 13.6133 16.9114 13.6219 16.9127 13.6302C16.9574 13.9054 16.7424 13.9433 16.7046 14.1531C16.6805 14.2861 16.7028 14.2947 16.7716 14.1789C16.8164 14.1021 16.8731 14.0385 16.9419 13.988C16.9843 13.957 17.0142 13.9158 17.0314 13.8642C17.0669 13.7529 17.134 13.6641 17.2326 13.5976C17.2486 13.5872 17.2567 13.5718 17.2567 13.5511C17.2567 13.5351 17.2567 13.519 17.2567 13.503C17.2578 13.4433 17.2297 13.4227 17.1724 13.441C17.1162 13.4605 17.0755 13.4955 17.0503 13.546C17.0445 13.5574 17.0359 13.5632 17.0245 13.5632Z" stroke="#FDFEFE" stroke-width="2"/>
<path d="M14.3189 26.6628C14.3522 26.797 14.4169 26.926 14.5133 27.0498C14.55 27.0957 14.5981 27.1152 14.6577 27.1083C14.7449 27.0968 14.7994 27.0504 14.8212 26.969C14.8372 26.907 14.8722 26.8594 14.9261 26.8262C15.16 26.6766 15.363 26.5476 15.6433 26.4392C16.0401 26.2844 16.3766 26.0619 16.6529 25.7718C16.7263 25.695 16.8037 25.6423 16.8851 25.6136C16.9425 25.593 16.9757 25.5522 16.9849 25.4915C16.9998 25.4066 17.0445 25.3493 17.1191 25.3195C17.1741 25.2988 17.2131 25.2604 17.236 25.2042C17.3232 24.9864 17.5233 24.7117 17.8363 24.3804C18.0198 24.1843 18.0272 23.9945 17.8587 23.811" stroke="#FDFEFE" stroke-width="2"/>
<path d="M17.8586 23.8111C17.697 23.5038 17.4722 23.2538 17.1844 23.0612C17.1729 23.0532 17.1712 23.0434 17.1792 23.032V23.0302C17.1861 23.0176 17.1959 23.0153 17.2085 23.0234C18.624 23.8352 19.558 24.862 19.4548 26.5373C19.4546 26.5389 19.4547 26.5405 19.4551 26.5421C19.4555 26.5436 19.4562 26.5451 19.4571 26.5463C19.4581 26.5476 19.4593 26.5487 19.4606 26.5495C19.462 26.5503 19.4635 26.5509 19.4651 26.5511C19.4667 26.5513 19.4683 26.5512 19.4699 26.5508C19.4714 26.5504 19.4729 26.5497 19.4741 26.5488C19.4754 26.5478 19.4765 26.5466 19.4773 26.5452C19.4781 26.5439 19.4787 26.5423 19.4789 26.5408C19.4978 26.3911 19.5666 26.2621 19.5821 26.1159C19.7312 24.6184 19.2455 23.5118 18.1252 22.7963C15.2821 20.9817 11.8748 23.6666 12.9326 26.914C13.1447 27.5665 13.5208 28.0578 14.0609 28.388C14.1526 28.4442 14.1738 28.4242 14.1245 28.3278C13.9835 28.0544 13.7513 27.774 13.6515 27.5366C13.1906 26.4376 13.206 24.733 14.2277 23.9057C14.2759 23.8667 14.2914 23.8771 14.2742 23.9367C14.0093 24.8414 14.0242 25.7501 14.3189 26.6629" stroke="#FDFEFE" stroke-width="2"/>
<path d="M17.8587 23.811C17.6454 24.745 17.0554 24.8757 16.4534 25.3728C16.2402 25.55 15.9288 25.6463 15.793 25.9903C15.7924 25.9918 15.7916 25.9931 15.7905 25.9942C15.7893 25.9953 15.788 25.9962 15.7865 25.9966C15.785 25.9971 15.7834 25.9973 15.7818 25.9971C15.7803 25.9969 15.7788 25.9963 15.7775 25.9954L15.731 25.9714C15.7135 25.9618 15.6939 25.9567 15.6738 25.9564C15.6538 25.9561 15.6338 25.9606 15.6158 25.9696L14.8057 26.3549C14.7598 26.3767 14.7243 26.41 14.699 26.4547C14.6142 26.6037 14.4875 26.6731 14.3189 26.6628" stroke="#FDFEFE" stroke-width="2"/>
<path d="M9.55621 24.1498C9.84976 24.2278 10.2012 24.1648 10.6106 23.9606C10.8703 23.8316 11.2367 23.5633 11.2195 23.2331C11.2103 23.0508 11.1575 22.9527 11.0612 22.939" stroke="#FDFEFE" stroke-width="2"/>
<path d="M11.0612 22.9389C10.0877 21.7933 8.99892 22.9406 9.5562 24.1497" stroke="#FDFEFE" stroke-width="2"/>
<path d="M11.0612 22.939C10.8433 23.0124 10.5538 23.1436 10.1926 23.3328C9.83256 23.522 9.62043 23.7944 9.55621 24.1498" stroke="#FDFEFE" stroke-width="2"/>
<path d="M6.18848 25.2386C6.23549 25.3109 6.2934 25.3659 6.3622 25.4037C6.41494 25.4324 6.46081 25.4244 6.4998 25.3797L6.64944 25.2145C6.68613 25.1733 6.732 25.1498 6.78704 25.144C7.5232 25.0626 7.97728 24.6699 8.14928 23.9658" stroke="#FDFEFE" stroke-width="2"/>
<path d="M8.14924 23.9657C7.11552 22.8202 5.39552 23.7335 6.18844 25.2385" stroke="#FDFEFE" stroke-width="2"/>
<path d="M8.14928 23.9658C7.50084 24.0054 7.27208 24.0277 6.84896 24.5403C6.81685 24.5793 6.77557 24.6011 6.72512 24.6057L6.55483 24.6177C6.52275 24.6196 6.49242 24.633 6.46938 24.6554C6.44633 24.6779 6.4321 24.7078 6.42928 24.7398C6.39488 25.0827 6.31461 25.2489 6.18848 25.2386" stroke="#FDFEFE" stroke-width="2"/>
<path d="M3.8974 26.9449C4.46672 27.6157 4.97584 26.6748 5.21664 26.1227C5.23957 26.0688 5.24072 26.0149 5.22008 25.961L4.87952 25.0339" stroke="#FDFEFE" stroke-width="2"/>
<path d="M4.87953 25.0339C4.00004 24.9158 3.54825 25.3555 3.52417 26.3531C3.51958 26.5435 3.644 26.7407 3.89741 26.9448" stroke="#FDFEFE" stroke-width="2"/>
<path d="M4.8795 25.0339L4.90874 25.7512C4.9106 25.7917 4.8982 25.8317 4.87369 25.864C4.84919 25.8964 4.81412 25.9191 4.77458 25.9283C4.48104 26.0006 4.21157 26.1267 3.96618 26.3067C3.91573 26.3446 3.8905 26.3956 3.8905 26.4598L3.89738 26.9449" stroke="#FDFEFE" stroke-width="2"/>
<path d="M9.23285 27.4025C9.55736 27.516 9.879 27.4449 10.1978 27.1892C10.2838 27.1204 10.4655 26.9931 10.743 26.8074C11.1283 26.5528 11.1036 26.1853 10.6691 25.7048" stroke="#FDFEFE" stroke-width="2"/>
<path d="M10.669 25.7048C9.40311 24.7967 8.15783 26.1572 9.23283 27.4025" stroke="#FDFEFE" stroke-width="2"/>
<path d="M10.6691 25.7048C10.6599 25.7278 10.6518 25.7473 10.645 25.7633C10.6289 25.8046 10.6014 25.8149 10.5624 25.7943C10.5051 25.7645 10.4586 25.757 10.4231 25.7719C10.1915 25.8659 10.0332 26.0288 9.94837 26.2604C9.93117 26.3097 9.89906 26.3458 9.85205 26.3688C9.48856 26.5511 9.28216 26.8956 9.23285 27.4025" stroke="#FDFEFE" stroke-width="2"/>
<path d="M6.62707 27.8633C6.76697 27.7933 6.91087 27.7303 7.05879 27.6741C7.11613 27.6534 7.16543 27.6202 7.20671 27.5743C7.33285 27.4321 7.48077 27.3163 7.65047 27.2269C7.67651 27.2129 7.69873 27.1928 7.7152 27.1683C7.73166 27.1438 7.74187 27.1157 7.74493 27.0863C7.74798 27.0569 7.74379 27.0273 7.73272 26.9999C7.72165 26.9725 7.70404 26.9483 7.68143 26.9293C6.63567 26.0573 5.37835 26.9345 5.95971 28.2124C6.07782 28.4716 6.17357 28.4636 6.24695 28.1884C6.27562 28.0852 6.40233 27.9768 6.62707 27.8633Z" stroke="#FDFEFE" stroke-width="2"/>
<path d="M8.86133 29.757L9.75573 29.1086C9.79763 29.078 9.82568 29.032 9.83374 28.9807C9.8418 28.9295 9.82921 28.8771 9.79873 28.8351L9.77637 28.8059C9.65769 28.6426 9.48273 28.5304 9.28988 28.494C9.09704 28.4575 8.90208 28.4998 8.74781 28.6115L8.69965 28.6459C8.54566 28.7582 8.44521 28.9307 8.42037 29.1255C8.39554 29.3203 8.44836 29.5215 8.56721 29.6848L8.58785 29.714C8.61847 29.7559 8.66445 29.784 8.71571 29.792C8.76697 29.8001 8.81934 29.7875 8.86133 29.757Z" stroke="#FDFEFE" stroke-width="2"/>
<path d="M5.42446 30.1819C5.46962 30.1824 5.5135 30.1278 5.54646 30.03C5.57941 29.9323 5.59874 29.7995 5.6002 29.6609C5.60165 29.5222 5.5851 29.389 5.5542 29.2906C5.52329 29.1923 5.48056 29.1367 5.4354 29.1362C5.39025 29.1358 5.34637 29.1904 5.31341 29.2881C5.28045 29.3858 5.26112 29.5186 5.25967 29.6573C5.25822 29.796 5.27476 29.9291 5.30567 30.0275C5.33657 30.1259 5.37931 30.1814 5.42446 30.1819Z" stroke="#FDFEFE" stroke-width="2"/>
<path d="M9.05575 31.2807C8.98401 31.1381 8.84996 31.0341 8.68311 30.9917C8.51625 30.9492 8.33024 30.9718 8.16601 31.0544C8.08468 31.0953 8.01115 31.1497 7.94962 31.2145C7.88808 31.2793 7.83974 31.3533 7.80735 31.4321C7.77497 31.511 7.75917 31.5932 7.76087 31.6741C7.76256 31.755 7.78172 31.833 7.81724 31.9036C7.88898 32.0463 8.02303 32.1503 8.18988 32.1927C8.35674 32.2352 8.54275 32.2126 8.70698 32.13C8.7883 32.0891 8.86183 32.0347 8.92337 31.9699C8.98491 31.9051 9.03325 31.8311 9.06564 31.7522C9.09803 31.6734 9.11382 31.5912 9.11212 31.5103C9.11042 31.4293 9.09127 31.3514 9.05575 31.2807Z" stroke="#FDFEFE" stroke-width="2"/>
<path d="M9.9071 33.5531C10.4437 33.8317 11.0543 33.7302 10.8548 32.9683" stroke="#FDFEFE" stroke-width="2"/>
<path d="M10.8548 32.9684C10.4592 32.2976 9.5734 32.7826 9.90708 33.5532" stroke="#FDFEFE" stroke-width="2"/>
<path d="M10.8548 32.9683C10.6255 33.2824 10.3096 33.4774 9.9071 33.5531" stroke="#FDFEFE" stroke-width="2"/>
<path d="M16.973 6.87002C16.9861 6.87416 17.0189 6.8146 17.0642 6.70446C17.1095 6.59432 17.1636 6.44261 17.2146 6.2827C17.2399 6.20351 17.2637 6.12469 17.2845 6.05074C17.3054 5.97678 17.323 5.90915 17.3363 5.8517C17.3496 5.79425 17.3584 5.7481 17.3621 5.7159C17.3658 5.6837 17.3644 5.66607 17.3579 5.66402C17.3449 5.65988 17.3121 5.71943 17.2668 5.82957C17.2215 5.93971 17.1674 6.09142 17.1163 6.25133C17.091 6.33053 17.0673 6.40935 17.0464 6.4833C17.0255 6.55725 17.0079 6.62489 16.9946 6.68234C16.9813 6.73979 16.9726 6.78593 16.9689 6.81814C16.9652 6.85034 16.9666 6.86797 16.973 6.87002Z" stroke="#FDFEFE" stroke-width="2"/>
<path d="M23.5071 13.8987C23.3902 14.0409 23.2371 14.1618 23.0479 14.2616C23.0391 14.2663 23.0318 14.2732 23.0266 14.2817C23.0215 14.2901 23.0187 14.2998 23.0186 14.3098C23.0186 14.3258 23.0181 14.3424 23.0169 14.3596C23.0168 14.3649 23.0183 14.3702 23.0212 14.3747C23.024 14.3792 23.028 14.3827 23.0328 14.3848C23.0375 14.3869 23.0426 14.3874 23.0475 14.3863C23.0523 14.3851 23.0567 14.3825 23.0599 14.3786C23.2285 14.2077 23.4028 14.1028 23.5828 14.0638" stroke="#FDFEFE" stroke-width="2"/>
<path d="M6.40673 14.2725C6.40483 14.2653 6.37759 14.265 6.32656 14.2715C6.27553 14.2781 6.20172 14.2914 6.10933 14.3106C6.01694 14.3299 5.90778 14.3549 5.7881 14.384C5.66842 14.4131 5.54056 14.4458 5.41181 14.4803C5.28309 14.5148 5.156 14.5504 5.03782 14.585C4.91963 14.6196 4.81265 14.6526 4.72299 14.6821C4.63333 14.7116 4.56275 14.737 4.51527 14.7568C4.46779 14.7767 4.44435 14.7906 4.44628 14.7978C4.44817 14.805 4.47542 14.8054 4.52645 14.7988C4.57747 14.7923 4.65129 14.779 4.74368 14.7597C4.83607 14.7404 4.94522 14.7155 5.0649 14.6863C5.18458 14.6572 5.31245 14.6245 5.44119 14.59C5.56992 14.5555 5.697 14.5199 5.81519 14.4853C5.93338 14.4507 6.04036 14.4177 6.13002 14.3882C6.21968 14.3587 6.29026 14.3333 6.33774 14.3135C6.38522 14.2936 6.40866 14.2797 6.40673 14.2725Z" stroke="#FDFEFE" stroke-width="2"/>
<path d="M3.86127 20.4192L5.19943 19.2771C5.20766 19.27 5.214 19.2611 5.2179 19.2509C5.2218 19.2408 5.22313 19.2299 5.22177 19.2192C5.2204 19.2084 5.21639 19.1982 5.21009 19.1894C5.20379 19.1806 5.19539 19.1735 5.18567 19.1687C5.12604 19.14 5.10769 19.1429 5.13063 19.1773" stroke="#FDFEFE" stroke-width="2"/>
<path d="M24.4514 30.0443C24.4927 30.1211 24.546 30.171 24.6114 30.1939C24.6699 30.2146 24.6905 30.1951 24.6733 30.1355C24.6423 30.0334 24.5867 29.9594 24.5065 29.9136" stroke="#FDFEFE" stroke-width="2"/>
<path d="M24.5013 28.775C24.5185 28.9665 24.5913 29.131 24.7197 29.2686C24.7321 29.2818 24.7473 29.292 24.7642 29.2984C24.7811 29.3049 24.7992 29.3075 24.8172 29.306C24.8352 29.3045 24.8526 29.299 24.8682 29.2898C24.8838 29.2807 24.8971 29.2682 24.9072 29.2532C24.9496 29.189 24.9806 29.1202 25.0001 29.0468C25.0116 28.9998 25.0391 28.9659 25.0826 28.9453C25.7552 28.6236 25.8205 28.0044 26.352 27.6862C26.5148 27.5899 26.5143 27.5154 26.3503 27.4626" stroke="#FDFEFE" stroke-width="2"/>
<path d="M20.5316 34.1756C20.5407 34.2146 20.5579 34.2393 20.5832 34.2496C20.5912 34.253 20.5999 34.2543 20.6086 34.2535C20.6173 34.2528 20.6256 34.2499 20.6329 34.2451C20.6402 34.2404 20.6462 34.2339 20.6504 34.2263C20.6547 34.2187 20.657 34.2101 20.6571 34.2014C20.6594 34.1097 20.6233 34.0329 20.5488 33.9709" stroke="#FDFEFE" stroke-width="2"/>
<path d="M20.6863 32.4093C20.3028 32.6879 20.9306 33.443 21.2006 33.6322C21.2251 33.6494 21.2547 33.6579 21.2847 33.6564C21.3146 33.6548 21.3431 33.6433 21.3657 33.6236C21.4036 33.5903 21.4317 33.5479 21.45 33.4963C21.4684 33.4459 21.5022 33.4092 21.5515 33.3862C21.8634 33.2452 22.099 33.0313 22.2584 32.7447C22.513 32.2854 22.7503 31.9569 22.427 31.5063C22.3995 31.4684 22.4058 31.4386 22.4459 31.4168C22.4608 31.4077 22.4803 31.4031 22.5044 31.4031" stroke="#FDFEFE" stroke-width="2"/>
<path d="M22.5044 31.4031L22.9344 31.9879C22.9395 31.9956 22.9468 32.0015 22.9553 32.005C22.9639 32.0086 22.9733 32.0095 22.9823 32.0076C22.9914 32.0058 22.9997 32.0013 23.0061 31.9947C23.0126 31.9881 23.017 31.9797 23.0187 31.9707C23.0754 31.6955 22.6747 31.3652 22.4855 31.2896" stroke="#FDFEFE" stroke-width="2"/>
<path d="M21.6272 31.4839L21.4019 31.5682" stroke="#FDFEFE" stroke-width="2"/>
<path d="M22.4012 31.3137C22.4081 31.3676 22.4425 31.3974 22.5044 31.4032" stroke="#FDFEFE" stroke-width="2"/>
<path d="M14.0248 39.6161C14.1177 39.7503 14.222 39.85 14.3378 39.9154C14.4043 39.9521 14.4158 39.9395 14.3722 39.8775L14.1693 39.5938" stroke="#FDFEFE" stroke-width="2"/>
<path d="M14.5184 37.4541C14.4726 37.6307 14.4737 37.8205 14.5219 38.0234" stroke="#FDFEFE" stroke-width="2"/>
<path d="M14.5219 38.0235C14.5425 38.4053 14.6789 38.7304 14.9312 38.9987C14.9702 39.0412 15.0189 39.0624 15.0774 39.0624L15.676 39.0641C15.7333 39.0641 15.7832 39.0446 15.8256 39.0056L16.5893 38.3314C16.6317 38.2935 16.6782 38.2614 16.7286 38.235C17.1999 37.9925 17.6918 36.9932 17.6333 36.4841C17.5903 36.1229 17.2756 35.8236 17.2824 35.5381" stroke="#FDFEFE" stroke-width="2"/>
<path d="M18.3024 36.6731C18.3334 36.821 18.3924 36.9477 18.4796 37.0532C18.5277 37.1117 18.5564 37.1031 18.5656 37.0274C18.5782 36.9299 18.5363 36.8193 18.44 36.6955" stroke="#FDFEFE" stroke-width="2"/>
<path d="M14.5219 38.0235C15.0608 37.6061 15.606 37.2093 16.1576 36.8332C16.5474 36.5661 16.8255 36.3184 16.9918 36.0902C17.1741 35.8402 17.1546 35.631 16.9333 35.4624" stroke="#FDFEFE" stroke-width="2"/>
<path d="M22.9086 17.9802C22.5508 17.9779 22.3788 18.0656 22.3926 18.2434C22.3295 18.2422 22.2636 18.2715 22.1948 18.3311C22.1558 18.2864 22.1116 18.2847 22.0623 18.3259C21.2109 19.0501 20.1875 19.0896 19.1452 19.3012C18.2388 19.4852 16.5859 20.3177 16.634 21.4374C16.5927 21.5601 16.5795 21.6639 16.5945 21.7487C16.6082 21.8256 16.6403 21.8347 16.6908 21.7763C17.6419 20.6858 19.2278 20.4708 20.3647 20.0838C20.4152 20.0666 20.4404 20.0844 20.4404 20.1371V20.1939C20.4404 20.2088 20.4329 20.2197 20.418 20.2265L19.0558 20.8561C18.8689 20.9421 18.878 20.9811 19.0833 20.973C19.3252 20.9627 19.6079 20.8612 19.9313 20.6686C19.9416 20.7305 20.0144 20.7397 20.1497 20.6961C20.1715 20.6892 20.1824 20.6973 20.1824 20.7202C20.1824 20.7351 20.1824 20.7494 20.1824 20.7632C20.1812 20.8033 20.1657 20.8377 20.1359 20.8664C20.0006 20.996 19.8401 21.0774 19.6543 21.1106C19.5993 21.1198 19.55 21.1422 19.5064 21.1777C19.2622 21.3749 18.9784 21.4713 18.655 21.4667C18.6367 21.4667 18.6269 21.4764 18.6258 21.4959C18.6258 21.5142 18.6292 21.5292 18.6361 21.5406C18.6464 21.5555 18.6653 21.5664 18.6929 21.5733C19.382 21.7292 20.0167 21.6805 20.5969 21.4271C21.4294 21.0636 22.1736 20.4714 22.8295 19.6503C22.5955 21.1175 22.0847 22.435 20.8927 23.338C20.8904 23.3392 20.8904 23.3415 20.8927 23.3449L20.922 23.3776L20.7603 23.541C20.7328 23.5685 20.7385 23.5828 20.7775 23.584C20.8761 23.5851 20.9862 23.5364 21.1077 23.4378C21.1169 23.4447 21.1267 23.4578 21.137 23.4773C21.1473 23.4968 21.1611 23.4997 21.1783 23.4859L22.2395 22.6517L22.1759 23.2021C22.1721 23.2369 22.1782 23.272 22.1934 23.3034C22.2087 23.3348 22.2325 23.3613 22.2622 23.3798C22.2918 23.3983 22.326 23.408 22.361 23.408C22.3959 23.4079 22.4301 23.3979 22.4597 23.3793C22.697 23.2291 22.9539 23.1374 23.2302 23.1041C23.0995 23.4194 22.9315 23.6746 22.7263 23.8695C22.7106 23.8841 22.6982 23.902 22.6899 23.9218C22.6816 23.9417 22.6776 23.9631 22.6781 23.9847C22.6827 24.1235 22.7526 24.1602 22.8879 24.0948C23.4246 23.8334 23.8397 23.4418 24.1332 22.9201C24.186 22.826 24.2244 22.8318 24.2485 22.9373C24.2519 22.9522 24.2479 22.9877 24.2364 23.0439C23.9062 24.7192 22.7159 25.7512 21.0561 26.0694C21.0057 26.0795 20.9597 26.1049 20.9243 26.1421C20.8889 26.1794 20.8658 26.2267 20.8583 26.2775C20.5935 28.1271 19.6652 29.467 18.0737 30.2971C16.9797 30.8665 16.4741 31.1503 15.9821 32.1238C15.9786 32.131 15.973 32.1371 15.9661 32.1412C15.9592 32.1453 15.9512 32.1473 15.9432 32.1469C15.9351 32.1465 15.9274 32.1438 15.9208 32.1391C15.9143 32.1344 15.9093 32.1279 15.9065 32.1203C15.4008 30.8579 14.0334 30.3539 13.1407 29.7089C13.1224 29.6953 13.1009 29.6867 13.0783 29.684C13.0556 29.6813 13.0327 29.6845 13.0117 29.6934C12.8156 29.7771 12.6597 29.9073 12.5439 30.0839C12.5268 30.1105 12.5162 30.1407 12.513 30.1721C12.5097 30.2035 12.5138 30.2351 12.5249 30.2645C12.8288 31.0568 12.6734 31.7288 12.0588 32.2803C11.982 32.348 11.9602 32.4305 11.9935 32.528C12.4045 33.7509 11.9745 34.9618 10.5676 34.9618C9.75115 34.9618 9.19101 34.5444 8.88714 33.7096C8.83898 33.5778 8.74495 33.5015 8.60506 33.4809C7.51114 33.3175 6.81626 32.9236 6.61846 31.7385C6.60126 31.6387 6.54278 31.5935 6.44302 31.6026C4.70754 31.7523 3.53106 30.1269 4.42202 28.5892C4.43565 28.566 4.44417 28.5401 4.44701 28.5133C4.44984 28.4865 4.44693 28.4595 4.43847 28.4339C4.43 28.4083 4.41617 28.3849 4.39791 28.3651C4.37965 28.3453 4.35738 28.3296 4.33258 28.3191C4.20186 28.263 4.04763 28.2068 3.8699 28.1506C2.84707 27.8295 2.37923 27.1163 2.46638 26.0109C2.55009 24.9422 3.08501 24.2846 4.07114 24.0381C4.34118 23.9693 4.66626 23.9951 4.9707 23.9607C5.02803 23.9549 5.07218 23.928 5.10314 23.8798C5.6415 23.0456 5.99066 22.478 7.06566 22.3473C7.12299 22.3404 7.16427 22.31 7.1895 22.2561C7.27664 22.0681 7.34602 21.8789 7.39762 21.6885C7.5765 21.0229 8.25762 20.2661 9.0299 20.457C9.04763 20.4612 9.06374 20.4704 9.07635 20.4836C9.08896 20.4967 9.09756 20.5132 9.10116 20.5312C9.10476 20.5492 9.10321 20.5679 9.09668 20.5853C9.09016 20.6026 9.07893 20.6177 9.0643 20.629C8.46001 21.0808 8.1441 21.6891 8.11658 22.4539C8.1152 22.4886 8.1207 22.5233 8.13277 22.5558C8.14484 22.5884 8.16324 22.6183 8.1869 22.6437C8.21057 22.6691 8.23903 22.6896 8.27065 22.704C8.30227 22.7183 8.33642 22.7263 8.37114 22.7274C8.5397 22.7332 8.63717 22.6535 8.66354 22.4883C8.67157 22.439 8.69049 22.3943 8.7203 22.3542C9.7179 21.0246 11.5927 21.219 12.2515 22.7498C12.3742 23.033 12.5249 23.0491 12.7038 22.7979L12.8913 22.5365C13.0415 22.3255 13.0633 22.1025 12.9567 21.8674C12.1414 20.0752 9.52526 19.3751 7.7915 20.0666C7.63555 20.1285 7.5656 20.0758 7.58166 19.9083L7.66078 19.1171C7.67683 18.9623 7.75882 18.8591 7.90674 18.8075C8.30922 18.6711 8.79541 18.6052 9.3653 18.6097C11.0543 18.6258 12.4154 19.2857 13.4486 20.5895C13.6687 20.867 13.8958 21.1737 14.1297 21.5097C14.1692 21.5665 14.2271 21.608 14.2939 21.6271C14.3606 21.6462 14.432 21.6418 14.4961 21.6146L14.5631 21.5871C14.7466 21.5079 14.765 21.4007 14.6182 21.2654C13.5191 20.2437 13.3712 19.2461 13.1596 17.9389C13.1562 17.9185 13.1576 17.8976 13.1638 17.8778C13.1699 17.8581 13.1806 17.84 13.195 17.8251C13.2094 17.8103 13.2271 17.799 13.2466 17.7921C13.2661 17.7853 13.287 17.7832 13.3075 17.7859C13.4451 17.8031 13.5478 17.8306 13.6154 17.8684C13.6613 18.0748 13.7502 18.2663 13.882 18.4429C14.0781 18.7026 14.4496 18.8144 14.6715 19.0931C14.9673 19.468 15.2288 19.7748 15.4558 20.0133C15.6244 20.1904 15.7517 20.4759 16.0165 20.6359C16.1473 20.715 16.2476 20.7167 16.3175 20.6411C16.3806 20.5711 16.4253 20.4536 16.4517 20.2885C16.6524 19.1269 16.2206 18.2841 15.1565 17.7601C15.0989 17.7318 15.0518 17.6856 15.0224 17.6283C14.993 17.571 14.9827 17.5056 14.9931 17.4419C15.1995 16.1897 15.4386 15.0098 16.2281 13.9984C16.7647 13.3116 17.5857 12.5261 18.6911 11.642C18.2118 12.3816 17.8323 13.143 17.5525 13.9262C17.5181 14.0225 17.5129 14.1211 17.537 14.222C17.5565 14.3046 17.5875 14.3092 17.6299 14.2358C17.7279 14.0707 17.752 13.8832 17.8466 13.7267C18.2296 13.0857 18.4882 12.5789 18.6223 12.2062C18.792 11.7326 18.9251 11.4041 19.0214 11.2206C20.1153 9.7999 21.2178 8.44798 22.9344 7.75138C23.0238 7.71469 23.0336 7.66309 22.9636 7.59658C22.92 7.5553 22.8455 7.53581 22.74 7.5381C21.0665 7.5725 19.6647 8.28458 18.3557 9.25638C15.8308 11.1312 14.8297 14.2289 14.398 17.1718C14.3922 17.211 14.3726 17.2468 14.3426 17.2727C14.3126 17.2986 14.2742 17.3129 14.2346 17.3129C13.7347 17.314 13.2296 17.3455 12.7193 17.4075C11.4551 17.5605 9.9501 17.4229 9.17438 16.2723C7.88438 14.3579 8.93874 11.7693 11.2573 11.4563C12.5955 11.2757 13.3867 11.8123 14.2415 12.7428C14.252 12.754 14.2652 12.7624 14.2799 12.7671C14.2945 12.7719 14.3101 12.7728 14.3252 12.7699C14.3403 12.767 14.3545 12.7603 14.3663 12.7505C14.3781 12.7406 14.3873 12.7279 14.3929 12.7136C14.6577 12.0187 15.0155 11.372 15.4661 10.7734C15.5923 10.6049 15.5533 10.4954 15.3492 10.4449C14.3424 10.1949 13.374 10.012 12.4441 9.89622C11.5531 9.785 10.9448 9.67205 10.6192 9.55738C8.6687 8.86766 7.05878 7.11154 6.35186 5.22298C5.9167 4.0551 5.8479 2.43658 5.66214 1.07262C5.65297 1.00038 5.68049 0.982038 5.7447 1.01758C6.61502 1.49746 7.20498 1.52154 8.42446 1.61098C10.1479 1.73998 12.1844 2.45206 13.3024 3.84182C14.2151 4.97932 14.8848 6.24696 15.3113 7.64474C15.5441 8.40957 15.7368 9.16924 15.8893 9.92374C15.8959 9.95623 15.9118 9.98611 15.935 10.0098C15.9582 10.0335 15.9877 10.0499 16.0201 10.0572C16.0524 10.0645 16.0862 10.0622 16.1173 10.0508C16.1484 10.0393 16.1755 10.0191 16.1954 9.99254C18.0169 7.58454 22.0469 5.35714 24.8143 7.6757C24.823 7.68307 24.8297 7.69257 24.8337 7.70324C24.8378 7.71391 24.839 7.72539 24.8372 7.73653C24.8355 7.74766 24.8309 7.75807 24.8238 7.76672C24.8168 7.77536 24.8076 7.78193 24.7971 7.78578C21.966 8.90034 20.418 10.985 19.6062 13.878C19.2175 15.2632 19.0959 16.6782 19.2415 18.123C19.2473 18.1757 19.2759 18.2027 19.3275 18.2038C20.6084 18.2463 21.7608 17.8965 22.7847 17.1546C22.7984 17.1449 22.8145 17.1391 22.8312 17.138C22.8479 17.1368 22.8645 17.1402 22.8792 17.148C22.8939 17.1557 22.9061 17.1673 22.9143 17.1816C22.9226 17.1958 22.9265 17.2121 22.9258 17.2286L22.9086 17.9802ZM9.00926 4.11702C10.4919 6.0331 12.0949 7.22678 14.3877 9.16006C14.4026 9.17268 14.4192 9.1744 14.4376 9.16522L14.5236 9.1205C14.5637 9.09872 14.5694 9.0712 14.5408 9.03794C13.4067 7.70437 12.6046 6.84896 12.1345 6.4717C11.1117 5.65298 10.1038 4.81649 9.11074 3.96222C9.06946 3.92782 8.99951 3.91808 8.9009 3.93298C8.85274 3.93986 8.84758 3.95878 8.88542 3.98974C8.93128 4.02758 8.97256 4.07001 9.00926 4.11702ZM11.7578 12.4487C11.3232 12.3937 10.8812 12.5284 10.4317 12.8529C9.25866 13.5942 9.33434 14.9977 10.184 15.9351C10.2442 16.0022 10.3457 16.0332 10.4265 16.0263C10.4438 16.0243 10.4602 16.0179 10.4744 16.0079C10.4885 15.9978 10.4998 15.9844 10.5072 15.9689C10.5146 15.9533 10.5179 15.9362 10.5167 15.9192C10.5156 15.9021 10.51 15.8857 10.5005 15.8715C10.0372 15.1674 9.92716 14.4433 10.1703 13.6991L10.5469 14.5557C10.5722 14.6153 10.6175 14.6423 10.6828 14.6365C10.9133 14.6176 11.1489 14.4233 11.2917 14.3545C11.6712 14.1721 11.939 13.9354 12.0949 13.6441C12.1936 13.4595 12.2062 13.1917 12.1328 12.8409L13.2061 13.3534C13.26 13.3798 13.2909 13.3632 13.2989 13.3035C13.307 13.2474 13.3041 13.1975 13.2903 13.1539C13.2674 13.084 13.2405 13.0358 13.2095 13.0094C12.8621 12.705 12.2377 12.3352 11.7578 12.4487ZM17.0245 13.5633C17.0061 13.5633 16.9883 13.5633 16.9711 13.5633C16.9627 13.5632 16.9543 13.5649 16.9466 13.5684C16.9389 13.5718 16.932 13.5769 16.9264 13.5833C16.9209 13.5897 16.9167 13.5972 16.9144 13.6053C16.912 13.6134 16.9114 13.622 16.9127 13.6303C16.9574 13.9055 16.7424 13.9434 16.7045 14.1532C16.6805 14.2862 16.7028 14.2948 16.7716 14.179C16.8163 14.1022 16.8731 14.0386 16.9419 13.9881C16.9843 13.9571 17.0141 13.9159 17.0313 13.8643C17.0669 13.753 17.134 13.6642 17.2326 13.5977C17.2486 13.5873 17.2567 13.5719 17.2567 13.5512C17.2567 13.5352 17.2567 13.5191 17.2567 13.5031C17.2578 13.4434 17.2297 13.4228 17.1724 13.4411C17.1162 13.4606 17.0755 13.4956 17.0503 13.5461C17.0445 13.5575 17.0359 13.5633 17.0245 13.5633ZM14.3189 26.6628C14.3521 26.7969 14.4169 26.9259 14.5133 27.0498C14.55 27.0956 14.5981 27.1151 14.6577 27.1083C14.7449 27.0968 14.7994 27.0504 14.8211 26.9689C14.8372 26.907 14.8722 26.8594 14.9261 26.8262C15.16 26.6765 15.3629 26.5475 15.6433 26.4392C16.04 26.2844 16.3766 26.0619 16.6529 25.7718C16.7263 25.695 16.8037 25.6423 16.8851 25.6136C16.9425 25.5929 16.9757 25.5522 16.9849 25.4915C16.9998 25.4066 17.0445 25.3493 17.1191 25.3195C17.1741 25.2988 17.2131 25.2604 17.236 25.2042C17.3232 24.9864 17.5233 24.7117 17.8363 24.3803C18.0198 24.1843 18.0272 23.9945 17.8587 23.811C17.697 23.5037 17.4722 23.2537 17.1844 23.0611C17.173 23.0531 17.1712 23.0433 17.1793 23.0319V23.0301C17.1861 23.0175 17.1959 23.0152 17.2085 23.0233C18.6241 23.8351 19.558 24.8619 19.4548 26.5372C19.4546 26.5388 19.4547 26.5404 19.4551 26.542C19.4555 26.5435 19.4562 26.545 19.4571 26.5462C19.4581 26.5475 19.4593 26.5486 19.4607 26.5494C19.462 26.5502 19.4636 26.5508 19.4651 26.551C19.4667 26.5512 19.4683 26.5511 19.4699 26.5507C19.4714 26.5503 19.4729 26.5496 19.4742 26.5487C19.4754 26.5477 19.4765 26.5465 19.4773 26.5451C19.4781 26.5438 19.4787 26.5422 19.4789 26.5407C19.4978 26.391 19.5666 26.262 19.5821 26.1158C19.7312 24.6183 19.2456 23.5117 18.1253 22.7962C15.2821 20.9816 11.8748 23.6665 12.9326 26.9139C13.1447 27.5664 13.5208 28.0577 14.0609 28.3879C14.1526 28.4441 14.1738 28.4241 14.1245 28.3277C13.9835 28.0543 13.7513 27.7739 13.6515 27.5365C13.1906 26.4375 13.2061 24.7329 14.2277 23.9056C14.2759 23.8666 14.2914 23.877 14.2742 23.9366C14.0093 24.8413 14.0242 25.75 14.3189 26.6628ZM9.55622 24.1499C9.84977 24.2278 10.2012 24.1648 10.6106 23.9607C10.8703 23.8317 11.2367 23.5633 11.2195 23.2331C11.2103 23.0508 11.1575 22.9527 11.0612 22.939C10.0877 21.7935 8.99894 22.9407 9.55622 24.1499ZM6.18846 25.2386C6.23547 25.3109 6.29338 25.3659 6.36218 25.4037C6.41492 25.4324 6.46079 25.4244 6.49978 25.3797L6.64942 25.2145C6.68611 25.1733 6.73198 25.1498 6.78702 25.144C7.52318 25.0626 7.97726 24.6699 8.14926 23.9658C7.11554 22.8203 5.39554 23.7336 6.18846 25.2386ZM3.89742 26.9449C4.46674 27.6157 4.97586 26.6748 5.21666 26.1227C5.23959 26.0688 5.24074 26.0149 5.2201 25.961L4.87954 25.0339C4.00005 24.9158 3.54826 25.3556 3.52418 26.3532C3.51959 26.5435 3.644 26.7408 3.89742 26.9449ZM9.23286 27.4024C9.55736 27.5159 9.879 27.4448 10.1978 27.1891C10.2838 27.1203 10.4655 26.993 10.743 26.8073C11.1283 26.5527 11.1036 26.1852 10.6691 25.7047C9.40314 24.7966 8.15786 26.1571 9.23286 27.4024ZM6.62706 27.8633C6.76695 27.7934 6.91086 27.7303 7.05878 27.6741C7.11611 27.6535 7.16542 27.6202 7.2067 27.5744C7.33283 27.4322 7.48075 27.3164 7.65046 27.2269C7.67649 27.213 7.69871 27.1929 7.71518 27.1684C7.73165 27.1439 7.74186 27.1157 7.74491 27.0864C7.74797 27.057 7.74378 27.0273 7.73271 27C7.72164 26.9726 7.70403 26.9484 7.68142 26.9294C6.63566 26.0573 5.37834 26.9345 5.9597 28.2125C6.07781 28.4716 6.17355 28.4636 6.24694 28.1884C6.2756 28.0852 6.40231 27.9769 6.62706 27.8633ZM8.86134 29.7571L9.75574 29.1086C9.79763 29.078 9.82569 29.032 9.83375 28.9808C9.8418 28.9295 9.82922 28.8771 9.79874 28.8351L9.77638 28.8059C9.6577 28.6426 9.48273 28.5304 9.28989 28.494C9.09705 28.4576 8.90209 28.4998 8.74782 28.6115L8.69966 28.6459C8.54566 28.7582 8.44521 28.9307 8.42038 29.1255C8.39554 29.3203 8.44836 29.5215 8.56722 29.6848L8.58786 29.7141C8.61848 29.756 8.66445 29.784 8.71571 29.7921C8.76697 29.8001 8.81934 29.7875 8.86134 29.7571ZM5.42447 30.1819C5.46962 30.1823 5.51351 30.1277 5.54646 30.03C5.57942 29.9323 5.59875 29.7995 5.6002 29.6608C5.60165 29.5221 5.58511 29.389 5.5542 29.2906C5.5233 29.1922 5.48057 29.1367 5.43541 29.1362C5.39025 29.1357 5.34637 29.1904 5.31341 29.2881C5.28046 29.3858 5.26113 29.5186 5.25968 29.6572C5.25822 29.7959 5.27477 29.9291 5.30567 30.0275C5.33658 30.1259 5.37931 30.1814 5.42447 30.1819ZM9.05575 31.2808C8.98401 31.1382 8.84997 31.0342 8.68311 30.9918C8.51625 30.9493 8.33024 30.9719 8.16601 31.0545C8.08469 31.0954 8.01116 31.1498 7.94962 31.2146C7.88808 31.2794 7.83974 31.3534 7.80735 31.4322C7.77497 31.5111 7.75917 31.5933 7.76087 31.6742C7.76257 31.7551 7.78172 31.8331 7.81725 31.9038C7.88899 32.0464 8.02303 32.1504 8.18989 32.1928C8.35675 32.2353 8.54275 32.2127 8.70698 32.1301C8.78831 32.0892 8.86184 32.0348 8.92338 31.97C8.98491 31.9052 9.03326 31.8312 9.06564 31.7524C9.09803 31.6735 9.11382 31.5913 9.11212 31.5104C9.11043 31.4295 9.09127 31.3515 9.05575 31.2808ZM9.9071 33.5531C10.4437 33.8317 11.0543 33.7303 10.8548 32.9683C10.4592 32.2975 9.57342 32.7825 9.9071 33.5531Z" fill="#FDFEFE"/>
<path d="M16.634 7.79432C16.2453 6.78984 15.8084 5.49812 16.5549 4.5418C16.9058 4.09288 17.5714 3.7764 18.084 3.4324C18.0934 3.42609 18.104 3.42187 18.1152 3.42002C18.1263 3.41816 18.1377 3.41872 18.1487 3.42165C18.1596 3.42459 18.1697 3.42983 18.1785 3.43702C18.1872 3.44422 18.1943 3.4532 18.1992 3.46336C18.7204 4.49536 18.9732 5.86964 18.1373 6.7864C17.9458 6.99509 17.5038 7.38726 16.8112 7.96288C16.7722 7.99614 16.7389 7.99097 16.7114 7.9474C16.6793 7.89465 16.6535 7.84363 16.634 7.79432ZM16.9731 6.86996C16.9861 6.8741 17.0189 6.81454 17.0642 6.7044C17.1095 6.59427 17.1636 6.44256 17.2147 6.28265C17.2399 6.20345 17.2637 6.12463 17.2846 6.05068C17.3054 5.97673 17.323 5.90909 17.3364 5.85164C17.3497 5.79419 17.3584 5.74805 17.3621 5.71584C17.3658 5.68364 17.3644 5.66601 17.3579 5.66396C17.3449 5.65982 17.3121 5.71938 17.2668 5.82952C17.2215 5.93966 17.1674 6.09137 17.1163 6.25128C17.0911 6.33047 17.0673 6.40929 17.0464 6.48324C17.0256 6.55719 17.008 6.62483 16.9947 6.68228C16.9814 6.73973 16.9726 6.78588 16.9689 6.81808C16.9652 6.85028 16.9666 6.86791 16.9731 6.86996Z" fill="#FDFEFE"/>
<path d="M19.4926 5.16459L20.4558 4.18247C20.4736 4.16446 20.4962 4.15185 20.5208 4.14609C20.5455 4.14034 20.5712 4.14167 20.5952 4.14995C20.6191 4.15822 20.6402 4.1731 20.656 4.19285C20.6718 4.21261 20.6817 4.23644 20.6846 4.26159L20.8497 5.81475C20.8523 5.83902 20.8482 5.86353 20.8379 5.88566C20.8276 5.90778 20.8115 5.92668 20.7912 5.94031L19.4634 6.83643C19.442 6.85093 19.4168 6.85891 19.3909 6.85943C19.365 6.85994 19.3396 6.85296 19.3176 6.83933C19.2956 6.82569 19.278 6.80598 19.2669 6.78258C19.2559 6.75918 19.2518 6.73308 19.2553 6.70743L19.4565 5.24027C19.4602 5.21183 19.4728 5.18531 19.4926 5.16459Z" fill="#FDFEFE"/>
<path d="M17.1163 6.25131C17.0101 6.58433 16.9459 6.86133 16.9731 6.86999C17.0002 6.87866 17.1084 6.61571 17.2147 6.28268C17.3209 5.94966 17.3851 5.67266 17.3579 5.664C17.3308 5.65534 17.2226 5.91828 17.1163 6.25131Z" fill="#FDFEFE"/>
<path d="M3.45707 7.23704C5.39379 7.1562 6.58403 8.09016 7.74159 9.504C8.20599 10.0716 8.66351 10.7785 9.27411 11.2016C9.29253 11.2147 9.30737 11.2322 9.31723 11.2525C9.32708 11.2728 9.33162 11.2952 9.33042 11.3176C9.32921 11.34 9.3223 11.3617 9.31034 11.3805C9.29837 11.3993 9.28176 11.4147 9.26207 11.4252C7.27203 12.4934 4.08831 13.0317 2.34423 11.1913C1.37071 10.161 0.916627 9.22708 0.128867 8.257C0.118341 8.24442 0.111085 8.22945 0.107721 8.21337C0.104357 8.1973 0.104986 8.1806 0.10955 8.16471C0.114115 8.14882 0.12248 8.13421 0.133932 8.12212C0.145384 8.11004 0.159581 8.10084 0.175307 8.09532C1.21763 7.73756 2.44399 7.28004 3.45707 7.23704ZM3.58263 9.33544C3.58721 9.42603 3.63079 9.48967 3.71335 9.52636C5.07387 10.137 6.46363 10.911 7.90155 11.2446C7.97952 11.263 8.07928 11.2452 8.20083 11.1913C8.24899 11.1707 8.24842 11.1512 8.19911 11.1328C7.57131 10.9092 7.01059 10.6031 6.41719 10.309C5.55031 9.87896 4.59055 9.60032 3.67207 9.20128C3.66152 9.19651 3.64992 9.19455 3.6384 9.19559C3.62687 9.19662 3.6158 9.20063 3.60628 9.20721C3.59676 9.21378 3.5891 9.22272 3.58405 9.23313C3.579 9.24354 3.57673 9.25509 3.57747 9.26664L3.58263 9.33544Z" fill="#FDFEFE"/>
<path d="M20.3836 16.0676C20.8583 12.0944 23.8993 8.07647 28.287 8.19859C29.4446 8.22955 30.6469 8.44627 31.7735 8.08163C31.8916 8.04264 31.9466 8.08507 31.9386 8.20891C31.8503 9.56886 31.5459 10.9116 31.0253 12.2371C30.4215 13.7714 28.5244 15.1612 27.0503 15.6892C26.547 15.8692 25.8131 16.0108 24.8487 16.114C23.2681 16.2843 21.8663 16.3755 20.2495 16.9345C20.2384 16.9384 20.2265 16.9391 20.2151 16.9366C20.2036 16.934 20.1932 16.9282 20.1849 16.9199C20.1766 16.9116 20.1708 16.9012 20.1683 16.8897C20.1657 16.8783 20.1664 16.8664 20.1703 16.8554C20.2649 16.5802 20.3492 16.3566 20.3836 16.0676ZM23.2956 12.8374C23.2807 12.8994 23.2434 12.9418 23.1838 12.9647C23.0898 12.9991 23.0204 13.0616 22.9757 13.1522C22.9733 13.1571 22.972 13.1623 22.9718 13.1677C22.9716 13.173 22.9726 13.1783 22.9745 13.1832C22.9765 13.1881 22.9794 13.1925 22.9832 13.196C22.9869 13.1996 22.9914 13.2022 22.9963 13.2038L23.0617 13.2227C23.0756 13.2275 23.0909 13.227 23.1045 13.2213C23.1182 13.2156 23.1292 13.2051 23.1356 13.1918C23.2853 12.8804 23.5347 12.8684 23.7411 12.7325C24.1665 12.4516 24.5936 12.1724 25.0225 11.8949C25.9685 11.2825 27.0125 10.8336 28.0307 10.3451C28.6861 10.0287 29.8144 9.68811 30.5935 9.12051C30.7793 8.9852 30.7569 8.91927 30.5265 8.92271C29.6372 8.93475 28.6121 8.81263 27.8243 8.89175C25.4267 9.13427 23.4005 10.5378 22.3616 12.717C22.3582 12.7251 22.3593 12.7319 22.3651 12.7377C22.3788 12.7526 22.3949 12.7652 22.4132 12.7755C22.4419 12.7904 22.4683 12.7875 22.4923 12.7669C22.7251 12.5651 22.99 12.4344 23.287 12.3748C23.2999 12.3722 23.3132 12.3728 23.3258 12.3767C23.3384 12.3805 23.3498 12.3875 23.3591 12.3969C23.3683 12.4063 23.375 12.4178 23.3786 12.4305C23.3823 12.4431 23.3827 12.4565 23.3799 12.4694L23.2956 12.8374ZM23.5071 13.8987C23.3902 14.0409 23.2371 14.1618 23.0479 14.2616C23.0391 14.2662 23.0318 14.2732 23.0267 14.2816C23.0215 14.2901 23.0187 14.2998 23.0187 14.3098C23.0187 14.3258 23.0181 14.3424 23.0169 14.3596C23.0169 14.3649 23.0183 14.3702 23.0212 14.3747C23.024 14.3792 23.0281 14.3827 23.0328 14.3848C23.0375 14.3869 23.0427 14.3874 23.0475 14.3863C23.0524 14.3851 23.0567 14.3824 23.0599 14.3785C23.2285 14.2077 23.4028 14.1028 23.5828 14.0638C23.8087 13.9308 24.3545 13.6229 25.2203 13.1402C26.1961 12.5955 27.3462 11.8857 28.6706 11.0108C28.6858 11.0006 28.697 10.9853 28.702 10.9677C28.7071 10.95 28.7057 10.9312 28.6981 10.9145L28.674 10.8629C28.6454 10.7998 28.6001 10.7843 28.5381 10.8164C26.934 11.6707 25.4083 12.5553 23.9612 13.4704C23.7743 13.5885 23.623 13.7313 23.5071 13.8987Z" fill="#FDFEFE"/>
<path d="M19.0213 11.2207C18.925 11.4042 18.792 11.7327 18.6223 12.2063C18.4881 12.5789 18.2296 13.0858 17.8466 13.7267C17.752 13.8833 17.7279 14.0707 17.6298 14.2359C17.5874 14.3092 17.5565 14.3047 17.537 14.2221C17.5129 14.1212 17.518 14.0226 17.5524 13.9263C17.8322 13.1431 18.2118 12.3817 18.6911 11.6421C18.7392 11.5114 18.8493 11.3709 19.0213 11.2207Z" fill="#FDFEFE"/>
<path d="M11.7578 12.4487C11.8575 12.6334 11.9825 12.7641 12.1327 12.8409C12.2061 13.1918 12.1935 13.4595 12.0949 13.6441C11.939 13.9354 11.6712 14.1722 11.2917 14.3545C11.1489 14.4233 10.9133 14.6177 10.6828 14.6366C10.6174 14.6423 10.5721 14.6154 10.5469 14.5557L10.1702 13.6992L10.4317 12.8529C10.8812 12.5284 11.3232 12.3937 11.7578 12.4487Z" fill="#FDFEFE"/>
<path d="M7.57134 13.9538C6.49634 15.4278 5.2803 17.2373 3.11998 16.1279C2.72782 15.9261 2.32592 15.7214 1.91426 15.5138C1.85578 15.484 1.84661 15.4433 1.88674 15.3917C2.0897 15.1257 2.29438 14.8614 2.50078 14.5988C3.83378 12.9011 5.71718 13.3913 7.50598 13.7835C7.52377 13.7872 7.54034 13.7953 7.55418 13.807C7.56802 13.8188 7.57868 13.8338 7.58519 13.8508C7.5917 13.8677 7.59384 13.8861 7.59142 13.9041C7.589 13.9221 7.5821 13.9392 7.57134 13.9538ZM6.40673 14.2725C6.40484 14.2653 6.37759 14.265 6.32656 14.2715C6.27554 14.278 6.20172 14.2913 6.10933 14.3106C6.01694 14.3299 5.90778 14.3548 5.7881 14.384C5.66842 14.4131 5.54056 14.4458 5.41181 14.4803C5.28309 14.5148 5.156 14.5504 5.03782 14.585C4.91963 14.6196 4.81265 14.6526 4.72299 14.6821C4.63333 14.7116 4.56275 14.737 4.51527 14.7568C4.46779 14.7767 4.44435 14.7906 4.44628 14.7978C4.44818 14.805 4.47542 14.8053 4.52645 14.7988C4.57748 14.7923 4.65129 14.779 4.74368 14.7597C4.83607 14.7404 4.94522 14.7154 5.0649 14.6863C5.18458 14.6572 5.31245 14.6245 5.44119 14.59C5.56992 14.5555 5.697 14.5199 5.81519 14.4853C5.93338 14.4507 6.04036 14.4177 6.13002 14.3882C6.21968 14.3587 6.29026 14.3333 6.33774 14.3135C6.38522 14.2936 6.40866 14.2797 6.40673 14.2725Z" fill="#FDFEFE"/>
<path d="M17.0503 13.546C17.0755 13.4955 17.1162 13.4605 17.1724 13.441C17.2297 13.4227 17.2578 13.4433 17.2567 13.503C17.2567 13.519 17.2567 13.5351 17.2567 13.5511C17.2567 13.5718 17.2486 13.5872 17.2326 13.5976C17.134 13.6641 17.0669 13.7529 17.0314 13.8642C17.0142 13.9158 16.9843 13.957 16.9419 13.988C16.8731 14.0385 16.8164 14.1021 16.7716 14.1789C16.7028 14.2947 16.6805 14.2861 16.7046 14.1531C16.7424 13.9433 16.9574 13.9054 16.9127 13.6302C16.9114 13.6219 16.912 13.6133 16.9144 13.6052C16.9168 13.5971 16.9209 13.5896 16.9264 13.5832C16.932 13.5768 16.9389 13.5717 16.9466 13.5683C16.9543 13.5648 16.9627 13.5631 16.9712 13.5632C16.9884 13.5632 17.0061 13.5632 17.0245 13.5632C17.0359 13.5632 17.0445 13.5574 17.0503 13.546Z" fill="#FDFEFE"/>
<path d="M23.5828 14.0637C23.4028 14.1027 23.2285 14.2076 23.0599 14.3784C23.0567 14.3823 23.0523 14.385 23.0475 14.3861C23.0426 14.3873 23.0375 14.3867 23.0328 14.3847C23.028 14.3826 23.024 14.3791 23.0212 14.3746C23.0183 14.37 23.0168 14.3648 23.0169 14.3595C23.0181 14.3423 23.0186 14.3257 23.0186 14.3096C23.0187 14.2997 23.0215 14.29 23.0266 14.2815C23.0318 14.2731 23.0391 14.2661 23.0479 14.2615C23.2371 14.1617 23.3902 14.0407 23.5071 13.8986L23.6292 13.871C23.6934 13.8561 23.7135 13.8796 23.6894 13.9416C23.6734 13.9794 23.6378 14.0201 23.5828 14.0637Z" fill="#FDFEFE"/>
<path d="M5.44118 14.5899C5.98254 14.4449 6.41483 14.3027 6.40671 14.2724C6.3986 14.2422 5.95316 14.3352 5.4118 14.4803C4.87044 14.6253 4.43816 14.7675 4.44627 14.7977C4.45438 14.828 4.89982 14.735 5.44118 14.5899Z" fill="#FDFEFE"/>
<path d="M4.47703 22.0773C3.16639 22.4695 2.1705 22.9614 1.39478 24.1258C1.2354 24.3655 1.13449 24.3431 1.09207 24.0587C0.691305 21.3635 1.74739 18.4498 4.55443 17.6001C5.49125 17.3169 6.43611 17.0566 7.38899 16.8193C7.40232 16.8159 7.41632 16.8161 7.42953 16.82C7.44274 16.8238 7.45469 16.8311 7.46415 16.8411C7.47361 16.8511 7.48024 16.8634 7.48336 16.8768C7.48647 16.8902 7.48595 16.9042 7.48186 16.9173C7.29037 17.5227 7.13328 18.1402 7.01059 18.7697C6.84547 19.6148 6.68895 20.1755 6.54103 20.4519C6.11332 21.2511 5.42532 21.7929 4.47703 22.0773ZM3.86127 20.4192L5.19943 19.2771C5.20766 19.2701 5.214 19.2611 5.2179 19.251C5.2218 19.2409 5.22313 19.23 5.22177 19.2192C5.2204 19.2085 5.21639 19.1983 5.21009 19.1895C5.20379 19.1806 5.19539 19.1735 5.18567 19.1688C5.12604 19.1401 5.10769 19.143 5.13062 19.1774L6.42578 17.6689C6.56912 17.5015 6.53529 17.4511 6.32431 17.5176C5.32441 17.8295 4.51429 18.4315 3.89394 19.3236C3.59466 19.7553 3.39515 20.3195 3.17499 20.8337C3.15091 20.8888 3.16237 20.9364 3.20938 20.9765L3.24207 21.004C3.28908 21.043 3.32807 21.0361 3.35903 20.9834C3.49777 20.7518 3.66519 20.5637 3.86127 20.4192Z" fill="#FDFEFE"/>
<path d="M26.8336 17.6551C27.314 17.8431 27.8392 18.1682 28.4091 18.6303C30.5969 20.4036 30.9891 23.3311 29.8401 25.8096C29.8325 25.8266 29.8201 25.8411 29.8045 25.8513C29.7889 25.8616 29.7707 25.8672 29.7519 25.8676C29.7331 25.8679 29.7144 25.863 29.6981 25.8534C29.6818 25.8437 29.6684 25.8298 29.6595 25.813C28.9991 24.5506 28.0548 24.1085 26.8181 23.4016C25.8859 22.8684 25.2581 22.1873 24.8745 21.1794C24.8034 20.9902 24.6905 20.4174 24.5357 19.4611C24.4084 18.6722 24.1945 17.9033 23.8941 17.1546C23.8902 17.1441 23.889 17.1328 23.8909 17.1218C23.8927 17.1108 23.8974 17.1005 23.9044 17.092C23.9115 17.0836 23.9206 17.0773 23.9309 17.0737C23.9412 17.0702 23.9523 17.0696 23.9629 17.072C24.9571 17.2732 25.7603 17.232 26.8336 17.6551ZM27.9774 22.0806L28.0238 22.0703C28.0995 22.0554 28.1333 22.0096 28.1253 21.9327C28.0049 20.7425 27.642 19.2788 26.7424 18.4738C26.3726 18.1436 25.6279 17.6534 25.1015 17.6224C25.0791 17.6209 25.0567 17.6265 25.0376 17.6383C25.0184 17.6501 25.0035 17.6676 24.9949 17.6883C24.9863 17.7089 24.9845 17.7316 24.9897 17.7531C24.995 17.7747 25.007 17.7939 25.0241 17.8082C25.2598 18.0111 25.4696 18.2089 25.6519 18.4772C26.1519 19.2214 26.6954 19.9318 27.2825 20.6083C27.5382 20.903 27.74 21.3743 27.8879 22.0222C27.8925 22.0415 27.9043 22.0584 27.9209 22.0693C27.9376 22.0802 27.9578 22.0843 27.9774 22.0806Z" fill="#FDFEFE"/>
<path d="M13.6154 17.8684C14.1899 17.928 14.6744 18.1104 15.0688 18.4154C15.6571 18.8694 16.118 19.4938 16.4517 20.2884C16.4253 20.4536 16.3806 20.5711 16.3175 20.641C16.2476 20.7167 16.1473 20.715 16.0165 20.6359C15.7517 20.4759 15.6244 20.1904 15.4558 20.0132C15.2288 19.7747 14.9673 19.468 14.6715 19.093C14.4496 18.8144 14.0781 18.7026 13.882 18.4429C13.7502 18.2663 13.6613 18.0748 13.6154 17.8684Z" fill="#FDFEFE"/>
<path d="M22.9085 17.9803C22.9739 18.5662 22.9475 19.1229 22.8294 19.6504C22.1735 20.4714 21.4293 21.0637 20.5969 21.4271C20.0166 21.6806 19.382 21.7293 18.6928 21.5733C18.6653 21.5665 18.6464 21.5556 18.6361 21.5407C18.6292 21.5292 18.6257 21.5143 18.6257 21.4959C18.6269 21.4765 18.6366 21.4667 18.655 21.4667C18.9783 21.4713 19.2621 21.375 19.5064 21.1777C19.55 21.1422 19.5993 21.1198 19.6543 21.1107C19.8401 21.0774 20.0006 20.996 20.1359 20.8664C20.1657 20.8378 20.1812 20.8034 20.1823 20.7632C20.1823 20.7495 20.1823 20.7351 20.1823 20.7202C20.1823 20.6973 20.1714 20.6893 20.1497 20.6961C20.0143 20.7397 19.9415 20.7305 19.9312 20.6686C20.2701 20.4708 20.86 20.3693 21.0509 19.8912C21.0716 19.8384 21.1043 19.7943 21.149 19.7587C21.681 19.3379 22.0956 18.8328 22.3925 18.2434C22.3788 18.0657 22.5508 17.978 22.9085 17.9803Z" fill="#FDFEFE"/>
<path d="M22.3926 18.2434C22.0956 18.8328 21.681 19.3379 21.149 19.7588C21.1043 19.7943 21.0716 19.8385 21.051 19.8912C20.86 20.3694 20.2701 20.4708 19.9312 20.6686C19.6079 20.8613 19.3252 20.9628 19.0833 20.9731C18.878 20.9811 18.8688 20.9421 19.0558 20.8561L20.418 20.2266C20.4329 20.2197 20.4404 20.2088 20.4404 20.1939V20.1372C20.4404 20.0844 20.4151 20.0666 20.3647 20.0838C19.2278 20.4708 17.6419 20.6858 16.6908 21.7763C16.6403 21.8348 16.6082 21.8256 16.5944 21.7488C16.5795 21.6639 16.5927 21.5602 16.634 21.4375C17.7761 20.1784 19.3241 19.948 20.8858 19.5059C21.4832 19.3362 21.9196 18.9446 22.1948 18.3312C22.2636 18.2715 22.3295 18.2423 22.3926 18.2434Z" fill="#FDFEFE"/>
<path d="M5.13063 19.1773C5.10769 19.1429 5.12604 19.14 5.18567 19.1687C5.19539 19.1735 5.20379 19.1806 5.21009 19.1894C5.21639 19.1982 5.2204 19.2084 5.22177 19.2192C5.22313 19.2299 5.2218 19.2408 5.2179 19.2509C5.214 19.2611 5.20766 19.27 5.19943 19.2771L3.86127 20.4192L5.13063 19.1773Z" fill="#FDFEFE"/>
<path d="M23.2302 23.1042C22.9538 23.1374 22.697 23.2292 22.4596 23.3794C22.4301 23.398 22.3959 23.408 22.361 23.408C22.326 23.4081 22.2918 23.3984 22.2621 23.3799C22.2325 23.3614 22.2087 23.3349 22.1934 23.3035C22.1782 23.272 22.1721 23.2369 22.1758 23.2022L22.2395 22.6518C22.8483 21.8727 23.0307 21.2621 23.3695 20.4571C23.4074 20.3654 23.4377 20.3682 23.4607 20.4657C23.6785 21.3979 23.6017 22.2774 23.2302 23.1042Z" fill="#FDFEFE"/>
<path d="M17.8586 23.8111C17.6454 24.7451 17.0554 24.8758 16.4534 25.3729C16.2401 25.55 15.9288 25.6464 15.7929 25.9904C15.7924 25.9918 15.7915 25.9932 15.7904 25.9943C15.7893 25.9954 15.7879 25.9962 15.7865 25.9967C15.785 25.9972 15.7834 25.9974 15.7818 25.9972C15.7802 25.997 15.7788 25.9964 15.7774 25.9955L15.731 25.9714C15.7135 25.9619 15.6939 25.9568 15.6738 25.9565C15.6537 25.9562 15.6338 25.9607 15.6158 25.9697L14.8056 26.355C14.7598 26.3768 14.7242 26.41 14.699 26.4548C14.6142 26.6038 14.4874 26.6732 14.3189 26.6629C14.0242 25.7501 14.0093 24.8414 14.2742 23.9367C14.2914 23.8771 14.2759 23.8667 14.2277 23.9057C13.206 24.733 13.1906 26.4376 13.6515 27.5366C13.7513 27.774 13.9835 28.0544 14.1245 28.3278C14.1738 28.4242 14.1526 28.4442 14.0609 28.388C13.5208 28.0578 13.1447 27.5665 12.9326 26.914C11.8748 23.6666 15.2821 20.9817 18.1252 22.7963C19.2455 23.5118 19.7312 24.6184 19.5821 26.1159C19.5666 26.2621 19.4978 26.3911 19.4789 26.5408C19.4787 26.5423 19.4781 26.5439 19.4773 26.5452C19.4765 26.5466 19.4754 26.5478 19.4741 26.5488C19.4729 26.5497 19.4714 26.5504 19.4699 26.5508C19.4683 26.5512 19.4667 26.5513 19.4651 26.5511C19.4635 26.5509 19.462 26.5503 19.4606 26.5495C19.4593 26.5487 19.4581 26.5476 19.4571 26.5463C19.4562 26.5451 19.4555 26.5436 19.4551 26.5421C19.4547 26.5405 19.4546 26.5389 19.4548 26.5373C19.558 24.862 18.624 23.8352 17.2085 23.0234C17.1959 23.0153 17.1861 23.0176 17.1792 23.0302V23.032C17.1712 23.0434 17.1729 23.0532 17.1844 23.0612C17.4722 23.2538 17.697 23.5038 17.8586 23.8111Z" fill="#FDFEFE"/>
<path d="M11.0612 22.9389C10.8433 23.0122 10.5538 23.1435 10.1926 23.3327C9.83255 23.5219 9.62041 23.7943 9.5562 24.1497C8.99892 22.9406 10.0877 21.7933 11.0612 22.9389Z" fill="#FDFEFE"/>
<path d="M11.0612 22.939C11.1575 22.9527 11.2103 23.0508 11.2195 23.2331C11.2367 23.5633 10.8703 23.8316 10.6106 23.9606C10.2012 24.1648 9.84976 24.2278 9.55621 24.1498C9.62043 23.7944 9.83256 23.522 10.1926 23.3328C10.5538 23.1436 10.8433 23.0124 11.0612 22.939Z" fill="#FDFEFE"/>
<path d="M20.9219 23.3777L21.1077 23.4379C20.9861 23.5365 20.8761 23.5852 20.7774 23.5841C20.7385 23.5829 20.7327 23.5686 20.7602 23.5411L20.9219 23.3777Z" fill="#FDFEFE"/>
<path d="M8.14924 23.9657C7.5008 24.0053 7.27204 24.0276 6.84892 24.5402C6.81682 24.5792 6.77554 24.601 6.72508 24.6056L6.5548 24.6176C6.52271 24.6195 6.49239 24.6329 6.46935 24.6553C6.4463 24.6778 6.43207 24.7077 6.42924 24.7397C6.39484 25.0826 6.31458 25.2488 6.18844 25.2385C5.39552 23.7335 7.11552 22.8202 8.14924 23.9657Z" fill="#FDFEFE"/>
<path d="M17.8586 23.811C18.0272 23.9945 18.0197 24.1843 17.8362 24.3804C17.5232 24.7117 17.3231 24.9864 17.236 25.2042C17.213 25.2604 17.174 25.2988 17.119 25.3195C17.0445 25.3493 16.9998 25.4066 16.9849 25.4915C16.9757 25.5522 16.9424 25.593 16.8851 25.6136C16.8037 25.6423 16.7263 25.695 16.6529 25.7718C16.3765 26.0619 16.04 26.2844 15.6432 26.4392C15.3629 26.5476 15.1599 26.6766 14.926 26.8262C14.8721 26.8594 14.8371 26.907 14.8211 26.969C14.7993 27.0504 14.7448 27.0968 14.6577 27.1083C14.5981 27.1152 14.5499 27.0957 14.5132 27.0498C14.4169 26.926 14.3521 26.797 14.3188 26.6628C14.4874 26.6731 14.6141 26.6037 14.699 26.4547C14.7242 26.41 14.7597 26.3767 14.8056 26.3549L15.6157 25.9696C15.6338 25.9606 15.6537 25.9561 15.6738 25.9564C15.6938 25.9567 15.7134 25.9618 15.731 25.9714L15.7774 25.9954C15.7787 25.9963 15.7802 25.9969 15.7818 25.9971C15.7833 25.9973 15.7849 25.9971 15.7864 25.9966C15.7879 25.9962 15.7893 25.9953 15.7904 25.9942C15.7915 25.9931 15.7924 25.9918 15.7929 25.9903C15.9288 25.6463 16.2401 25.55 16.4534 25.3728C17.0554 24.8757 17.6453 24.745 17.8586 23.811Z" fill="#FDFEFE"/>
<path d="M8.14921 23.9658C7.97721 24.6699 7.52313 25.0626 6.78697 25.144C6.73193 25.1498 6.68607 25.1733 6.64937 25.2145L6.49974 25.3797C6.46075 25.4244 6.41488 25.4324 6.36213 25.4037C6.29333 25.3659 6.23543 25.3109 6.18842 25.2386C6.31455 25.2489 6.39481 25.0827 6.42921 24.7398C6.43204 24.7078 6.44627 24.6779 6.46932 24.6554C6.49236 24.633 6.52269 24.6196 6.55477 24.6177L6.72505 24.6057C6.77551 24.6011 6.81679 24.5793 6.84889 24.5403C7.27201 24.0277 7.50077 24.0054 8.14921 23.9658Z" fill="#FDFEFE"/>
<path d="M23.1236 27.7894C22.8667 27.6793 22.6425 27.7177 22.451 27.9046C22.3088 28.0422 22.2538 28.0141 22.2859 27.8204C22.482 26.6209 23.1855 25.9324 24.3964 25.7546C24.5454 25.7328 24.5942 25.6514 24.5426 25.5104C24.4416 25.2363 24.4359 24.9611 24.5254 24.6848C24.5575 24.5873 24.6056 24.5782 24.6698 24.6573L25.2478 25.3573C25.2837 25.4007 25.3303 25.4341 25.3829 25.4541C25.4356 25.474 25.4926 25.48 25.5483 25.4713C25.6039 25.4626 25.6564 25.4396 25.7005 25.4046C25.7446 25.3695 25.7789 25.3236 25.7999 25.2713L26.1112 24.4973C26.1708 24.3471 26.2339 24.346 26.3004 24.4939C26.4609 24.8551 26.4942 25.2312 26.4002 25.6222C26.3957 25.6396 26.3956 25.6578 26.3997 25.6754C26.4038 25.6929 26.4121 25.7092 26.4238 25.723C26.4356 25.7367 26.4505 25.7476 26.4673 25.7546C26.4841 25.7616 26.5024 25.7645 26.5206 25.7632C27.728 25.6669 28.6981 26.8004 28.9079 27.9029C28.9093 27.9113 28.9084 27.9198 28.9053 27.9277C28.9022 27.9356 28.897 27.9425 28.8903 27.9476C28.8836 27.9527 28.8756 27.9559 28.8672 27.9569C28.8587 27.9578 28.8502 27.9564 28.8426 27.9528L28.33 27.6965C28.3069 27.6849 28.2814 27.6789 28.2555 27.6792C28.2296 27.6794 28.2042 27.6858 28.1812 27.6979C28.1582 27.71 28.1383 27.7274 28.1232 27.7487C28.1081 27.77 28.0982 27.7945 28.0944 27.8204C27.888 29.2239 27.3083 31.3412 25.8756 31.9415C25.3768 32.1513 24.5082 31.2242 24.2278 30.8493C23.9629 30.4967 22.9705 28.5582 23.1786 27.9064C23.1958 27.8513 23.1774 27.8123 23.1236 27.7894ZM24.4514 30.0443C24.4927 30.1211 24.546 30.171 24.6114 30.194C24.6698 30.2146 24.6905 30.1951 24.6733 30.1355C24.6423 30.0334 24.5867 29.9595 24.5064 29.9136C24.491 29.6934 24.3482 29.5507 24.2914 29.4096C24.1642 29.0955 24.0885 28.8105 24.0644 28.5548C24.0334 28.2223 24.0833 28.2097 24.214 28.517C24.253 28.6087 24.3488 28.6947 24.5013 28.775C24.5185 28.9665 24.5913 29.131 24.7197 29.2686C24.7321 29.2817 24.7473 29.2919 24.7642 29.2984C24.7811 29.3048 24.7992 29.3074 24.8172 29.3059C24.8352 29.3045 24.8526 29.2989 24.8682 29.2898C24.8838 29.2806 24.8971 29.2681 24.9072 29.2531C24.9496 29.1889 24.9806 29.1201 25.0001 29.0467C25.0115 28.9997 25.0391 28.9659 25.0826 28.9452C25.7552 28.6236 25.8205 28.0044 26.352 27.6862C26.5148 27.5899 26.5142 27.5153 26.3503 27.4626C26.4363 27.3479 26.4976 27.2121 26.5343 27.055C26.538 27.039 26.5457 27.0243 26.5568 27.0123C26.5678 27.0002 26.5819 26.9912 26.5975 26.986C26.6132 26.9809 26.6299 26.9798 26.6463 26.9828C26.6626 26.9858 26.6779 26.9929 26.6908 27.0034L27.1793 27.4179C27.1992 27.4346 27.2246 27.4431 27.2503 27.4415C27.276 27.4399 27.2999 27.4283 27.3169 27.4093L27.3616 27.3611C27.3995 27.3187 27.4064 27.2711 27.3823 27.2184C27.1128 26.6267 26.6662 26.4272 26.0424 26.6198C26.0111 26.6295 25.9822 26.646 25.9575 26.6682C25.9329 26.6905 25.9132 26.718 25.8996 26.7488C25.7666 27.0515 25.6376 27.356 25.5126 27.6621C25.4771 27.7504 25.4037 27.7831 25.2925 27.7602C25.2386 27.7498 25.2145 27.7166 25.2202 27.6604C25.289 27.0808 24.816 26.1244 24.085 26.6748C22.9498 27.528 23.5054 28.9246 24.1435 29.8568C24.2158 29.9635 24.3184 30.026 24.4514 30.0443Z" fill="#FDFEFE"/>
<path d="M4.87953 25.0339L4.90877 25.7511C4.91063 25.7917 4.89823 25.8316 4.87372 25.864C4.84922 25.8963 4.81415 25.9191 4.77461 25.9283C4.48106 26.0005 4.2116 26.1267 3.96621 26.3067C3.91576 26.3445 3.89053 26.3956 3.89053 26.4598L3.89741 26.9448C3.644 26.7407 3.51958 26.5435 3.52417 26.3531C3.54825 25.3555 4.00004 24.9158 4.87953 25.0339Z" fill="#FDFEFE"/>
<path d="M4.8795 25.0339L5.22006 25.961C5.2407 26.0149 5.23955 26.0688 5.21662 26.1227C4.97582 26.6748 4.4667 27.6157 3.89738 26.9449L3.8905 26.4598C3.8905 26.3956 3.91573 26.3446 3.96618 26.3067C4.21157 26.1267 4.48104 26.0006 4.77458 25.9283C4.81412 25.9191 4.84919 25.8964 4.87369 25.864C4.8982 25.8317 4.9106 25.7917 4.90874 25.7512L4.8795 25.0339Z" fill="#FDFEFE"/>
<path d="M10.669 25.7048C10.6599 25.7277 10.6518 25.7472 10.645 25.7633C10.6289 25.8046 10.6014 25.8149 10.5624 25.7943C10.5051 25.7644 10.4586 25.757 10.4231 25.7719C10.1914 25.8659 10.0332 26.0287 9.94835 26.2604C9.93115 26.3097 9.89905 26.3458 9.85204 26.3687C9.48854 26.5511 9.28214 26.8956 9.23283 27.4025C8.15783 26.1572 9.40311 24.7967 10.669 25.7048Z" fill="#FDFEFE"/>
<path d="M10.6691 25.7048C11.1036 26.1853 11.1283 26.5528 10.743 26.8074C10.4655 26.9931 10.2838 27.1204 10.1978 27.1892C9.879 27.4449 9.55736 27.516 9.23285 27.4025C9.28216 26.8956 9.48856 26.5511 9.85205 26.3688C9.89906 26.3458 9.93117 26.3097 9.94837 26.2604C10.0332 26.0288 10.1915 25.8659 10.4231 25.7719C10.4586 25.757 10.5051 25.7645 10.5624 25.7943C10.6014 25.8149 10.6289 25.8046 10.645 25.7633C10.6518 25.7473 10.6599 25.7278 10.6691 25.7048Z" fill="#FDFEFE"/>
<path d="M6.62701 27.8633C6.40227 27.9768 6.27556 28.0852 6.24689 28.1884C6.1735 28.4636 6.07776 28.4716 5.95965 28.2124C5.37829 26.9345 6.63561 26.0573 7.68137 26.9293C7.70398 26.9483 7.72159 26.9725 7.73266 26.9999C7.74373 27.0273 7.74792 27.0569 7.74487 27.0863C7.74181 27.1157 7.7316 27.1438 7.71513 27.1683C7.69867 27.1928 7.67645 27.2129 7.65041 27.2269C7.48071 27.3163 7.33278 27.4321 7.20665 27.5743C7.16537 27.6202 7.11606 27.6534 7.05873 27.6741C6.91081 27.7303 6.76691 27.7933 6.62701 27.8633Z" fill="#FDFEFE"/>
<path d="M26.3503 27.4626C26.5143 27.5154 26.5148 27.5899 26.352 27.6862C25.8205 28.0044 25.7552 28.6236 25.0826 28.9453C25.0391 28.9659 25.0116 28.9998 25.0001 29.0468C24.9806 29.1202 24.9496 29.189 24.9072 29.2532C24.8971 29.2682 24.8838 29.2807 24.8682 29.2898C24.8526 29.299 24.8352 29.3045 24.8172 29.306C24.7992 29.3075 24.7811 29.3049 24.7642 29.2984C24.7473 29.292 24.7321 29.2818 24.7197 29.2686C24.5913 29.131 24.5185 28.9665 24.5013 28.775C25.0637 28.1988 25.7552 27.9563 26.3503 27.4626Z" fill="#FDFEFE"/>
<path d="M8.86133 29.757C8.81934 29.7875 8.76697 29.8001 8.71571 29.792C8.66445 29.784 8.61847 29.7559 8.58785 29.714L8.56721 29.6848C8.44836 29.5215 8.39554 29.3203 8.42037 29.1255C8.44521 28.9307 8.54566 28.7582 8.69965 28.6459L8.74781 28.6115C8.90208 28.4998 9.09704 28.4575 9.28988 28.494C9.48273 28.5304 9.65769 28.6426 9.77637 28.8059L9.79873 28.8351C9.82921 28.8771 9.8418 28.9295 9.83374 28.9807C9.82568 29.032 9.79763 29.078 9.75573 29.1086L8.86133 29.757Z" fill="#FDFEFE"/>
<path d="M5.25964 29.6572C5.25661 29.946 5.33039 30.1809 5.42443 30.1819C5.51847 30.1828 5.59715 29.9496 5.60018 29.6608C5.6032 29.372 5.52942 29.1371 5.43538 29.1362C5.34134 29.1352 5.26266 29.3685 5.25964 29.6572Z" fill="#FDFEFE"/>
<path d="M20.8927 30.2146C20.8434 30.0461 20.7757 29.8896 20.6897 29.7451C20.4512 29.346 20.5464 29.236 20.9753 29.4148C21.1278 29.4791 21.2591 29.5714 21.3691 29.6918C21.3964 29.7216 21.4297 29.7452 21.4668 29.7611C21.5039 29.7771 21.544 29.7849 21.5844 29.7841C21.6247 29.7833 21.6645 29.7738 21.7009 29.7564C21.7374 29.739 21.7697 29.7141 21.7957 29.6832C21.9574 29.4917 22.15 29.3403 22.3736 29.2291C22.3976 29.2169 22.4246 29.212 22.4513 29.215C22.4781 29.218 22.5034 29.2287 22.524 29.2459C22.5447 29.2631 22.5599 29.286 22.5677 29.3118C22.5755 29.3375 22.5756 29.365 22.568 29.3908L22.3702 30.0461C22.3489 30.1169 22.3555 30.193 22.3884 30.2589C22.4214 30.3248 22.4782 30.3755 22.5473 30.4004C25.0413 31.3189 23.7238 34.5473 22.3186 35.7806C21.6753 36.3447 21.1765 36.0558 20.6639 35.5054C19.4049 34.1534 18.1734 31.2122 20.8153 30.3591C20.8443 30.3501 20.8686 30.3299 20.883 30.303C20.8975 30.276 20.9009 30.2443 20.8927 30.2146ZM20.5315 34.1758C20.5407 34.2148 20.5579 34.2394 20.5831 34.2498C20.5911 34.2531 20.5999 34.2545 20.6085 34.2537C20.6172 34.2529 20.6255 34.25 20.6328 34.2453C20.6401 34.2405 20.6462 34.2341 20.6504 34.2265C20.6546 34.2188 20.6569 34.2103 20.6571 34.2016C20.6594 34.1099 20.6232 34.033 20.5487 33.9711C20.4335 33.4362 20.2477 32.9821 20.3715 32.3922C20.3842 32.3314 20.4208 32.3073 20.4816 32.3199C20.5447 32.3337 20.6129 32.3635 20.6863 32.4094C20.3027 32.688 20.9305 33.4431 21.2006 33.6323C21.2251 33.6495 21.2547 33.658 21.2846 33.6564C21.3145 33.6549 21.3431 33.6434 21.3657 33.6237C21.4035 33.5904 21.4316 33.548 21.45 33.4964C21.4683 33.4459 21.5022 33.4093 21.5515 33.3863C21.8634 33.2453 22.099 33.0314 22.2584 32.7448C22.5129 32.2855 22.7503 31.957 22.4269 31.5064C22.3994 31.4685 22.4057 31.4387 22.4459 31.4169C22.4608 31.4077 22.4803 31.4032 22.5043 31.4032L22.9343 31.988C22.9395 31.9956 22.9468 32.0016 22.9553 32.0051C22.9638 32.0087 22.9732 32.0095 22.9823 32.0077C22.9913 32.0059 22.9996 32.0014 23.0061 31.9948C23.0125 31.9882 23.0169 31.9798 23.0186 31.9708C23.0754 31.6956 22.6746 31.3653 22.4854 31.2896C22.4292 31.1692 22.3472 31.0832 22.2395 31.0316C22.2161 31.0202 22.1905 31.0137 22.1642 31.0125C22.1379 31.0113 22.1114 31.0155 22.0864 31.0248C21.8398 31.1199 21.6868 31.273 21.6271 31.484L21.4018 31.5683C21.3204 31.3435 21.2086 31.1566 21.0664 31.0076C21.0251 30.964 20.9758 30.9519 20.9185 30.9714C19.4789 31.441 19.7936 33.0853 20.375 34.0898C20.4163 34.162 20.4684 34.1907 20.5315 34.1758Z" fill="#FDFEFE"/>
<path d="M24.5065 29.9136C24.5867 29.9594 24.6423 30.0334 24.6733 30.1355C24.6905 30.1951 24.6699 30.2146 24.6114 30.1939C24.546 30.171 24.4927 30.1211 24.4514 30.0443C24.4388 30.0305 24.4308 30.0162 24.4273 30.0013C24.4205 29.9772 24.4279 29.9589 24.4497 29.9463L24.5065 29.9136Z" fill="#FDFEFE"/>
<path d="M8.70698 32.1301C9.04898 31.9581 9.20513 31.5779 9.05574 31.2809C8.90635 30.9839 8.508 30.8825 8.166 31.0545C7.824 31.2265 7.66786 31.6068 7.81724 31.9038C7.96663 32.2008 8.36498 32.3021 8.70698 32.1301Z" fill="#FDFEFE"/>
<path d="M13.624 31.2998C14.0425 31.8135 14.4662 32.1936 14.8951 32.4402C15.0258 32.5158 15.129 32.6689 15.2838 32.7343C15.457 32.8065 15.5613 32.8581 15.5969 32.8891C15.7322 33.0083 15.7987 33.1219 15.7964 33.2296C15.7872 33.6126 15.8606 33.6298 16.0165 33.2812C16.247 32.7687 16.7252 32.49 17.2309 32.251C17.576 32.0881 17.8443 31.8164 18.0358 31.4357C18.1126 31.3749 18.2187 31.3348 18.354 31.3153C18.4171 31.3061 18.44 31.3319 18.4228 31.3927C18.1837 32.2372 18.0014 32.9957 17.2205 33.5134C17.0818 33.6052 16.986 33.6745 16.9333 33.7216C16.7705 33.8683 16.7986 33.9446 17.0176 33.9503C17.1919 33.9549 17.3713 34.0008 17.5559 34.0879C18.9021 34.7232 19.6618 35.7185 19.8349 37.0738C20.1118 39.2393 18.8821 40.8183 17.1328 41.8916C16.6375 42.196 16.3175 42.4901 15.9976 42.9253C15.9855 42.9419 15.9697 42.9553 15.9514 42.9646C15.933 42.9738 15.9128 42.9785 15.8922 42.9784C15.8717 42.9782 15.8515 42.9731 15.8334 42.9636C15.8152 42.9541 15.7996 42.9403 15.7878 42.9236C15.2855 42.2063 14.7076 42.0171 14.0815 41.563C12.8225 40.6514 12.0227 39.2514 12.0072 37.693C11.99 36.0298 13.1132 34.1911 14.9622 33.9022C14.9777 33.8999 14.9922 33.8932 15.0038 33.8827C15.0155 33.8722 15.0238 33.8585 15.0278 33.8432C15.0318 33.8279 15.0313 33.8117 15.0264 33.7965C15.0215 33.7813 15.0123 33.7678 15 33.7577C14.9817 33.7428 14.9742 33.7267 14.9777 33.7095C14.9834 33.6832 14.9736 33.6648 14.9484 33.6545C14.5402 33.4894 14.2088 33.1958 13.9543 32.7738C13.6435 32.2601 13.5334 31.7688 13.624 31.2998ZM14.0248 39.616C14.1177 39.7502 14.222 39.8499 14.3378 39.9153C14.4043 39.952 14.4158 39.9394 14.3722 39.8774L14.1693 39.5936C13.4537 38.1351 13.6573 36.8468 14.7799 35.7288C14.8062 35.7024 14.8469 35.6852 14.902 35.6772C14.9547 35.6692 14.9662 35.6875 14.9364 35.7322C14.6096 36.2276 14.445 36.7763 14.4427 37.3783C14.4427 37.4012 14.4467 37.4196 14.4548 37.4333C14.472 37.4586 14.4932 37.4654 14.5184 37.454C14.4725 37.6306 14.4737 37.8203 14.5219 38.0233C14.5425 38.4051 14.6789 38.7302 14.9312 38.9985C14.9702 39.041 15.0189 39.0622 15.0774 39.0622L15.676 39.0639C15.7333 39.0639 15.7832 39.0444 15.8256 39.0054L16.5893 38.3312C16.6317 38.2933 16.6782 38.2612 16.7286 38.2348C17.1999 37.9923 17.6918 36.993 17.6333 36.4839C17.5903 36.1227 17.2756 35.8234 17.2825 35.5379L18.3024 36.6731C18.3334 36.821 18.3924 36.9477 18.4796 37.0532C18.5277 37.1117 18.5564 37.1031 18.5656 37.0274C18.5782 36.9299 18.5363 36.8193 18.44 36.6954C18.3242 35.9501 17.975 35.4043 17.3925 35.058C16.2212 34.3631 14.2673 34.671 13.5948 35.9593C12.971 37.1518 13.0255 38.3226 13.7582 39.4715C13.7868 39.5162 13.8264 39.5472 13.8769 39.5644L14.0248 39.616Z" fill="#FDFEFE"/>
<path d="M22.4012 31.3137C22.4081 31.3676 22.4425 31.3974 22.5044 31.4032C22.4803 31.4032 22.4608 31.4077 22.4459 31.4169C22.4058 31.4387 22.3995 31.4685 22.427 31.5064C22.7503 31.957 22.513 32.2855 22.2584 32.7448C22.099 33.0314 21.8634 33.2453 21.5515 33.3863C21.5022 33.4093 21.4684 33.4459 21.45 33.4964C21.4317 33.548 21.4036 33.5904 21.3657 33.6237C21.3431 33.6434 21.3146 33.6549 21.2847 33.6564C21.2547 33.658 21.2251 33.6495 21.2006 33.6323C20.9306 33.4431 20.3028 32.688 20.6863 32.4094C21.0051 32.1938 21.2436 31.9134 21.4019 31.5683L21.6272 31.484C21.9276 31.5012 22.1856 31.4444 22.4012 31.3137Z" fill="#FDFEFE"/>
<path d="M22.4011 31.3136L22.4854 31.2896C22.6746 31.3652 23.0754 31.6955 23.0186 31.9707C23.0169 31.9797 23.0125 31.9881 23.0061 31.9947C22.9996 32.0013 22.9913 32.0058 22.9822 32.0076C22.9732 32.0095 22.9638 32.0086 22.9553 32.005C22.9467 32.0015 22.9394 31.9956 22.9343 31.9879L22.5043 31.4031C22.4424 31.3973 22.408 31.3675 22.4011 31.3136Z" fill="#FDFEFE"/>
<path d="M13.624 31.2998C14.6973 31.5005 15.438 31.9821 15.8463 32.7446C15.8531 32.757 15.8627 32.7677 15.8743 32.7758C15.886 32.7838 15.8993 32.7891 15.9133 32.7911C15.9274 32.7931 15.9417 32.7918 15.9551 32.7873C15.9685 32.7828 15.9807 32.7753 15.9907 32.7652C16.6271 32.1357 17.0503 31.6524 18.0358 31.4357C17.8443 31.8164 17.576 32.0881 17.2309 32.251C16.7252 32.49 16.247 32.7687 16.0165 33.2812C15.8606 33.6298 15.7872 33.6126 15.7964 33.2296C15.7987 33.1219 15.7322 33.0083 15.5969 32.8891C15.5613 32.8581 15.457 32.8065 15.2838 32.7343C15.129 32.6689 15.0258 32.5158 14.8951 32.4402C14.4663 32.1936 14.0426 31.8135 13.624 31.2998Z" fill="#FDFEFE"/>
<path d="M10.8548 32.9684C10.6255 33.2826 10.3096 33.4775 9.90708 33.5532C9.5734 32.7826 10.4592 32.2976 10.8548 32.9684Z" fill="#FDFEFE"/>
<path d="M10.8548 32.9683C11.0543 33.7302 10.4437 33.8317 9.9071 33.5531C10.3096 33.4774 10.6255 33.2824 10.8548 32.9683Z" fill="#FDFEFE"/>
<path d="M20.5487 33.9712C20.6232 34.0331 20.6594 34.1099 20.6571 34.2017C20.6569 34.2104 20.6546 34.2189 20.6504 34.2265C20.6462 34.2341 20.6401 34.2406 20.6329 34.2454C20.6256 34.2501 20.6172 34.253 20.6085 34.2538C20.5999 34.2546 20.5911 34.2532 20.5831 34.2498C20.5579 34.2395 20.5407 34.2149 20.5315 34.1759C20.4891 34.0933 20.4948 34.0251 20.5487 33.9712Z" fill="#FDFEFE"/>
<path d="M17.2824 35.5381C17.2756 35.8236 17.5903 36.1229 17.6333 36.4841C17.6918 36.9932 17.1999 37.9925 16.7286 38.235C16.6782 38.2614 16.6317 38.2935 16.5893 38.3313L15.8256 39.0056C15.7832 39.0446 15.7333 39.0641 15.676 39.0641L15.0774 39.0623C15.0189 39.0623 14.9702 39.0411 14.9312 38.9987C14.6789 38.7304 14.5425 38.4053 14.5219 38.0235C15.0608 37.6061 15.606 37.2093 16.1576 36.8332C16.5474 36.5661 16.8255 36.3184 16.9918 36.0902C17.1741 35.8402 17.1546 35.6309 16.9333 35.4624C17.017 35.4016 17.1334 35.4268 17.2824 35.5381Z" fill="#FDFEFE"/>
<path d="M16.9333 35.4624C17.1546 35.631 17.1741 35.8402 16.9918 36.0902C16.8255 36.3184 16.5475 36.5661 16.1576 36.8332C15.606 37.2093 15.0608 37.6061 14.5219 38.0235C14.4737 37.8205 14.4726 37.6307 14.5184 37.4542C14.6027 37.3785 14.6715 37.3527 14.7351 37.2529C15.2672 36.4078 15.9999 35.811 16.9333 35.4624Z" fill="#FDFEFE"/>
<path d="M18.44 36.6956C18.5363 36.8195 18.5782 36.9301 18.5656 37.0276C18.5564 37.1033 18.5277 37.1119 18.4796 37.0534C18.3924 36.9479 18.3334 36.8212 18.3024 36.6733C18.3116 36.6435 18.3127 36.6131 18.3058 36.5821C18.2737 36.4548 18.2829 36.4325 18.3334 36.515L18.44 36.6956Z" fill="#FDFEFE"/>
<path d="M14.1692 39.5936L14.3722 39.8774C14.4157 39.9394 14.4043 39.952 14.3378 39.9153C14.222 39.8499 14.1176 39.7502 14.0247 39.616C13.9743 39.5621 14.0224 39.5547 14.1692 39.5936Z" fill="#FDFEFE"/>
<path d="M83.85 36.5871C83.7765 35.8456 83.4608 35.2695 82.9031 34.8588C82.3454 34.4482 81.5885 34.2429 80.6324 34.2429C79.9827 34.2429 79.4342 34.3348 78.9868 34.5187C78.5394 34.6964 78.1962 34.9446 77.9572 35.2633C77.7243 35.582 77.6078 35.9436 77.6078 36.3481C77.5956 36.6852 77.6661 36.9794 77.8193 37.2307C77.9786 37.482 78.1962 37.6995 78.472 37.8834C78.7478 38.0611 79.0665 38.2174 79.4281 38.3522C79.7897 38.4809 80.1758 38.5913 80.5864 38.6832L82.278 39.0877C83.0992 39.2716 83.8531 39.5167 84.5395 39.8231C85.2259 40.1296 85.8204 40.5065 86.323 40.9539C86.8255 41.4013 87.2147 41.9284 87.4905 42.5351C87.7724 43.1419 87.9165 43.8375 87.9226 44.622C87.9165 45.7742 87.6223 46.7732 87.04 47.619C86.4639 48.4586 85.6304 49.1113 84.5395 49.5771C83.4547 50.0368 82.1462 50.2666 80.614 50.2666C79.0941 50.2666 77.7703 50.0337 76.6426 49.5679C75.521 49.1021 74.6446 48.4126 74.0133 47.4995C73.3882 46.5801 73.0603 45.4432 73.0296 44.0888H76.8816C76.9245 44.72 77.1053 45.2471 77.424 45.67C77.7488 46.0868 78.1809 46.4024 78.7202 46.6169C79.2657 46.8253 79.8816 46.9295 80.568 46.9295C81.2422 46.9295 81.8275 46.8314 82.3239 46.6353C82.8265 46.4392 83.2157 46.1664 83.4915 45.8171C83.7673 45.4678 83.9052 45.0663 83.9052 44.6128C83.9052 44.1899 83.7795 43.8344 83.5283 43.5464C83.2831 43.2583 82.9215 43.0132 82.4435 42.8109C81.9715 42.6087 81.3924 42.4248 80.7059 42.2593L78.6559 41.7445C77.0685 41.3584 75.8152 40.7547 74.8959 39.9335C73.9765 39.1122 73.5199 38.006 73.5261 36.6147C73.5199 35.4748 73.8233 34.4788 74.4362 33.6269C75.0552 32.775 75.904 32.1101 76.9827 31.632C78.0614 31.154 79.2871 30.915 80.66 30.915C82.0573 30.915 83.277 31.154 84.3189 31.632C85.3669 32.1101 86.182 32.775 86.7643 33.6269C87.3465 34.4788 87.6468 35.4656 87.6652 36.5871H83.85ZM96.9618 50.2758C95.5093 50.2758 94.259 49.9816 93.211 49.3932C92.1691 48.7988 91.3662 47.9591 90.8024 46.8743C90.2385 45.7834 89.9566 44.4933 89.9566 43.004C89.9566 41.5515 90.2385 40.2767 90.8024 39.1796C91.3662 38.0826 92.1599 37.2276 93.1834 36.6147C94.213 36.0018 95.4204 35.6954 96.8055 35.6954C97.7371 35.6954 98.6043 35.8456 99.4072 36.1459C100.216 36.4401 100.921 36.8844 101.522 37.4789C102.128 38.0734 102.6 38.8211 102.937 39.722C103.274 40.6168 103.443 41.6648 103.443 42.8661V43.9417H91.5194V41.5147H99.7565C99.7565 40.9508 99.6339 40.4513 99.3888 40.0162C99.1436 39.5811 98.8035 39.2409 98.3683 38.9958C97.9393 38.7445 97.4398 38.6188 96.8699 38.6188C96.2754 38.6188 95.7483 38.7567 95.2886 39.0325C94.8351 39.3022 94.4796 39.6669 94.2222 40.1265C93.9648 40.5801 93.833 41.0857 93.8269 41.6434V43.9509C93.8269 44.6496 93.9556 45.2533 94.213 45.7619C94.4766 46.2706 94.8474 46.6629 95.3254 46.9387C95.8034 47.2145 96.3704 47.3524 97.0261 47.3524C97.4613 47.3524 97.8597 47.2911 98.2213 47.1685C98.5829 47.0459 98.8924 46.8621 99.1498 46.6169C99.4072 46.3718 99.6033 46.0714 99.7381 45.716L103.36 45.955C103.176 46.8253 102.799 47.5853 102.229 48.2349C101.666 48.8784 100.936 49.381 100.042 49.7426C99.1528 50.0981 98.1263 50.2758 96.9618 50.2758ZM105.999 50V35.8793H109.795V38.343H109.943C110.2 37.4666 110.632 36.8047 111.239 36.3573C111.846 35.9038 112.544 35.677 113.335 35.677C113.531 35.677 113.742 35.6893 113.969 35.7138C114.196 35.7383 114.395 35.772 114.567 35.8149V39.2899C114.383 39.2348 114.129 39.1858 113.804 39.1429C113.479 39.1 113.182 39.0785 112.912 39.0785C112.336 39.0785 111.821 39.2041 111.368 39.4554C110.92 39.7006 110.565 40.0438 110.301 40.4851C110.044 40.9263 109.915 41.435 109.915 42.0111V50H105.999ZM116.665 50V31.1724H120.581V38.2511H120.701C120.872 37.8711 121.121 37.485 121.446 37.0928C121.776 36.6944 122.205 36.3634 122.733 36.0999C123.266 35.8302 123.928 35.6954 124.718 35.6954C125.748 35.6954 126.698 35.9651 127.568 36.5044C128.438 37.0376 129.134 37.8435 129.655 38.9222C130.176 39.9948 130.436 41.34 130.436 42.958C130.436 44.5331 130.182 45.8631 129.673 46.9479C129.171 48.0265 128.484 48.8447 127.614 49.4024C126.75 49.954 125.782 50.2298 124.709 50.2298C123.949 50.2298 123.303 50.1042 122.769 49.8529C122.242 49.6016 121.81 49.286 121.473 48.906C121.136 48.5199 120.879 48.1307 120.701 47.7385H120.526V50H116.665ZM120.499 42.9396C120.499 43.7793 120.615 44.5117 120.848 45.1368C121.081 45.7619 121.418 46.2492 121.859 46.5985C122.3 46.9417 122.837 47.1133 123.468 47.1133C124.105 47.1133 124.645 46.9387 125.086 46.5893C125.527 46.2339 125.861 45.7436 126.088 45.1184C126.321 44.4872 126.437 43.7609 126.437 42.9396C126.437 42.1245 126.324 41.4074 126.097 40.7884C125.871 40.1694 125.536 39.6852 125.095 39.3359C124.654 38.9866 124.112 38.8119 123.468 38.8119C122.831 38.8119 122.291 38.9804 121.85 39.3175C121.415 39.6546 121.081 40.1327 120.848 40.7517C120.615 41.3707 120.499 42.1 120.499 42.9396ZM137.076 50.2666C136.175 50.2666 135.372 50.1103 134.668 49.7977C133.963 49.4791 133.405 49.0102 132.994 48.3912C132.59 47.7661 132.388 46.9877 132.388 46.0561C132.388 45.2716 132.532 44.6128 132.82 44.0796C133.108 43.5464 133.5 43.1174 133.997 42.7925C134.493 42.4677 135.057 42.2226 135.688 42.0571C136.325 41.8916 136.993 41.7752 137.692 41.7077C138.513 41.6219 139.175 41.5423 139.678 41.4687C140.18 41.3891 140.545 41.2726 140.772 41.1194C140.999 40.9662 141.112 40.7394 141.112 40.4391V40.3839C141.112 39.8017 140.928 39.3512 140.56 39.0325C140.199 38.7138 139.684 38.5545 139.016 38.5545C138.311 38.5545 137.75 38.7108 137.334 39.0233C136.917 39.3298 136.641 39.7159 136.506 40.1817L132.884 39.8875C133.068 39.0295 133.43 38.2879 133.969 37.6627C134.508 37.0315 135.204 36.5473 136.056 36.2102C136.914 35.867 137.907 35.6954 139.034 35.6954C139.819 35.6954 140.57 35.7873 141.287 35.9712C142.01 36.1551 142.65 36.4401 143.208 36.8262C143.772 37.2123 144.216 37.7087 144.541 38.3155C144.866 38.9161 145.028 39.6362 145.028 40.4759V50H141.314V48.0419H141.204C140.977 48.4831 140.674 48.8723 140.294 49.2094C139.914 49.5403 139.457 49.8008 138.924 49.9908C138.391 50.1747 137.775 50.2666 137.076 50.2666ZM138.198 47.5638C138.774 47.5638 139.283 47.4504 139.724 47.2237C140.165 46.9908 140.511 46.6782 140.763 46.286C141.014 45.8937 141.14 45.4494 141.14 44.9529V43.4545C141.017 43.5341 140.849 43.6077 140.634 43.6751C140.426 43.7364 140.19 43.7946 139.926 43.8498C139.663 43.8988 139.399 43.9448 139.136 43.9877C138.872 44.0244 138.633 44.0581 138.418 44.0888C137.959 44.1562 137.557 44.2635 137.214 44.4105C136.871 44.5576 136.604 44.7568 136.414 45.0081C136.224 45.2533 136.129 45.5597 136.129 45.9274C136.129 46.4606 136.322 46.8682 136.709 47.1501C137.101 47.4259 137.597 47.5638 138.198 47.5638ZM158.354 36.5871C158.28 35.8456 157.965 35.2695 157.407 34.8588C156.849 34.4482 156.092 34.2429 155.136 34.2429C154.487 34.2429 153.938 34.3348 153.491 34.5187C153.043 34.6964 152.7 34.9446 152.461 35.2633C152.228 35.582 152.112 35.9436 152.112 36.3481C152.099 36.6852 152.17 36.9794 152.323 37.2307C152.482 37.482 152.7 37.6995 152.976 37.8834C153.252 38.0611 153.57 38.2174 153.932 38.3522C154.294 38.4809 154.68 38.5913 155.09 38.6832L156.782 39.0877C157.603 39.2716 158.357 39.5167 159.043 39.8231C159.73 40.1296 160.324 40.5065 160.827 40.9539C161.329 41.4013 161.719 41.9284 161.994 42.5351C162.276 43.1419 162.42 43.8375 162.426 44.622C162.42 45.7742 162.126 46.7732 161.544 47.619C160.968 48.4586 160.134 49.1113 159.043 49.5771C157.959 50.0368 156.65 50.2666 155.118 50.2666C153.598 50.2666 152.274 50.0337 151.146 49.5679C150.025 49.1021 149.148 48.4126 148.517 47.4995C147.892 46.5801 147.564 45.4432 147.533 44.0888H151.385C151.428 44.72 151.609 45.2471 151.928 45.67C152.253 46.0868 152.685 46.4024 153.224 46.6169C153.77 46.8253 154.385 46.9295 155.072 46.9295C155.746 46.9295 156.331 46.8314 156.828 46.6353C157.33 46.4392 157.72 46.1664 157.995 45.8171C158.271 45.4678 158.409 45.0663 158.409 44.6128C158.409 44.1899 158.283 43.8344 158.032 43.5464C157.787 43.2583 157.425 43.0132 156.947 42.8109C156.475 42.6087 155.896 42.4248 155.21 42.2593L153.16 41.7445C151.572 41.3584 150.319 40.7547 149.4 39.9335C148.48 39.1122 148.024 38.006 148.03 36.6147C148.024 35.4748 148.327 34.4788 148.94 33.6269C149.559 32.775 150.408 32.1101 151.487 31.632C152.565 31.154 153.791 30.915 155.164 30.915C156.561 30.915 157.781 31.154 158.823 31.632C159.871 32.1101 160.686 32.775 161.268 33.6269C161.85 34.4788 162.151 35.4656 162.169 36.5871H158.354ZM171.466 50.2758C170.013 50.2758 168.763 49.9816 167.715 49.3932C166.673 48.7988 165.87 47.9591 165.306 46.8743C164.742 45.7834 164.46 44.4933 164.46 43.004C164.46 41.5515 164.742 40.2767 165.306 39.1796C165.87 38.0826 166.664 37.2276 167.687 36.6147C168.717 36.0018 169.924 35.6954 171.309 35.6954C172.241 35.6954 173.108 35.8456 173.911 36.1459C174.72 36.4401 175.425 36.8844 176.025 37.4789C176.632 38.0734 177.104 38.8211 177.441 39.722C177.778 40.6168 177.947 41.6648 177.947 42.8661V43.9417H166.023V41.5147H174.26C174.26 40.9508 174.138 40.4513 173.893 40.0162C173.647 39.5811 173.307 39.2409 172.872 38.9958C172.443 38.7445 171.944 38.6188 171.374 38.6188C170.779 38.6188 170.252 38.7567 169.792 39.0325C169.339 39.3022 168.983 39.6669 168.726 40.1265C168.469 40.5801 168.337 41.0857 168.331 41.6434V43.9509C168.331 44.6496 168.459 45.2533 168.717 45.7619C168.98 46.2706 169.351 46.6629 169.829 46.9387C170.307 47.2145 170.874 47.3524 171.53 47.3524C171.965 47.3524 172.363 47.2911 172.725 47.1685C173.087 47.0459 173.396 46.8621 173.654 46.6169C173.911 46.3718 174.107 46.0714 174.242 45.716L177.864 45.955C177.68 46.8253 177.303 47.5853 176.733 48.2349C176.169 48.8784 175.44 49.381 174.545 49.7426C173.657 50.0981 172.63 50.2758 171.466 50.2758ZM186.864 55.5895C185.596 55.5895 184.508 55.4148 183.601 55.0654C182.7 54.7222 181.983 54.2534 181.449 53.6589C180.916 53.0644 180.57 52.3964 180.411 51.6548L184.033 51.1675C184.143 51.4495 184.318 51.713 184.557 51.9581C184.796 52.2033 185.111 52.3994 185.504 52.5465C185.902 52.6997 186.386 52.7763 186.956 52.7763C187.808 52.7763 188.51 52.568 189.061 52.1512C189.619 51.7406 189.898 51.0511 189.898 50.0827V47.4995H189.732C189.561 47.8917 189.303 48.2625 188.96 48.6118C188.617 48.9612 188.176 49.2462 187.636 49.4668C187.097 49.6874 186.454 49.7977 185.706 49.7977C184.646 49.7977 183.68 49.5526 182.81 49.0623C181.946 48.5659 181.256 47.809 180.742 46.7916C180.233 45.7681 179.979 44.4749 179.979 42.9121C179.979 41.3124 180.239 39.9764 180.76 38.9038C181.281 37.8313 181.973 37.0284 182.838 36.4952C183.708 35.962 184.661 35.6954 185.697 35.6954C186.487 35.6954 187.149 35.8302 187.682 36.0999C188.216 36.3634 188.645 36.6944 188.969 37.0928C189.3 37.485 189.555 37.8711 189.732 38.2511H189.88V35.8793H193.768V50.1379C193.768 51.3391 193.474 52.3443 192.886 53.1533C192.297 53.9623 191.482 54.569 190.44 54.9735C189.405 55.3841 188.213 55.5895 186.864 55.5895ZM186.947 46.8559C187.578 46.8559 188.111 46.6996 188.547 46.3871C188.988 46.0684 189.325 45.6149 189.558 45.0265C189.797 44.432 189.916 43.7211 189.916 42.8937C189.916 42.0663 189.8 41.3492 189.567 40.7425C189.334 40.1296 188.997 39.6546 188.556 39.3175C188.114 38.9804 187.578 38.8119 186.947 38.8119C186.303 38.8119 185.761 38.9866 185.32 39.3359C184.878 39.6791 184.544 40.1572 184.318 40.77C184.091 41.3829 183.978 42.0908 183.978 42.8937C183.978 43.7088 184.091 44.4136 184.318 45.0081C184.551 45.5965 184.885 46.0531 185.32 46.3779C185.761 46.6966 186.303 46.8559 186.947 46.8559ZM200.911 50.2666C200.01 50.2666 199.208 50.1103 198.503 49.7977C197.798 49.4791 197.24 49.0102 196.83 48.3912C196.425 47.7661 196.223 46.9877 196.223 46.0561C196.223 45.2716 196.367 44.6128 196.655 44.0796C196.943 43.5464 197.335 43.1174 197.832 42.7925C198.328 42.4677 198.892 42.2226 199.523 42.0571C200.161 41.8916 200.829 41.7752 201.527 41.7077C202.349 41.6219 203.011 41.5423 203.513 41.4687C204.016 41.3891 204.38 41.2726 204.607 41.1194C204.834 40.9662 204.947 40.7394 204.947 40.4391V40.3839C204.947 39.8017 204.763 39.3512 204.396 39.0325C204.034 38.7138 203.519 38.5545 202.851 38.5545C202.146 38.5545 201.586 38.7108 201.169 39.0233C200.752 39.3298 200.476 39.7159 200.341 40.1817L196.719 39.8875C196.903 39.0295 197.265 38.2879 197.804 37.6627C198.343 37.0315 199.039 36.5473 199.891 36.2102C200.749 35.867 201.742 35.6954 202.87 35.6954C203.654 35.6954 204.405 35.7873 205.122 35.9712C205.845 36.1551 206.486 36.4401 207.043 36.8262C207.607 37.2123 208.051 37.7087 208.376 38.3155C208.701 38.9161 208.863 39.6362 208.863 40.4759V50H205.149V48.0419H205.039C204.812 48.4831 204.509 48.8723 204.129 49.2094C203.749 49.5403 203.292 49.8008 202.759 49.9908C202.226 50.1747 201.61 50.2666 200.911 50.2666ZM202.033 47.5638C202.609 47.5638 203.118 47.4504 203.559 47.2237C204 46.9908 204.347 46.6782 204.598 46.286C204.849 45.8937 204.975 45.4494 204.975 44.9529V43.4545C204.852 43.5341 204.684 43.6077 204.469 43.6751C204.261 43.7364 204.025 43.7946 203.761 43.8498C203.498 43.8988 203.234 43.9448 202.971 43.9877C202.707 44.0244 202.468 44.0581 202.254 44.0888C201.794 44.1562 201.393 44.2635 201.049 44.4105C200.706 44.5576 200.439 44.7568 200.249 45.0081C200.059 45.2533 199.964 45.5597 199.964 45.9274C199.964 46.4606 200.158 46.8682 200.544 47.1501C200.936 47.4259 201.432 47.5638 202.033 47.5638ZM211.902 50V35.8793H215.699V38.343H215.846C216.103 37.4666 216.535 36.8047 217.142 36.3573C217.749 35.9038 218.447 35.677 219.238 35.677C219.434 35.677 219.646 35.6893 219.872 35.7138C220.099 35.7383 220.298 35.772 220.47 35.8149V39.2899C220.286 39.2348 220.032 39.1858 219.707 39.1429C219.382 39.1 219.085 39.0785 218.815 39.0785C218.239 39.0785 217.724 39.2041 217.271 39.4554C216.823 39.7006 216.468 40.0438 216.204 40.4851C215.947 40.9263 215.818 41.435 215.818 42.0111V50H211.902Z" fill="white"/>
</svg>
